<ttFont>
        <CharString name=".notdef">
          -113 endchar
        </CharString>
        <CharString name="A">
          48 21 -21 212 24 467 -20 hstem
          10 416 vstem
          224 703 rmoveto
          -1 1 -4 1 -4 -3 -2 -1 0 hflex1
          -200 -703 rlineto
          -1 7 5 0 2 hhcurveto
          7 5 0 7 2 hvcurveto
          57 206 rlineto
          246 hlineto
          60 -212 rlineto
          -1 5 7 0 4 hhcurveto
          6 3 2 4 hvcurveto
          2 -1 1 2 vvcurveto
          -324 226 rmoveto
          65 234 25 92 23 86 3 21 rlinecurve
          2 -21 24 -87 25 -91 66 -234 rcurveline
          endchar
        </CharString>
        <CharString name="AE">
          287 0 24 188 24 136 24 280 24 hstem
          389 24 vstem
          413 24 rmoveto
          348 197 vlineto
          8 0 4 20 hvcurveto
          -205 280 219 hlineto
          6 0 4 20 hvcurveto
          -242 hlineto
          -3 -4 -4 -2 -1 hvcurveto
          -369 -694 rlineto
          -1 7 5 0 2 hhcurveto
          7 4 1 6 3 hvcurveto
          110 206 rlineto
          232 -212 243 hlineto
          8 0 3 21 hvcurveto
          -251 212 rmoveto
          -219 hlineto
          122 230 32 60 40 80 25 51 rlinecurve
          endchar
        </CharString>
        <CharString name="Aacute">
          48 21 -21 212 24 467 -20 hstem
          401 24 vstem
          294 889 rmoveto
          0 -5 23 -8 vhcurveto
          0 -73 -55 -66 -62 vhcurveto
          10 -16 rlineto
          76 53 66 57 0 vvcurveto
          -70 -186 rmoveto
          -1 1 -4 1 -4 -3 -2 -1 0 hflex1
          -200 -703 rlineto
          -1 7 5 0 2 hhcurveto
          7 5 0 7 2 hvcurveto
          57 206 rlineto
          246 hlineto
          60 -212 rlineto
          -1 5 7 0 4 hhcurveto
          8 2 3 8 -2 hvcurveto
          -324 226 rmoveto
          65 234 25 92 23 86 3 21 rlinecurve
          2 -21 24 -87 25 -91 66 -234 rcurveline
          endchar
        </CharString>
        <CharString name="Abreve">
          48 21 -21 212 24 467 -20 102 24 hstem
          401 24 vstem
          218 785 rmoveto
          73 30 67 41 12 hvcurveto
          -2 12 -18 6 -5 -14 rrcurveto
          -38 -14 -19 -50 -56 hhcurveto
          -59 -25 62 36 -12 hvcurveto
          -10 -1 -9 -2 -10 vvcurveto
          -18 36 -91 78 vhcurveto
          6 -82 rmoveto
          -1 1 -4 1 -4 -3 -2 -1 0 hflex1
          -200 -703 rlineto
          -1 7 5 0 2 hhcurveto
          7 5 0 7 2 hvcurveto
          57 206 rlineto
          246 hlineto
          60 -212 rlineto
          -1 5 7 0 4 hhcurveto
          8 2 3 8 -2 hvcurveto
          -324 226 rmoveto
          65 234 25 92 23 86 3 21 rlinecurve
          2 -21 24 -87 25 -91 66 -234 rcurveline
          endchar
        </CharString>
        <CharString name="Acircumflex">
          48 21 -21 212 24 467 -20 192 24 hstem
          401 24 vstem
          104 794 rmoveto
          0 5 -13 14 6 92 94 0 vhcurveto
          89 -95 rlineto
          12 10 16 0 hvcurveto
          -96 96 rlineto
          5 -5 -5 2 -4 hhcurveto
          -4 -3 -1 -1 -1 hvcurveto
          10 -194 rmoveto
          -1 1 -4 1 -4 -3 -2 -1 0 hflex1
          -200 -703 rlineto
          -1 7 5 0 2 hhcurveto
          7 5 0 7 2 hvcurveto
          57 206 rlineto
          246 hlineto
          60 -212 rlineto
          -1 5 7 0 4 hhcurveto
          8 2 3 8 -2 hvcurveto
          -324 226 rmoveto
          65 234 25 92 23 86 3 21 rlinecurve
          2 -21 24 -87 25 -91 66 -234 rcurveline
          endchar
        </CharString>
        <CharString name="Acy">
          48 21 -21 212 24 467 -20 hstem
          210 14 177 24 vstem
          224 703 rmoveto
          -1 1 -4 1 -4 -3 -2 -1 0 hflex1
          -200 -703 rlineto
          -1 7 5 0 2 hhcurveto
          7 5 0 7 2 hvcurveto
          57 206 rlineto
          246 hlineto
          60 -212 rlineto
          -1 5 7 0 4 hhcurveto
          8 2 3 8 -2 hvcurveto
          -324 226 rmoveto
          65 234 25 92 23 86 3 21 rlinecurve
          2 -21 24 -87 25 -91 66 -234 rcurveline
          endchar
        </CharString>
        <CharString name="Adieresis">
          48 21 -21 212 24 467 -20 hstem
          150 37 63 37 114 24 vstem
          224 703 rmoveto
          -1 1 -4 1 -4 -3 -2 -1 0 hflex1
          -200 -703 rlineto
          -1 7 5 0 2 hhcurveto
          7 5 0 7 2 hvcurveto
          57 206 rlineto
          246 hlineto
          60 -212 rlineto
          -1 5 7 0 4 hhcurveto
          8 2 3 8 -2 hvcurveto
          -324 226 rmoveto
          65 234 25 92 23 86 3 21 rlinecurve
          2 -21 24 -87 25 -91 66 -234 rcurveline
          -167 578 rmoveto
          14 5 9 17 1 hvcurveto
          19 1 -6 11 -13 hhcurveto
          -12 -6 -9 -19 -1 hvcurveto
          -1 -17 5 -10 13 -1 rrcurveto
          100 hmoveto
          14 5 9 17 1 hvcurveto
          19 1 -6 11 -13 hhcurveto
          -12 -6 -9 -19 -1 hvcurveto
          -1 -17 5 -10 13 -1 rrcurveto
          endchar
        </CharString>
        <CharString name="Agrave">
          48 21 -21 212 24 467 -20 hstem
          401 24 vstem
          294 795 rmoveto
          -66 62 -73 55 0 vvcurveto
          -8 -5 -23 0 0 66 -57 76 -53 hvcurveto
          10 16 rlineto
          -70 -92 rmoveto
          -1 1 -4 1 -4 -3 -2 -1 0 hflex1
          -200 -703 rlineto
          -1 7 5 0 2 hhcurveto
          7 5 0 7 2 hvcurveto
          57 206 rlineto
          246 hlineto
          60 -212 rlineto
          -1 5 7 0 4 hhcurveto
          8 2 3 8 -2 hvcurveto
          -324 226 rmoveto
          65 234 25 92 23 86 3 21 rlinecurve
          2 -21 24 -87 25 -91 66 -234 rcurveline
          endchar
        </CharString>
        <CharString name="Amacron">
          48 21 -21 212 24 467 -20 140 25 hstem
          401 24 vstem
          328 823 rmoveto
          7 3 4 8 1 hvcurveto
          4 0 4 -1 5 vhcurveto
          -230 hlineto
          -7 -3 -4 -8 -1 hvcurveto
          -4 0 -4 1 -5 vhcurveto
          126 -120 rmoveto
          -1 1 -4 1 -4 -3 -2 -1 0 hflex1
          -200 -703 rlineto
          -1 7 5 0 2 hhcurveto
          7 5 0 7 2 hvcurveto
          57 206 rlineto
          246 hlineto
          60 -212 rlineto
          -1 5 7 0 4 hhcurveto
          8 2 3 8 -2 hvcurveto
          -324 226 rmoveto
          65 234 25 92 23 86 3 21 rlinecurve
          2 -21 24 -87 25 -91 66 -234 rcurveline
          endchar
        </CharString>
        <CharString name="Aogonek">
          48 -195 23 193 -21 212 24 467 -20 hstem
          313 24 vstem
          10 hmoveto
          -1 7 5 0 2 hhcurveto
          7 5 0 7 2 hvcurveto
          57 206 rlineto
          246 hlineto
          57 -201 rlineto
          -39 -26 -46 -48 -55 vvcurveto
          -50 26 -27 44 20 21 5 12 6 -3 5 -3 5 vhcurveto
          -5 -8 -10 -5 -16 hhcurveto
          -34 -13 20 35 47 40 44 43 26 hvcurveto
          4 2 2 2 3 vvcurveto
          1 0 1 -1 2 vhcurveto
          -201 692 rlineto
          -1 1 -4 1 -4 -3 -2 -1 0 hflex1
          124 -467 rmoveto
          -233 hlineto
          65 234 25 92 23 86 3 21 rlinecurve
          2 -21 24 -87 25 -91 rrcurveto
          endchar
        </CharString>
        <CharString name="Aring">
          48 21 -21 212 24 467 -20 84 24 119 24 hstem
          136 24 116 24 101 24 vstem
          215 767 rmoveto
          53 32 29 54 62 -26 22 -52 -52 -34 -27 -57 -62 32 -21 47 hvcurveto
          8 143 rmoveto
          34 19 -14 -45 -41 -22 -19 -39 -36 -19 21 35 48 23 15 40 hvcurveto
          1 -207 rmoveto
          -1 1 -4 1 -4 -3 -2 -1 0 hflex1
          -200 -703 rlineto
          -1 7 5 0 2 hhcurveto
          7 5 0 7 2 hvcurveto
          57 206 rlineto
          246 hlineto
          60 -212 rlineto
          -1 5 7 0 4 hhcurveto
          8 2 3 8 -2 hvcurveto
          -324 226 rmoveto
          65 234 25 92 23 86 3 21 rlinecurve
          2 -21 24 -87 25 -91 66 -234 rcurveline
          endchar
        </CharString>
        <CharString name="Atilde">
          48 21 -21 212 24 467 -20 111 25 34 21 hstem
          401 24 vstem
          96 800 rmoveto
          9 17 53 42 34 7 -59 61 hhcurveto
          56 20 34 28 14 hvcurveto
          0 -6 15 -9 vhcurveto
          -9 -10 -52 -56 -46 -2 55 -48 hhcurveto
          -35 -24 -9 -51 -31 hvcurveto
          0 9 -14 7 vhcurveto
          128 -97 rmoveto
          -1 1 -4 1 -4 -3 -2 -1 0 hflex1
          -200 -703 rlineto
          -1 7 5 0 2 hhcurveto
          7 5 0 7 2 hvcurveto
          57 206 rlineto
          246 hlineto
          60 -212 rlineto
          -1 5 7 0 4 hhcurveto
          8 2 3 8 -2 hvcurveto
          -324 226 rmoveto
          65 234 25 92 23 86 3 21 rlinecurve
          2 -21 24 -87 25 -91 66 -234 rcurveline
          endchar
        </CharString>
        <CharString name="B">
          22 0 24 347 24 282 23 hstem
          68 24 264 24 vstem
          68 hmoveto
          117 hlineto
          45 150 4 235 126 -84 21 -39 1 hvcurveto
          39 6 63 31 126 vvcurveto
          127 -94 23 -72 vhcurveto
          -101 hlineto
          -20 -4 -7 -9 hvcurveto
          24 -289 rmoveto
          282 96 vlineto
          73 74 -25 -103 -122 -63 -32 -75 hvcurveto
          -105 -371 rmoveto
          347 91 vlineto
          96 77 -6 -128 -173 -87 -40 -85 hvcurveto
          endchar
        </CharString>
        <CharString name="Becy">
          30 0 24 349 24 279 24 hstem
          77 24 251 24 vstem
          87 700 rmoveto
          -10 0 -10 0 hvcurveto
          -690 111 vlineto
          124 64 88 133 120 -51 56 -120 hvcurveto
          -104 279 238 hlineto
          5 0 4 20 hvcurveto
          -243 -676 rmoveto
          349 101 vlineto
          106 44 -48 -106 -115 -52 -80 -116 hvcurveto
          endchar
        </CharString>
        <CharString name="C">
          -19 -9 25 670 23 hstem
          48 25 vstem
          239 709 rmoveto
          -88 -103 -32 -366 -313 102 -7 63 69 57 44 23 6 -4 7 -3 5 hvcurveto
          -25 -16 -49 -35 -53 hhcurveto
          -64 -77 31 259 347 87 33 76 46 36 -32 -7 6 hvcurveto
          4 3 3 8 5 vvcurveto
          16 -37 30 -55 vhcurveto
          endchar
        </CharString>
        <CharString name="CR">
          -198 endchar
        </CharString>
        <CharString name="Cacute">
          -19 -9 25 670 23 hstem
          48 25 vstem
          149 779 rmoveto
          76 53 66 57 0 vvcurveto
          0 -5 23 -8 vhcurveto
          0 -73 -55 -66 -62 vhcurveto
          10 -16 rlineto
          90 -70 rmoveto
          -88 -103 -32 -366 -313 102 -7 63 69 57 44 23 6 -4 7 -3 5 hvcurveto
          -25 -16 -49 -35 -53 hhcurveto
          -64 -77 31 259 347 87 33 76 46 36 -32 -7 6 hvcurveto
          4 3 3 8 5 vvcurveto
          16 -37 30 -55 vhcurveto
          endchar
        </CharString>
        <CharString name="Ccaron">
          -19 -9 25 670 23 hstem
          48 25 vstem
          223 786 rmoveto
          11 96 112 8 6 -5 5 -7 5 hvcurveto
          0 -54 -60 -42 -51 vhcurveto
          0 -97 105 -8 -9 -8 -14 0 0 110 -116 13 vhcurveto
          16 -77 rmoveto
          -88 -103 -32 -366 -313 102 -7 63 69 57 44 23 6 -4 7 -3 5 hvcurveto
          -25 -16 -49 -35 -53 hhcurveto
          -64 -77 31 259 347 87 33 76 46 36 -32 -7 6 hvcurveto
          4 3 3 8 5 vvcurveto
          16 -37 30 -55 vhcurveto
          endchar
        </CharString>
        <CharString name="Ccedilla">
          -19 -177 23 74 21 50 25 670 23 hstem
          48 25 189 24 vstem
          190 -85 rmoveto
          0 19 5 16 18 19 -4 -32 -30 -19 -8 -19 vhcurveto
          -16 -14 8 -8 hhcurveto
          -10 -1 -25 0 0 23 -6 26 26 36 11 56 37 -25 14 -22 -12 -7 -2 0 hvcurveto
          11 53 rlineto
          61 7 47 38 21 vvcurveto
          6 -4 7 -3 5 vhcurveto
          -25 -16 -49 -35 -53 hhcurveto
          -64 -77 31 259 347 87 33 76 46 36 -32 -7 6 hvcurveto
          4 3 3 8 5 vvcurveto
          16 -37 30 -55 -88 -103 -32 -366 -302 95 -17 63 -1 vhcurveto
          endchar
        </CharString>
        <CharString name="Checy">
          32 21 -21 290 24 386 -20 hstem
          40 24 255 24 vstem
          343 700 rmoveto
          -24 0 -1 -9 hvcurveto
          -350 vlineto
          -18 -45 -45 -8 -38 hhcurveto
          -79 -49 55 106 1 hvcurveto
          225 vlineto
          -24 0 0 -10 hvcurveto
          -222 vlineto
          -117 1 57 -61 91 hhcurveto
          37 46 7 14 47 hvcurveto
          -311 vlineto
          24 0 0 10 hvcurveto
          endchar
        </CharString>
        <CharString name="D">
          49 0 24 652 24 hstem
          70 24 271 24 vstem
          94 700 rmoveto
          -20 -4 -7 -9 hvcurveto
          -684 117 vlineto
          101 101 47 341 218 -68 94 -126 hvcurveto
          -101 -676 rmoveto
          652 96 vlineto
          123 52 -91 -197 -319 -88 -45 -91 hvcurveto
          endchar
        </CharString>
        <CharString name="Dcaron">
          49 0 24 652 24 hstem
          70 24 271 24 vstem
          198 786 rmoveto
          11 96 112 8 6 -5 5 -7 5 hvcurveto
          0 -54 -60 -42 -51 vhcurveto
          0 -97 105 -8 -9 -8 -14 0 0 110 -116 13 vhcurveto
          -104 -86 rmoveto
          -20 -4 -7 -9 hvcurveto
          -684 117 vlineto
          101 101 47 341 218 -68 94 -126 hvcurveto
          -101 -676 rmoveto
          652 96 vlineto
          123 52 -91 -197 -319 -88 -45 -91 hvcurveto
          endchar
        </CharString>
        <CharString name="Dcroat">
          49 0 24 652 24 123 25 hstem
          70 24 271 24 vstem
          300 823 rmoveto
          7 3 4 8 1 hvcurveto
          4 0 4 -1 5 vhcurveto
          -230 hlineto
          -7 -3 -4 -8 -1 hvcurveto
          -4 0 -4 1 -5 vhcurveto
          24 -123 rmoveto
          -20 -4 -7 -9 hvcurveto
          -684 117 vlineto
          101 101 47 341 218 -68 94 -126 hvcurveto
          -101 -676 rmoveto
          652 96 vlineto
          123 52 -91 -197 -319 -88 -45 -91 hvcurveto
          endchar
        </CharString>
        <CharString name="Decy">
          79 0 24 652 24 hstem
          18 26 111 23 180 24 vstem
          432 24 rmoveto
          -50 676 -202 hlineto
          -23 -2 0 -10 hvcurveto
          -603 -29 -39 -63 -57 hhcurveto
          -12 -178 hlineto
          -6 11 0 5 vhcurveto
          10 64 0 67 29 vvcurveto
          362 hlineto
          -29 0 -67 10 -64 vhcurveto
          5 11 0 6 hvcurveto
          -74 830 rmoveto
          -652 -278 vlineto
          45 35 22 142 31 475 rrcurveto
          endchar
        </CharString>
        <CharString name="Delta">
          66 0 24 679 -20 hstem
          33 402 vstem
          33 hmoveto
          402 hlineto
          -190 701 rlineto
          1 -2 -4 1 -4 hhcurveto
          -9 -8 -4 -15 -4 hvcurveto
          -149 -660 rmoveto
          166 630 rlineto
          2 hlineto
          171 -630 rlineto
          endchar
        </CharString>
        <CharString name="Djecy">
          147 -7 21 473 23 166 24 hstem
          166 24 251 24 vstem
          355 700 rmoveto
          -340 hlineto
          -7 -3 -3 -7 hvcurveto
          -14 161 -676 vlineto
          24 0 0 9 hvcurveto
          448 vlineto
          18 41 63 12 38 hhcurveto
          87 22 -39 -114 hvcurveto
          -55 vlineto
          -154 -33 -111 -98 -18 -19 3 7 -17 vhcurveto
          -1 -3 0 -3 0 -3 0 -3 0 -3 1 -3 50 flex
          -10 4 28 -3 28 hhcurveto
          117 32 127 163 hvcurveto
          48 vlineto
          129 -2 -23 50 -109 hhcurveto
          -48 -46 -11 -15 -47 hvcurveto
          192 155 vlineto
          8 2 4 6 hvcurveto
          endchar
        </CharString>
        <CharString name="Dzecy">
          -5 -10 24 673 23 hstem
          46 24 251 24 vstem
          238 337 rmoveto
          62 -62 21 -46 -68 vvcurveto
          -86 -43 -61 -102 -69 -32 18 20 -21 vhcurveto
          -8 -3 -4 -6 -7 vvcurveto
          -14 39 -32 93 117 54 71 105 71 -19 47 -60 60 vhcurveto
          -131 123 rlineto
          -36 36 -29 35 47 vvcurveto
          60 53 42 79 61 39 -17 -15 18 vhcurveto
          5 4 4 7 6 vvcurveto
          15 -38 23 -83 -101 -61 -53 -73 -53 30 -41 45 -45 vhcurveto
          endchar
        </CharString>
        <CharString name="Dzhecy">
          81 0 24 676 -20 hstem
          77 24 127 26 114 24 vstem
          368 24 rmoveto
          -267 676 hlineto
          -23 -1 0 -10 hvcurveto
          -690 151 vlineto
          -29 0 -67 10 -64 vhcurveto
          5 11 0 6 hvcurveto
          154 114 vlineto
          23 1 0 10 hvcurveto
          690 vlineto
          -23 -1 0 -10 hvcurveto
          endchar
        </CharString>
        <CharString name="E">
          -31 0 24 348 24 280 24 hstem
          71 24 vstem
          95 24 rmoveto
          348 197 vlineto
          8 0 4 20 hvcurveto
          -205 280 219 hlineto
          6 0 4 20 hvcurveto
          -239 hlineto
          -10 0 -10 0 hvcurveto
          -690 243 vlineto
          8 0 3 21 hvcurveto
          endchar
        </CharString>
        <CharString name="Eacute">
          -31 0 24 348 24 280 24 hstem
          71 24 vstem
          273 889 rmoveto
          0 -5 23 -8 vhcurveto
          0 -73 -55 -66 -62 vhcurveto
          10 -16 rlineto
          76 53 66 57 0 vvcurveto
          -178 -865 rmoveto
          348 197 vlineto
          8 0 4 20 hvcurveto
          -205 280 219 hlineto
          6 0 4 20 hvcurveto
          -239 hlineto
          -10 0 -10 0 hvcurveto
          -690 243 vlineto
          8 0 3 21 hvcurveto
          endchar
        </CharString>
        <CharString name="Ecaron">
          -31 0 24 348 24 280 24 hstem
          71 24 vstem
          205 786 rmoveto
          11 96 112 8 6 -5 5 -7 5 hvcurveto
          0 -54 -60 -42 -51 vhcurveto
          0 -97 105 -8 -9 -8 -14 0 0 110 -116 13 vhcurveto
          -110 -762 rmoveto
          348 197 vlineto
          8 0 4 20 hvcurveto
          -205 280 219 hlineto
          6 0 4 20 hvcurveto
          -239 hlineto
          -10 0 -10 0 hvcurveto
          -690 243 vlineto
          8 0 3 21 hvcurveto
          endchar
        </CharString>
        <CharString name="Ecircumflex">
          -31 0 24 348 24 280 24 175 24 hstem
          71 24 vstem
          83 794 rmoveto
          0 5 -13 14 6 92 94 0 vhcurveto
          89 -95 rlineto
          12 10 16 0 hvcurveto
          -96 96 rlineto
          5 -5 -5 2 -4 hhcurveto
          -4 -3 -1 -1 -1 hvcurveto
          -98 -873 rmoveto
          348 197 vlineto
          8 0 4 20 hvcurveto
          -205 280 219 hlineto
          6 0 4 20 hvcurveto
          -239 hlineto
          -10 0 -10 0 hvcurveto
          -690 243 vlineto
          8 0 3 21 hvcurveto
          endchar
        </CharString>
        <CharString name="Ecy">
          -19 -10 25 332 24 316 23 hstem
          48 25 vstem
          269 347 rmoveto
          8 0 5 19 hvcurveto
          -204 hlineto
          292 7 84 24 59 hhcurveto
          59 34 -28 -11 9 hvcurveto
          3 3 4 7 7 vvcurveto
          12 -38 33 -71 -71 -104 -13 -341 -337 101 -29 73 60 57 40 22 6 -4 12 -3 6 vhcurveto
          -25 -16 -41 -36 -51 hhcurveto
          -78 -73 58 274 hvcurveto
          endchar
        </CharString>
        <CharString name="Edieresis">
          -31 0 24 348 24 280 24 hstem
          71 24 vstem
          146 814 rmoveto
          14 5 9 17 1 hvcurveto
          19 1 -6 11 -13 hhcurveto
          -12 -6 -9 -19 -1 hvcurveto
          -1 -17 5 -10 13 -1 rrcurveto
          100 hmoveto
          14 5 9 17 1 hvcurveto
          19 1 -6 11 -13 hhcurveto
          -12 -6 -9 -19 -1 hvcurveto
          -1 -17 5 -10 13 -1 rrcurveto
          -151 -790 rmoveto
          348 197 vlineto
          8 0 4 20 hvcurveto
          -205 280 219 hlineto
          6 0 4 20 hvcurveto
          -239 hlineto
          -10 0 -10 0 hvcurveto
          -690 243 vlineto
          8 0 3 21 hvcurveto
          endchar
        </CharString>
        <CharString name="Edotaccent">
          -31 0 24 348 24 280 24 hstem
          71 24 vstem
          196 814 rmoveto
          14 5 9 17 1 hvcurveto
          19 1 -6 11 -13 hhcurveto
          -12 -6 -9 -19 -1 hvcurveto
          -1 -17 5 -10 13 -1 rrcurveto
          -101 -790 rmoveto
          348 197 vlineto
          8 0 4 20 hvcurveto
          -205 280 219 hlineto
          6 0 4 20 hvcurveto
          -239 hlineto
          -10 0 -10 0 hvcurveto
          -690 243 vlineto
          8 0 3 21 hvcurveto
          endchar
        </CharString>
        <CharString name="Efcy">
          161 11 -21 85 22 536 22 90 -20 hstem
          48 24 191 24 190 24 vstem
          287 745 rmoveto
          -23 -1 0 -16 hvcurveto
          -74 vlineto
          -143 -72 -85 -202 -209 72 -84 143 hvcurveto
          -85 vlineto
          24 0 0 10 hvcurveto
          75 vlineto
          142 72 84 209 202 -72 85 -142 hvcurveto
          -24 -558 rmoveto
          -127 -64 79 192 187 64 78 127 hvcurveto
          24 hmoveto
          126 64 -78 -187 -192 -64 -79 -126 hvcurveto
          endchar
        </CharString>
        <CharString name="Egrave">
          -31 0 24 348 24 280 24 hstem
          71 24 vstem
          273 795 rmoveto
          -66 62 -73 55 0 vvcurveto
          -8 -5 -23 0 0 66 -57 76 -53 hvcurveto
          10 16 rlineto
          -178 -771 rmoveto
          348 197 vlineto
          8 0 4 20 hvcurveto
          -205 280 219 hlineto
          6 0 4 20 hvcurveto
          -239 hlineto
          -10 0 -10 0 hvcurveto
          -690 243 vlineto
          8 0 3 21 hvcurveto
          endchar
        </CharString>
        <CharString name="Elcy">
          48 -4 20 660 24 hstem
          335 24 vstem
          359 700 rmoveto
          -192 hlineto
          -22 -3 0 -9 hvcurveto
          -30 -464 -19 -206 -92 -5 rrcurveto
          -1 -3 0 -3 -3 vvcurveto
          -10 7 -1 7 98 26 242 438 28 vhcurveto
          169 -676 hlineto
          22 2 0 10 hvcurveto
          endchar
        </CharString>
        <CharString name="Emacron">
          -31 0 24 348 24 280 24 123 25 hstem
          71 24 vstem
          307 823 rmoveto
          7 3 4 8 1 hvcurveto
          4 0 4 -1 5 vhcurveto
          -230 hlineto
          -7 -3 -4 -8 -1 hvcurveto
          -4 0 -4 1 -5 vhcurveto
          18 -799 rmoveto
          348 197 vlineto
          8 0 4 20 hvcurveto
          -205 280 219 hlineto
          6 0 4 20 hvcurveto
          -239 hlineto
          -10 0 -10 0 hvcurveto
          -690 243 vlineto
          8 0 3 21 hvcurveto
          endchar
        </CharString>
        <CharString name="Emcy">
          140 21 -21 690 10 hstem
          77 24 326 24 vstem
          302 289 rmoveto
          0 -39 -126 0 vhcurveto
          -40 130 -125 407 rlineto
          -11 hlineto
          -6 -4 -3 -7 hvcurveto
          -690 vlineto
          24 0 0 10 hvcurveto
          342 vlineto
          251 vlineto
          88 -275 61 -199 rlineto
          15 hlineto
          4 5 3 7 2 hvcurveto
          63 189 rlineto
          0 76 242 12 38 vhcurveto
          -266 vlineto
          -342 vlineto
          24 0 0 10 hvcurveto
          690 -14 vlineto
          -8 -2 -10 0 hvcurveto
          endchar
        </CharString>
        <CharString name="Ency">
          89 21 -21 373 24 303 -20 hstem
          77 24 275 24 vstem
          376 397 rmoveto
          -275 303 hlineto
          -23 -1 0 -10 hvcurveto
          -690 vlineto
          23 1 0 10 hvcurveto
          363 275 -373 vlineto
          23 1 0 10 hvcurveto
          690 vlineto
          -24 0 -1 -9 hvcurveto
          endchar
        </CharString>
        <CharString name="Endescendercy">
          79 0 24 349 24 303 -20 hstem
          68 24 275 24 vstem
          442 24 rmoveto
          -51 676 hlineto
          -24 0 -1 -9 hvcurveto
          -293 -275 303 vlineto
          -23 -1 0 -10 hvcurveto
          -690 vlineto
          23 1 0 10 hvcurveto
          363 275 -373 49 vlineto
          -29 0 -67 10 -64 vhcurveto
          5 11 0 6 hvcurveto
          endchar
        </CharString>
        <CharString name="Eogonek">
          -31 -195 23 172 24 348 24 280 24 hstem
          71 24 114 24 vstem
          95 24 rmoveto
          348 197 vlineto
          8 0 4 20 hvcurveto
          -205 280 219 hlineto
          6 0 4 20 hvcurveto
          -239 hlineto
          -10 0 -10 0 hvcurveto
          -690 208 vlineto
          -37 -27 -33 -46 -46 vvcurveto
          -50 27 -26 42 21 21 5 12 6 -3 5 -3 5 vhcurveto
          -7 -12 -9 -3 -14 hhcurveto
          -31 -15 18 35 47 37 43 42 27 hvcurveto
          9 6 1 2 18 vvcurveto
          endchar
        </CharString>
        <CharString name="Ercy">
          -7 21 -21 310 24 342 24 hstem
          68 24 235 24 vstem
          78 700 rmoveto
          -6 -4 -3 -7 hvcurveto
          -690 vlineto
          24 0 0 10 hvcurveto
          300 87 vlineto
          111 61 73 135 92 -38 90 -126 hvcurveto
          -95 -366 rmoveto
          342 90 vlineto
          113 32 -74 -84 -110 -46 -74 -103 hvcurveto
          endchar
        </CharString>
        <CharString name="Ereversedcy">
          -19 -10 25 332 24 316 23 hstem
          296 25 vstem
          92 371 rmoveto
          -19 0 -5 8 vhcurveto
          196 hlineto
          -274 -73 -58 -78 -51 -41 36 25 -16 vhcurveto
          -3 -6 -4 -12 -6 vvcurveto
          -22 57 -40 60 73 101 29 337 341 -104 13 -71 -71 -38 -33 -12 -7 4 -7 3 -3 vhcurveto
          11 9 34 28 59 hhcurveto
          59 84 -24 -292 7 hvcurveto
          endchar
        </CharString>
        <CharString name="Escy">
          -19 -9 25 670 23 hstem
          48 25 vstem
          239 709 rmoveto
          -88 -103 -32 -366 -313 102 -7 63 69 57 44 23 6 -4 7 -3 5 hvcurveto
          -25 -16 -49 -35 -53 hhcurveto
          -64 -77 31 259 347 87 33 76 46 36 -32 -7 6 hvcurveto
          4 3 3 8 5 vvcurveto
          16 -37 30 -55 vhcurveto
          endchar
        </CharString>
        <CharString name="Eth">
          49 0 24 335 25 292 24 hstem
          70 24 271 24 vstem
          94 700 rmoveto
          -20 -4 -7 -9 hvcurveto
          -300 -40 vlineto
          -10 0 -3 -22 hvcurveto
          50 -359 117 hlineto
          101 101 47 341 218 -68 94 -126 hvcurveto
          -101 -676 rmoveto
          335 123 vlineto
          10 0 3 22 hvcurveto
          -133 292 96 hlineto
          123 52 -91 -197 -319 -88 -45 -91 hvcurveto
          endchar
        </CharString>
        <CharString name="F">
          -44 21 -21 373 24 279 24 hstem
          71 24 vstem
          81 700 rmoveto
          -10 0 -10 0 hvcurveto
          -690 14 vlineto
          10 0 10 0 hvcurveto
          363 197 vlineto
          8 0 4 20 hvcurveto
          -205 279 219 hlineto
          6 0 4 20 hvcurveto
          endchar
        </CharString>
        <CharString name="G">
          27 -10 24 346 24 302 24 hstem
          48 24 271 24 vstem
          367 384 rmoveto
          -139 hlineto
          -6 -4 -3 -7 hvcurveto
          -14 125 -293 vlineto
          -17 -7 -38 -36 -63 hhcurveto
          -86 -77 33 299 282 79 58 105 45 27 -13 -18 23 hvcurveto
          4 6 1 5 5 vvcurveto
          20 -47 19 -56 -119 -86 -66 -298 -305 84 -51 101 93 34 54 16 7 vhcurveto
          endchar
        </CharString>
        <CharString name="Gamma">
          -61 21 -21 676 24 hstem
          77 24 vstem
          77 hmoveto
          14 hlineto
          10 0 10 0 hvcurveto
          666 201 vlineto
          5 0 4 20 hvcurveto
          -220 hlineto
          -10 0 -10 0 hvcurveto
          endchar
        </CharString>
        <CharString name="Gbreve">
          27 -10 24 346 24 302 24 75 24 hstem
          48 24 271 24 vstem
          133 907 rmoveto
          -10 -1 -9 -2 -10 vvcurveto
          -18 36 -91 78 73 30 67 41 12 vhcurveto
          -2 12 -18 6 -5 -14 rrcurveto
          -38 -14 -19 -50 -56 hhcurveto
          -59 -25 62 36 -12 hvcurveto
          234 -523 rmoveto
          -139 hlineto
          -6 -4 -3 -7 hvcurveto
          -14 125 -293 vlineto
          -17 -7 -38 -36 -63 hhcurveto
          -86 -77 33 299 282 79 58 105 45 27 -13 -18 23 hvcurveto
          4 6 1 5 5 vvcurveto
          20 -47 19 -56 -119 -86 -66 -298 -305 84 -51 101 93 34 54 16 7 vhcurveto
          endchar
        </CharString>
        <CharString name="Gcommaaccent">
          27 -10 24 346 24 302 24 hstem
          48 24 271 24 vstem
          367 384 rmoveto
          -139 hlineto
          -6 -4 -3 -7 hvcurveto
          -14 125 -293 vlineto
          -17 -7 -38 -36 -63 hhcurveto
          -86 -77 33 299 282 79 58 105 45 27 -13 -18 23 hvcurveto
          4 6 1 5 5 vvcurveto
          20 -47 19 -56 -119 -86 -66 -298 -305 84 -51 101 93 34 54 16 7 vhcurveto
          -174 -150 rmoveto
          -13 7 -11 8 -5 vhcurveto
          1 -33 -10 -34 -22 -37 rrcurveto
          -5 1 7 -7 5 hhcurveto
          14 40 86 53 29 -10 5 -15 -16 -10 -11 -17 hvcurveto
          endchar
        </CharString>
        <CharString name="Gecy">
          -61 21 -21 676 24 hstem
          77 24 vstem
          77 hmoveto
          14 hlineto
          10 0 10 0 hvcurveto
          666 201 vlineto
          5 0 4 20 hvcurveto
          -220 hlineto
          -10 0 -10 0 hvcurveto
          endchar
        </CharString>
        <CharString name="Gheupturncy">
          -81 21 -21 676 24 hstem
          77 24 189 17 vstem
          87 700 rmoveto
          -10 0 -10 0 hvcurveto
          -690 14 vlineto
          10 0 10 0 hvcurveto
          666 201 vlineto
          5 0 4 20 hvcurveto
          101 vlineto
          6 -8 1 -9 vhcurveto
          -5 -35 -3 -46 -1 -27 rrcurveto
          endchar
        </CharString>
        <CharString name="Gjecy">
          -61 21 -21 676 24 hstem
          77 24 vstem
          164 779 rmoveto
          76 53 66 57 0 vvcurveto
          0 -5 23 -8 vhcurveto
          0 -73 -55 -66 -62 vhcurveto
          10 -16 rlineto
          -87 -779 rmoveto
          14 hlineto
          10 0 10 0 hvcurveto
          666 201 vlineto
          5 0 4 20 hvcurveto
          -220 hlineto
          -10 0 -10 0 hvcurveto
          endchar
        </CharString>
        <CharString name="H">
          71 21 -21 373 24 303 -20 hstem
          68 24 275 24 vstem
          367 397 rmoveto
          -275 303 hlineto
          -23 -1 0 -10 hvcurveto
          -690 vlineto
          23 1 0 10 hvcurveto
          363 275 -373 vlineto
          23 1 0 10 hvcurveto
          690 vlineto
          -24 0 -1 -9 hvcurveto
          endchar
        </CharString>
        <CharString name="Hacy">
          41 21 -21 700 -20 hstem
          12 405 vstem
          232 361 rmoveto
          165 339 rlineto
          -31 3 0 -5 -3 hvcurveto
          -60 -124 -38 -78 -40 -85 -12 -24 rlinecurve
          -10 23 -40 84 -39 80 -63 129 rcurveline
          -31 3 0 -5 3 hvcurveto
          161 -329 -188 -366 rlineto
          22 hlineto
          5 2 1 3 2 hvcurveto
          84 166 40 78 38 77 11 22 rlinecurve
          11 -22 39 -77 39 -79 84 -169 rcurveline
          22 hlineto
          4 4 3 6 -3 hvcurveto
          endchar
        </CharString>
        <CharString name="Hardsigncy">
          94 0 24 349 24 279 24 hstem
          163 24 251 24 vstem
          187 397 rmoveto
          303 -154 vlineto
          -5 -5 0 -12 hvcurveto
          -12 140 -676 111 vlineto
          124 64 88 133 120 -51 56 -120 hvcurveto
          -104 -24 rmoveto
          101 hlineto
          106 44 -48 -106 -115 -52 -80 -116 hvcurveto
          -28 -27 1 -28 hhcurveto
          endchar
        </CharString>
        <CharString name="I">
          -227 21 -21 700 -20 hstem
          68 25 vstem
          68 hmoveto
          23 2 0 10 hvcurveto
          690 vlineto
          -24 -1 0 -16 hvcurveto
          endchar
        </CharString>
        <CharString name="IJ">
          70 -10 24 686 -20 hstem
          68 25 273 24 vstem
          68 hmoveto
          23 2 0 10 hvcurveto
          690 vlineto
          -24 -1 0 -16 hvcurveto
          298 -500 rmoveto
          -82 -2 -88 -88 -39 -28 17 23 -19 vhcurveto
          -4 -4 -4 -8 -7 vvcurveto
          -20 41 -25 54 111 2 107 75 vhcurveto
          528 vlineto
          -24 0 0 -15 hvcurveto
          endchar
        </CharString>
        <CharString name="Iacute">
          -227 21 -21 700 -20 hstem
          68 25 vstem
          15 779 rmoveto
          76 53 66 57 0 vvcurveto
          0 -5 23 -8 vhcurveto
          0 -73 -55 -66 -62 vhcurveto
          10 -16 rlineto
          53 -779 rmoveto
          23 2 0 10 hvcurveto
          690 vlineto
          -24 -1 0 -16 hvcurveto
          endchar
        </CharString>
        <CharString name="Iacy">
          16 21 -21 311 24 341 24 hstem
          54 25 224 24 vstem
          207 700 rmoveto
          -107 -46 -84 -95 -112 65 -77 65 -14 hvcurveto
          -53 -21 -25 -30 -12 -42 -67 -225 rcurveline
          18 hlineto
          9 1 3 9 3 hvcurveto
          60 207 rlineto
          55 15 56 37 67 hhcurveto
          47 -301 hlineto
          -10 0 0 24 vhcurveto
          690 vlineto
          0 0 10 -10 vhcurveto
          -14 -24 rmoveto
          -341 -80 vlineto
          -79 -65 77 110 85 39 69 94 hvcurveto
          endchar
        </CharString>
        <CharString name="Icircumflex">
          -227 21 -21 700 -20 195 24 hstem
          68 25 vstem
          -33 794 rmoveto
          0 5 -13 14 6 92 94 0 vhcurveto
          89 -95 rlineto
          12 10 16 0 hvcurveto
          -96 96 rlineto
          5 -5 -5 2 -4 hhcurveto
          -4 -3 -1 -1 -1 hvcurveto
          -9 -897 rmoveto
          23 2 0 10 hvcurveto
          690 vlineto
          -24 -1 0 -16 hvcurveto
          endchar
        </CharString>
        <CharString name="Icy">
          -227 21 -21 700 -20 hstem
          68 25 vstem
          68 hmoveto
          23 2 0 10 hvcurveto
          690 vlineto
          -24 -1 0 -16 hvcurveto
          endchar
        </CharString>
        <CharString name="Idieresis">
          -227 21 -21 700 -20 134 56 hstem
          68 25 vstem
          32 870 rmoveto
          -12 -6 -9 -19 -1 hvcurveto
          -1 -17 5 -10 13 -1 rrcurveto
          14 5 9 17 1 hvcurveto
          19 1 -6 11 -13 hhcurveto
          100 hmoveto
          -12 -6 -9 -19 -1 hvcurveto
          -1 -17 5 -10 13 -1 rrcurveto
          14 5 9 17 1 hvcurveto
          19 1 -6 11 -13 hhcurveto
          -64 -870 rmoveto
          23 2 0 10 hvcurveto
          690 vlineto
          -24 -1 0 -16 hvcurveto
          endchar
        </CharString>
        <CharString name="Idotaccent">
          -227 21 -21 700 -20 134 56 hstem
          68 25 vstem
          63 842 rmoveto
          -1 -17 5 -10 13 -1 rrcurveto
          14 5 9 17 1 hvcurveto
          19 1 -6 11 -13 hhcurveto
          -12 -6 -9 -19 -1 hvcurveto
          5 -842 rmoveto
          23 2 0 10 hvcurveto
          690 vlineto
          -24 -1 0 -16 hvcurveto
          endchar
        </CharString>
        <CharString name="Iecy">
          -31 0 24 348 24 280 24 hstem
          71 24 vstem
          95 24 rmoveto
          348 197 vlineto
          8 0 4 20 hvcurveto
          -205 280 219 hlineto
          6 0 4 20 hvcurveto
          -239 hlineto
          -10 0 -10 0 hvcurveto
          -690 243 vlineto
          8 0 3 21 hvcurveto
          endchar
        </CharString>
        <CharString name="Iegravecy">
          -31 0 24 348 24 280 24 hstem
          71 24 vstem
          273 795 rmoveto
          -66 62 -73 55 0 vvcurveto
          -8 -5 -23 0 0 66 -57 76 -53 hvcurveto
          10 16 rlineto
          -178 -771 rmoveto
          348 197 vlineto
          8 0 4 20 hvcurveto
          -205 280 219 hlineto
          6 0 4 20 hvcurveto
          -239 hlineto
          -10 0 -10 0 hvcurveto
          -690 243 vlineto
          8 0 3 21 hvcurveto
          endchar
        </CharString>
        <CharString name="Igrave">
          -227 21 -21 700 -20 hstem
          68 25 vstem
          18 912 rmoveto
          -8 -5 -23 0 0 66 -57 76 -53 hvcurveto
          10 16 rlineto
          -66 62 -73 55 0 vvcurveto
          50 -912 rmoveto
          23 2 0 10 hvcurveto
          690 vlineto
          -24 -1 0 -16 hvcurveto
          endchar
        </CharString>
        <CharString name="Igravecy">
          100 21 -21 700 -20 hstem
          77 24 286 24 vstem
          181 912 rmoveto
          -8 -5 -23 0 0 66 -57 76 -53 hvcurveto
          10 16 rlineto
          -66 62 -73 55 0 vvcurveto
          49 -623 rmoveto
          74 168 57 128 35 91 rrcurveto
          -7 -119 -2 -96 -204 vvcurveto
          -257 vlineto
          24 0 0 10 hvcurveto
          690 vlineto
          -6 -13 2 -11 -8 hvcurveto
          -123 -274 -84 -193 -56 -120 -25 -72 rlinecurve
          4 72 1 53 88 vvcurveto
          455 vlineto
          -24 0 0 -10 hvcurveto
          -690 vlineto
          5 16 -3 12 6 hvcurveto
          endchar
        </CharString>
        <CharString name="Iicy">
          100 21 -21 700 -20 hstem
          77 24 286 24 vstem
          230 289 rmoveto
          7 17 8 16 7 16 63 144 50 112 31 82 rrcurveto
          -7 -119 -2 -96 -204 vvcurveto
          -257 vlineto
          24 0 0 10 hvcurveto
          690 vlineto
          -6 -13 2 -11 -8 hvcurveto
          -123 -274 -25 -59 -23 -51 -21 -46 rlinecurve
          -46 -105 -33 -74 -17 -50 rrcurveto
          4 72 1 53 88 vvcurveto
          455 vlineto
          -24 0 0 -10 hvcurveto
          -690 vlineto
          5 16 -3 12 6 hvcurveto
          endchar
        </CharString>
        <CharString name="Imacron">
          -227 21 -21 700 -20 143 25 hstem
          68 25 vstem
          191 823 rmoveto
          7 3 4 8 1 hvcurveto
          4 0 4 -1 5 vhcurveto
          -230 hlineto
          -7 -3 -4 -8 -1 hvcurveto
          -4 0 -4 1 -5 vhcurveto
          107 -823 rmoveto
          23 2 0 10 hvcurveto
          690 vlineto
          -24 -1 0 -16 hvcurveto
          endchar
        </CharString>
        <CharString name="Iocy">
          -31 0 24 348 24 280 24 hstem
          71 24 vstem
          146 814 rmoveto
          14 5 9 17 1 hvcurveto
          19 1 -6 11 -13 hhcurveto
          -12 -6 -9 -19 -1 hvcurveto
          -1 -17 5 -10 13 -1 rrcurveto
          100 hmoveto
          14 5 9 17 1 hvcurveto
          19 1 -6 11 -13 hhcurveto
          -12 -6 -9 -19 -1 hvcurveto
          -1 -17 5 -10 13 -1 rrcurveto
          -151 -790 rmoveto
          348 197 vlineto
          8 0 4 20 hvcurveto
          -205 280 219 hlineto
          6 0 4 20 hvcurveto
          -239 hlineto
          -10 0 -10 0 hvcurveto
          -690 243 vlineto
          8 0 3 21 hvcurveto
          endchar
        </CharString>
        <CharString name="Iogonek">
          -228 -195 24 871 -20 hstem
          -7 24 51 24 vstem
          92 700 rmoveto
          -23 -1 0 -16 hvcurveto
          -672 vlineto
          -39 -33 -36 -43 -57 vvcurveto
          -46 24 -28 47 24 17 7 11 -1 vhcurveto
          4 -3 8 -3 3 vhcurveto
          -6 -12 -8 -3 -14 hhcurveto
          -33 -14 18 31 48 32 44 30 24 hvcurveto
          7 5 6 3 8 vvcurveto
          endchar
        </CharString>
        <CharString name="Iucy">
          236 -10 24 325 24 323 24 hstem
          77 24 115 23 313 24 vstem
          101 363 rmoveto
          337 vlineto
          -22 -2 0 -10 hvcurveto
          -690 vlineto
          22 2 0 10 hvcurveto
          329 115 vlineto
          -263 2 52 -86 121 hhcurveto
          129 56 101 264 260 -49 95 -128 -123 -58 -99 -248 -2 hvcurveto
          23 -20 rmoveto
          253 54 90 107 104 48 -81 -247 -254 -50 -90 -113 -104 -46 87 242 vhcurveto
          endchar
        </CharString>
        <CharString name="J">
          -91 -10 24 686 -20 hstem
          205 24 vstem
          205 184 rmoveto
          -82 -2 -88 -88 -39 -28 17 23 -19 vhcurveto
          -4 -4 -4 -8 -7 vvcurveto
          -20 41 -25 54 111 2 107 75 vhcurveto
          528 vlineto
          -24 0 0 -15 hvcurveto
          endchar
        </CharString>
        <CharString name="Jecy">
          -91 -10 24 686 -20 hstem
          205 24 vstem
          205 184 rmoveto
          -82 -2 -88 -88 -39 -28 17 23 -19 vhcurveto
          -4 -4 -4 -8 -7 vvcurveto
          -20 41 -25 54 111 2 107 75 vhcurveto
          528 vlineto
          -24 0 0 -15 hvcurveto
          endchar
        </CharString>
        <CharString name="K">
          4 21 -21 700 -20 hstem
          68 24 vstem
          363 685 rmoveto
          3 4 2 3 2 vvcurveto
          4 -4 2 -7 -5 -5 0 -1 -5 vhcurveto
          -250 -300 rlineto
          301 vlineto
          -24 0 0 -10 hvcurveto
          -690 vlineto
          24 0 0 10 hvcurveto
          366 vlineto
          21 -9 20 -10 18 -18 55 -53 62 -67 82 -219 rrcurveto
          -1 4 5 0 4 hhcurveto
          5 4 2 5 2 -1 2 -1 3 hvcurveto
          -74 217 -91 116 -90 46 rrcurveto
          endchar
        </CharString>
        <CharString name="Kacy">
          32 21 -21 353 24 323 -20 hstem
          77 24 254 24 vstem
          267 467 rmoveto
          -58 -20 -33 -32 -38 hhcurveto
          -75 323 hlineto
          -24 0 0 -10 hvcurveto
          -690 vlineto
          24 0 0 10 hvcurveto
          343 70 vlineto
          49 47 -54 -81 24 hvcurveto
          64 -218 rlineto
          -1 4 5 0 4 hhcurveto
          6 5 1 6 2 0 2 -1 3 hvcurveto
          -64 216 -19 65 -34 48 -44 23 rlinecurve
          29 15 26 34 17 47 79 224 rcurveline
          2 5 1 3 3 vvcurveto
          3 -2 1 -7 -5 -5 0 -1 -5 vhcurveto
          endchar
        </CharString>
        <CharString name="Kadescendercy">
          29 0 24 333 24 319 -20 hstem
          77 24 289 26 vstem
          267 471 rmoveto
          -58 -21 -32 -32 -38 hhcurveto
          -75 319 hlineto
          -24 0 0 -10 hvcurveto
          -690 vlineto
          24 0 0 10 hvcurveto
          347 70 vlineto
          49 48 -54 -81 23 hvcurveto
          64 -222 rlineto
          35 hlineto
          -30 0 -66 10 -64 vhcurveto
          5 11 0 6 hvcurveto
          178 -41 vlineto
          -61 209 -19 65 -34 48 -44 23 rlinecurve
          29 15 26 34 17 47 79 220 rcurveline
          2 5 1 3 3 vvcurveto
          3 -2 1 -7 -5 -5 0 -1 -5 vhcurveto
          endchar
        </CharString>
        <CharString name="Kcommaaccent">
          4 21 -21 700 -20 hstem
          68 24 vstem
          363 685 rmoveto
          9 8 -2 6 -12 hhcurveto
          -5 -5 0 -1 -5 hvcurveto
          -250 -300 rlineto
          301 vlineto
          -24 0 0 -10 hvcurveto
          -690 vlineto
          24 0 0 10 hvcurveto
          366 vlineto
          21 -9 20 -10 18 -18 55 -53 62 -67 82 -219 rrcurveto
          -1 4 5 0 4 hhcurveto
          7 4 4 10 -4 hvcurveto
          -74 217 -91 116 -90 46 rrcurveto
          82 -454 rmoveto
          -16 -10 -11 -17 -13 7 -11 8 -5 hvcurveto
          1 -33 -10 -34 -22 -37 rrcurveto
          -5 1 7 -7 5 hhcurveto
          14 40 86 53 29 -10 5 -15 hvcurveto
          endchar
        </CharString>
        <CharString name="Kjecy">
          32 21 -21 353 24 323 -20 hstem
          77 24 246 24 vstem
          164 779 rmoveto
          76 53 66 57 0 vvcurveto
          0 -5 23 -8 vhcurveto
          0 -73 -55 -66 -62 vhcurveto
          10 -16 rlineto
          103 -312 rmoveto
          -58 -20 -33 -32 -38 hhcurveto
          -75 323 hlineto
          -24 0 0 -10 hvcurveto
          -690 vlineto
          24 0 0 10 hvcurveto
          343 70 vlineto
          49 47 -54 -81 24 hvcurveto
          64 -218 rlineto
          -1 4 5 0 4 hhcurveto
          8 6 2 12 -4 hvcurveto
          -64 216 -19 65 -34 48 -44 23 rlinecurve
          29 15 26 34 17 47 79 224 rcurveline
          11 4 2 4 -12 hhcurveto
          -5 -5 0 -1 -5 hvcurveto
          endchar
        </CharString>
        <CharString name="L">
          -45 0 23 677 -20 hstem
          68 26 vstem
          94 23 rmoveto
          677 vlineto
          -26 0 0 -15 hvcurveto
          -685 245 vlineto
          6 4 1 9 hvcurveto
          13 vlineto
          endchar
        </CharString>
        <CharString name="Lacute">
          -45 0 23 677 -20 hstem
          68 26 vstem
          106 779 rmoveto
          76 53 66 57 0 vvcurveto
          0 -5 23 -8 vhcurveto
          0 -73 -55 -66 -62 vhcurveto
          10 -16 rlineto
          -12 -756 rmoveto
          677 vlineto
          -26 0 0 -15 hvcurveto
          -685 245 vlineto
          6 4 1 9 hvcurveto
          13 vlineto
          endchar
        </CharString>
        <CharString name="Lcaron">
          -35 0 23 677 -20 hstem
          68 26 163 36 vstem
          94 23 rmoveto
          677 vlineto
          -26 0 0 -15 hvcurveto
          -685 245 vlineto
          6 4 1 9 hvcurveto
          13 vlineto
          -81 612 rmoveto
          -13 7 -11 8 -5 vhcurveto
          1 -33 -6 -64 -16 -37 rrcurveto
          -5 1 7 -7 5 hhcurveto
          14 30 116 53 29 -10 5 -15 -16 -10 -11 -17 hvcurveto
          endchar
        </CharString>
        <CharString name="Lcommaaccent">
          -45 0 23 677 -20 hstem
          68 26 vstem
          94 23 rmoveto
          677 vlineto
          -26 0 0 -15 hvcurveto
          -685 245 vlineto
          6 4 1 9 hvcurveto
          13 vlineto
          -176 -113 rmoveto
          -13 7 -11 8 -5 vhcurveto
          1 -33 -10 -34 -22 -37 rrcurveto
          -5 1 7 -7 5 hhcurveto
          14 40 86 53 29 -10 5 -15 -16 -10 -11 -17 hvcurveto
          endchar
        </CharString>
        <CharString name="Ldot">
          -35 0 23 269 61 347 -20 hstem
          68 26 vstem
          94 23 rmoveto
          677 vlineto
          -26 0 0 -15 hvcurveto
          -685 245 vlineto
          6 4 1 9 hvcurveto
          13 vlineto
          -121 300 rmoveto
          -18 10 -13 17 17 12 13 18 16 -12 14 -17 -17 -10 -14 -16 vhcurveto
          endchar
        </CharString>
        <CharString name="Ljecy">
          281 0 24 349 24 279 24 hstem
          350 24 251 24 vstem
          374 397 rmoveto
          303 -207 vlineto
          -22 -3 0 -9 hvcurveto
          -30 -464 -19 -206 -92 -5 rrcurveto
          -1 -3 0 -3 -3 vvcurveto
          -10 7 -1 7 98 26 242 438 28 vhcurveto
          184 -676 111 hlineto
          124 64 88 133 120 -51 56 -120 hvcurveto
          -104 -24 rmoveto
          101 hlineto
          106 44 -48 -106 -115 -52 -80 -116 hvcurveto
          -83 hlineto
          endchar
        </CharString>
        <CharString name="Lslash">
          -45 0 23 677 -20 hstem
          68 26 vstem
          94 23 rmoveto
          336 vlineto
          106 43 rlineto
          4 2 2 1 0 4 0 3 -2 6 -4 11 50 flex
          -106 -43 rlineto
          314 vlineto
          -26 0 0 -15 hvcurveto
          -309 vlineto
          -51 -21 rlineto
          -4 -2 -2 -2 0 -3 0 -4 2 -6 4 -10 50 flex
          51 21 rlineto
          -349 245 vlineto
          10 0 10 0 hvcurveto
          13 vlineto
          endchar
        </CharString>
        <CharString name="M">
          122 21 -21 690 10 hstem
          68 24 326 24 vstem
          293 289 rmoveto
          0 -39 -126 0 vhcurveto
          -40 130 -125 407 rlineto
          -11 hlineto
          -6 -4 -3 -7 hvcurveto
          -690 vlineto
          24 0 0 10 hvcurveto
          342 vlineto
          251 vlineto
          88 -275 61 -199 rlineto
          15 hlineto
          4 5 3 7 2 hvcurveto
          63 189 rlineto
          0 76 242 12 38 vhcurveto
          -266 vlineto
          -342 vlineto
          24 0 0 10 hvcurveto
          690 -14 vlineto
          -8 -2 -10 0 hvcurveto
          endchar
        </CharString>
        <CharString name="N">
          82 21 -21 700 -20 hstem
          68 24 286 24 vstem
          378 450 rmoveto
          -387 vlineto
          -160 354 -128 283 rlineto
          -12 hlineto
          -7 -3 -3 -7 hvcurveto
          -690 vlineto
          24 0 0 10 hvcurveto
          247 vlineto
          380 vlineto
          157 -349 131 -288 rlineto
          12 hlineto
          6 4 3 7 hvcurveto
          690 vlineto
          -24 0 0 -10 hvcurveto
          endchar
        </CharString>
        <CharString name="Nacute">
          82 21 -21 700 -20 hstem
          68 24 286 24 vstem
          311 889 rmoveto
          0 -5 23 -8 vhcurveto
          0 -73 -55 -66 -62 vhcurveto
          10 -16 rlineto
          76 53 66 57 0 vvcurveto
          67 -439 rmoveto
          -387 vlineto
          -160 354 -128 283 rlineto
          -12 hlineto
          -7 -3 -3 -7 hvcurveto
          -690 vlineto
          24 0 0 10 hvcurveto
          247 vlineto
          380 vlineto
          157 -349 131 -288 rlineto
          12 hlineto
          6 4 3 7 hvcurveto
          690 vlineto
          -24 0 0 -10 hvcurveto
          endchar
        </CharString>
        <CharString name="Ncaron">
          82 21 -21 700 -20 222 14 hstem
          68 24 286 24 vstem
          243 786 rmoveto
          11 96 112 8 6 -5 5 -7 5 hvcurveto
          0 -54 -60 -42 -51 vhcurveto
          0 -97 105 -8 -9 -8 -14 0 0 110 -116 13 vhcurveto
          135 -336 rmoveto
          -387 vlineto
          -160 354 -128 283 rlineto
          -12 hlineto
          -7 -3 -3 -7 hvcurveto
          -690 vlineto
          24 0 0 10 hvcurveto
          247 vlineto
          380 vlineto
          157 -349 131 -288 rlineto
          12 hlineto
          6 4 3 7 hvcurveto
          690 vlineto
          -24 0 0 -10 hvcurveto
          endchar
        </CharString>
        <CharString name="Ncommaaccent">
          82 21 -21 700 -20 hstem
          68 24 286 24 vstem
          378 450 rmoveto
          -387 vlineto
          -160 354 -128 283 rlineto
          -12 hlineto
          -7 -3 -3 -7 hvcurveto
          -690 vlineto
          24 0 0 10 hvcurveto
          247 vlineto
          380 vlineto
          157 -349 131 -288 rlineto
          12 hlineto
          6 4 3 7 hvcurveto
          690 vlineto
          -24 0 0 -10 hvcurveto
          -143 -752 rmoveto
          -16 -10 -11 -17 -13 7 -11 8 -5 hvcurveto
          1 -33 -10 -34 -22 -37 rrcurveto
          -5 1 7 -7 5 hhcurveto
          14 40 86 53 29 -10 5 -15 hvcurveto
          endchar
        </CharString>
        <CharString name="Njecy">
          307 0 24 349 24 303 -20 hstem
          77 24 275 24 251 24 vstem
          400 397 rmoveto
          303 vlineto
          -22 -2 0 -10 hvcurveto
          -293 -275 303 vlineto
          -23 -1 0 -10 hvcurveto
          -690 vlineto
          23 1 0 10 hvcurveto
          363 275 -373 111 vlineto
          124 64 88 133 120 -51 56 -120 hvcurveto
          -104 -24 rmoveto
          101 hlineto
          106 44 -48 -106 -115 -52 -80 -116 hvcurveto
          -28 -27 1 -28 hhcurveto
          endchar
        </CharString>
        <CharString name="Ntilde">
          82 21 -21 700 -20 114 25 34 21 hstem
          68 24 286 24 vstem
          113 800 rmoveto
          9 17 53 42 34 7 -59 61 hhcurveto
          56 20 34 28 14 hvcurveto
          0 -6 15 -9 vhcurveto
          -9 -10 -52 -56 -46 -2 55 -48 hhcurveto
          -35 -24 -9 -51 -31 hvcurveto
          0 9 -14 7 vhcurveto
          265 -350 rmoveto
          -387 vlineto
          -160 354 -128 283 rlineto
          -12 hlineto
          -7 -3 -3 -7 hvcurveto
          -690 vlineto
          24 0 0 10 hvcurveto
          247 vlineto
          380 vlineto
          157 -349 131 -288 rlineto
          12 hlineto
          6 4 3 7 hvcurveto
          690 vlineto
          -24 0 0 -10 hvcurveto
          endchar
        </CharString>
        <CharString name="O">
          78 -10 24 672 24 hstem
          48 24 322 24 vstem
          48 355 rmoveto
          -275 55 -90 127 132 56 101 264 260 -48 95 -129 -130 -63 -101 -254 vhcurveto
          24 -12 rmoveto
          253 56 90 112 107 47 -81 -247 -254 -50 -90 -115 -109 -48 87 242 vhcurveto
          endchar
        </CharString>
        <CharString name="OE">
          282 0 24 348 24 280 24 hstem
          48 24 312 24 vstem
          408 24 rmoveto
          348 197 vlineto
          8 0 4 20 hvcurveto
          -205 280 219 hlineto
          6 0 4 20 hvcurveto
          -239 hlineto
          -10 0 -10 0 hvcurveto
          -92 vlineto
          79 -24 -45 33 -76 hhcurveto
          -130 -61 -101 -254 -275 55 -90 127 80 48 37 88 26 hvcurveto
          -115 243 vlineto
          8 0 3 21 hvcurveto
          -406 -10 rmoveto
          -109 -48 87 242 253 56 90 112 107 37 -81 -247 -254 -40 -90 -115 hvcurveto
          endchar
        </CharString>
        <CharString name="Oacute">
          78 -10 24 672 24 hstem
          48 24 322 24 vstem
          167 779 rmoveto
          76 53 66 57 0 vvcurveto
          0 -5 23 -8 vhcurveto
          0 -73 -55 -66 -62 vhcurveto
          10 -16 rlineto
          -119 -424 rmoveto
          -275 55 -90 127 132 56 101 264 260 -48 95 -129 -130 -63 -101 -254 vhcurveto
          24 -12 rmoveto
          253 56 90 112 107 47 -81 -247 -254 -50 -90 -115 -109 -48 87 242 vhcurveto
          endchar
        </CharString>
        <CharString name="Ocircumflex">
          78 -10 24 672 24 165 24 hstem
          48 24 322 24 vstem
          119 794 rmoveto
          0 5 -13 14 6 92 94 0 vhcurveto
          89 -95 rlineto
          12 10 16 0 hvcurveto
          -96 96 rlineto
          5 -5 -5 2 -4 hhcurveto
          -4 -3 -1 -1 -1 hvcurveto
          -181 -542 rmoveto
          -275 55 -90 127 132 56 101 264 260 -48 95 -129 -130 -63 -101 -254 vhcurveto
          24 -12 rmoveto
          253 56 90 112 107 47 -81 -247 -254 -50 -90 -115 -109 -48 87 242 vhcurveto
          endchar
        </CharString>
        <CharString name="Ocy">
          78 -10 24 672 24 hstem
          48 24 322 24 vstem
          48 355 rmoveto
          -275 55 -90 127 132 56 101 264 260 -48 95 -129 -130 -63 -101 -254 vhcurveto
          24 -12 rmoveto
          253 56 90 112 107 47 -81 -247 -254 -50 -90 -115 -109 -48 87 242 vhcurveto
          endchar
        </CharString>
        <CharString name="Odieresis">
          78 -10 24 672 24 hstem
          48 24 322 24 vstem
          48 355 rmoveto
          -275 55 -90 127 132 56 101 264 260 -48 95 -129 -130 -63 -101 -254 vhcurveto
          24 -12 rmoveto
          253 56 90 112 107 47 -81 -247 -254 -50 -90 -115 -109 -48 87 242 vhcurveto
          112 527 rmoveto
          -12 -6 -9 -19 -1 hvcurveto
          -1 -17 5 -10 13 -1 rrcurveto
          14 5 9 17 1 hvcurveto
          19 1 -6 11 -13 hhcurveto
          100 hmoveto
          -12 -6 -9 -19 -1 hvcurveto
          -1 -17 5 -10 13 -1 rrcurveto
          14 5 9 17 1 hvcurveto
          19 1 -6 11 -13 hhcurveto
          endchar
        </CharString>
        <CharString name="Ograve">
          78 -10 24 672 24 hstem
          48 24 322 24 vstem
          170 912 rmoveto
          -8 -5 -23 0 0 66 -57 76 -53 hvcurveto
          10 16 rlineto
          -66 62 -73 55 0 vvcurveto
          -122 -557 rmoveto
          -275 55 -90 127 132 56 101 264 260 -48 95 -129 -130 -63 -101 -254 vhcurveto
          24 -12 rmoveto
          253 56 90 112 107 47 -81 -247 -254 -50 -90 -115 -109 -48 87 242 vhcurveto
          endchar
        </CharString>
        <CharString name="Ohm">
          102 0 24 662 24 hstem
          60 24 322 24 vstem
          419 hmoveto
          7 5 4 9 3 -1 5 -1 3 hvcurveto
          -96 hlineto
          37 46 60 118 185 vvcurveto
          244 -48 93 -129 -129 -64 -99 -244 -175 53 -114 38 -54 vhcurveto
          -81 hlineto
          -7 -5 -5 -9 -3 1 -3 1 -4 hvcurveto
          143 hlineto
          -59 47 -60 157 149 vvcurveto
          245 56 88 112 107 47 -79 -247 -156 -68 -151 -58 -53 vhcurveto
          endchar
        </CharString>
        <CharString name="Ohungarumlaut">
          78 -10 24 672 24 hstem
          48 24 322 24 vstem
          48 355 rmoveto
          -275 55 -90 127 132 56 101 264 260 -48 95 -129 -130 -63 -101 -254 vhcurveto
          24 -12 rmoveto
          253 56 90 112 107 47 -81 -247 -254 -50 -90 -115 -109 -48 87 242 vhcurveto
          176 577 rmoveto
          0 -54 -63 -45 -67 vhcurveto
          13 -13 rlineto
          57 62 46 62 0 vvcurveto
          0 -9 21 -8 -2 vhcurveto
          100 hmoveto
          0 -54 -63 -45 -67 vhcurveto
          13 -13 rlineto
          57 62 46 62 0 vvcurveto
          0 -9 21 -8 -2 vhcurveto
          endchar
        </CharString>
        <CharString name="Omacron">
          78 -10 24 672 24 113 25 hstem
          48 24 322 24 vstem
          343 823 rmoveto
          7 3 4 8 1 hvcurveto
          4 0 4 -1 5 vhcurveto
          -230 hlineto
          -7 -3 -4 -8 -1 hvcurveto
          -4 0 -4 1 -5 vhcurveto
          -65 -468 rmoveto
          -275 55 -90 127 132 56 101 264 260 -48 95 -129 -130 -63 -101 -254 vhcurveto
          24 -12 rmoveto
          253 56 90 112 107 47 -81 -247 -254 -50 -90 -115 -109 -48 87 242 vhcurveto
          endchar
        </CharString>
        <CharString name="Omega">
          102 0 24 662 24 hstem
          60 24 322 24 vstem
          419 hmoveto
          7 5 4 9 3 -1 5 -1 3 hvcurveto
          -96 hlineto
          37 46 60 118 185 vvcurveto
          244 -48 93 -129 -129 -64 -99 -244 -175 53 -114 38 -54 vhcurveto
          -81 hlineto
          -7 -5 -5 -9 -3 1 -3 1 -4 hvcurveto
          143 hlineto
          -59 47 -60 157 149 vvcurveto
          245 56 88 112 107 47 -79 -247 -156 -68 -151 -58 -53 vhcurveto
          endchar
        </CharString>
        <CharString name="Oslash">
          78 -10 24 672 24 hstem
          48 24 322 24 vstem
          390 709 rmoveto
          -2 10 -17 0 0 vvcurveto
          -20 -51 rlineto
          29 -28 -37 13 -47 hhcurveto
          -130 -61 -101 -254 -149 16 -95 35 -55 hvcurveto
          -26 -63 rlineto
          -9 2 9 -1 5 hhcurveto
          3 hlineto
          22 53 rlineto
          -33 29 38 -13 49 hhcurveto
          132 56 101 264 146 -16 93 -36 55 hvcurveto
          -253 -567 rmoveto
          -28 51 -13 84 126 vvcurveto
          253 56 90 112 42 32 -12 -30 24 vhcurveto
          -109 -630 rmoveto
          -43 -34 14 32 -25 hvcurveto
          226 563 rlineto
          28 -50 13 -85 -130 vvcurveto
          -254 -50 -90 -115 vhcurveto
          endchar
        </CharString>
        <CharString name="Otilde">
          78 -10 24 672 24 84 25 34 21 hstem
          48 24 322 24 vstem
          95 814 rmoveto
          0 9 -14 7 vhcurveto
          9 17 53 42 34 7 -59 61 hhcurveto
          56 20 34 28 14 hvcurveto
          0 -6 15 -9 vhcurveto
          -9 -10 -52 -56 -46 -2 55 -48 hhcurveto
          -35 -24 -9 -51 -31 hvcurveto
          -47 -459 rmoveto
          -275 55 -90 127 132 56 101 264 260 -48 95 -129 -130 -63 -101 -254 vhcurveto
          24 -12 rmoveto
          253 56 90 112 107 47 -81 -247 -254 -50 -90 -115 -109 -48 87 242 vhcurveto
          endchar
        </CharString>
        <CharString name="P">
          -7 21 -21 310 24 342 24 hstem
          68 24 235 24 vstem
          78 700 rmoveto
          -6 -4 -3 -7 hvcurveto
          -690 vlineto
          24 0 0 10 hvcurveto
          300 87 vlineto
          111 61 73 135 92 -38 90 -126 hvcurveto
          -95 -366 rmoveto
          342 90 vlineto
          113 32 -74 -84 -110 -46 -74 -103 hvcurveto
          endchar
        </CharString>
        <CharString name="Pecy">
          77 21 -21 676 24 hstem
          77 24 263 24 vstem
          101 676 rmoveto
          263 -676 hlineto
          23 1 0 10 hvcurveto
          690 -287 vlineto
          -23 -1 0 -10 hvcurveto
          -690 vlineto
          23 1 0 10 hvcurveto
          endchar
        </CharString>
        <CharString name="Pi">
          77 21 -21 676 24 hstem
          77 24 263 24 vstem
          101 676 rmoveto
          263 -676 hlineto
          23 1 0 10 hvcurveto
          690 -287 vlineto
          -23 -1 0 -10 hvcurveto
          -690 vlineto
          23 1 0 10 hvcurveto
          endchar
        </CharString>
        <CharString name="Q">
          78 -129 22 98 23 672 24 hstem
          48 24 322 24 vstem
          322 -107 rmoveto
          -36 -19 20 78 -15 hvcurveto
          116 11 50 104 249 vvcurveto
          260 -48 95 -129 -130 -63 -101 -254 -273 54 -91 125 -1 vhcurveto
          -87 16 27 -32 49 hhcurveto
          40 36 12 12 5 -2 6 -4 4 hvcurveto
          -10 -15 -20 -7 -32 hhcurveto
          -250 450 rmoveto
          253 56 90 112 107 47 -81 -247 -254 -50 -90 -115 -109 -48 87 242 vhcurveto
          endchar
        </CharString>
        <CharString name="R">
          -3 21 -21 310 24 342 24 hstem
          68 24 235 24 vstem
          78 700 rmoveto
          -10 0 -10 0 hvcurveto
          -690 vlineto
          24 0 0 10 hvcurveto
          300 87 vlineto
          8 8 0 1 7 hvcurveto
          15 -17 71 -94 29 -200 rrcurveto
          13 hlineto
          8 1 2 1 6 vvcurveto
          4 vlineto
          -20 165 -69 108 -22 31 rrcurveto
          79 19 43 70 113 vvcurveto
          92 -38 90 -126 vhcurveto
          -95 -366 rmoveto
          342 90 vlineto
          113 32 -74 -84 -110 -46 -74 -103 hvcurveto
          endchar
        </CharString>
        <CharString name="Racute">
          -3 21 -21 310 24 342 24 hstem
          68 24 235 24 vstem
          249 889 rmoveto
          0 -5 23 -8 vhcurveto
          0 -73 -55 -66 -62 vhcurveto
          10 -16 rlineto
          76 53 66 57 0 vvcurveto
          -171 -189 rmoveto
          -10 0 -10 0 hvcurveto
          -690 vlineto
          24 0 0 10 hvcurveto
          300 87 vlineto
          8 8 0 1 7 hvcurveto
          15 -17 71 -94 29 -200 rrcurveto
          13 hlineto
          9 1 2 2 -1 9 -20 165 -69 108 -22 31 rrcurveto
          79 19 43 70 113 vvcurveto
          92 -38 90 -126 vhcurveto
          -95 -366 rmoveto
          342 90 vlineto
          113 32 -74 -84 -110 -46 -74 -103 hvcurveto
          endchar
        </CharString>
        <CharString name="Rcaron">
          -3 21 -21 310 24 342 24 202 14 hstem
          68 24 235 24 vstem
          181 786 rmoveto
          11 96 112 8 6 -5 5 -7 5 hvcurveto
          0 -54 -60 -42 -51 vhcurveto
          0 -97 105 -8 -9 -8 -14 0 0 110 -116 13 vhcurveto
          -103 -86 rmoveto
          -10 0 -10 0 hvcurveto
          -690 vlineto
          24 0 0 10 hvcurveto
          300 87 vlineto
          8 8 0 1 7 hvcurveto
          15 -17 71 -94 29 -200 rrcurveto
          13 hlineto
          9 1 2 2 -1 9 -20 165 -69 108 -22 31 rrcurveto
          79 19 43 70 113 vvcurveto
          92 -38 90 -126 vhcurveto
          -95 -366 rmoveto
          342 90 vlineto
          113 32 -74 -84 -110 -46 -74 -103 hvcurveto
          endchar
        </CharString>
        <CharString name="Rcommaaccent">
          -3 21 -21 310 24 342 24 hstem
          68 24 235 24 vstem
          78 700 rmoveto
          -10 0 -10 0 hvcurveto
          -690 vlineto
          24 0 0 10 hvcurveto
          300 87 vlineto
          8 8 0 1 7 hvcurveto
          15 -17 71 -94 29 -200 rrcurveto
          13 hlineto
          9 1 2 2 -1 9 -20 165 -69 108 -22 31 rrcurveto
          79 19 43 70 113 vvcurveto
          92 -38 90 -126 vhcurveto
          -95 -366 rmoveto
          342 90 vlineto
          113 32 -74 -84 -110 -46 -74 -103 hvcurveto
          15 -396 rmoveto
          -16 -10 -11 -17 -13 7 -11 8 -5 hvcurveto
          1 -33 -10 -34 -22 -37 rrcurveto
          -5 1 7 -7 5 hhcurveto
          14 40 86 53 29 -10 5 -15 hvcurveto
          endchar
        </CharString>
        <CharString name="S">
          -5 -10 24 673 23 hstem
          46 24 251 24 vstem
          238 337 rmoveto
          62 -62 21 -46 -68 vvcurveto
          -86 -43 -61 -102 -69 -32 18 20 -21 vhcurveto
          -8 -3 -4 -6 -7 vvcurveto
          -14 39 -32 93 117 54 71 105 71 -19 47 -60 60 vhcurveto
          -131 123 rlineto
          -36 36 -29 35 47 vvcurveto
          60 53 42 79 61 39 -17 -15 18 vhcurveto
          5 4 4 7 6 vvcurveto
          15 -38 23 -83 -101 -61 -53 -73 -53 30 -41 45 -45 vhcurveto
          endchar
        </CharString>
        <CharString name="Sacute">
          -5 -10 24 673 23 hstem
          46 24 251 24 vstem
          126 779 rmoveto
          76 53 66 57 0 vvcurveto
          0 -5 23 -8 vhcurveto
          0 -73 -55 -66 -62 vhcurveto
          10 -16 rlineto
          112 -442 rmoveto
          62 -62 21 -46 -68 vvcurveto
          -86 -43 -61 -102 -69 -32 18 20 -21 vhcurveto
          -8 -3 -4 -6 -7 vvcurveto
          -14 39 -32 93 117 54 71 105 71 -19 47 -60 60 vhcurveto
          -131 123 rlineto
          -36 36 -29 35 47 vvcurveto
          60 53 42 79 61 39 -17 -15 18 vhcurveto
          5 4 4 7 6 vvcurveto
          15 -38 23 -83 -101 -61 -53 -73 -53 30 -41 45 -45 vhcurveto
          endchar
        </CharString>
        <CharString name="Scaron">
          -5 -10 24 673 23 hstem
          46 24 251 24 vstem
          200 786 rmoveto
          11 96 112 8 6 -5 5 -7 5 hvcurveto
          0 -54 -60 -42 -51 vhcurveto
          0 -97 105 -8 -9 -8 -14 0 0 110 -116 13 vhcurveto
          38 -449 rmoveto
          62 -62 21 -46 -68 vvcurveto
          -86 -43 -61 -102 -69 -32 18 20 -21 vhcurveto
          -8 -3 -4 -6 -7 vvcurveto
          -14 39 -32 93 117 54 71 105 71 -19 47 -60 60 vhcurveto
          -131 123 rlineto
          -36 36 -29 35 47 vvcurveto
          60 53 42 79 61 39 -17 -15 18 vhcurveto
          5 4 4 7 6 vvcurveto
          15 -38 23 -83 -101 -61 -53 -73 -53 30 -41 45 -45 vhcurveto
          endchar
        </CharString>
        <CharString name="Scedilla">
          -5 -177 23 74 21 49 24 673 23 hstem
          46 24 163 24 64 24 vstem
          135 467 rmoveto
          -36 36 -29 35 47 vvcurveto
          60 53 42 79 61 39 -17 -15 18 vhcurveto
          5 4 4 7 6 vvcurveto
          15 -38 23 -83 -101 -61 -53 -73 -53 30 -41 45 -45 vhcurveto
          117 -108 rlineto
          62 -62 21 -46 -68 vvcurveto
          -86 -43 -61 -102 -69 -32 18 20 -21 vhcurveto
          -8 -3 -4 -6 -7 vvcurveto
          -14 39 -32 93 vhcurveto
          3 hlineto
          -16 -75 rlineto
          0 19 5 16 18 19 -4 -32 -30 -19 -8 -19 vhcurveto
          -16 -14 8 -8 hhcurveto
          -10 -1 -25 0 0 23 -6 26 26 36 11 56 37 -25 14 -22 -12 -7 -2 0 hvcurveto
          11 52 rlineto
          98 11 45 68 96 vvcurveto
          71 -19 47 -60 60 vhcurveto
          endchar
        </CharString>
        <CharString name="Scommaaccent">
          -5 -10 24 673 23 hstem
          46 24 251 24 vstem
          238 337 rmoveto
          62 -62 21 -46 -68 vvcurveto
          -86 -43 -61 -102 -69 -32 18 20 -21 vhcurveto
          -8 -3 -4 -6 -7 vvcurveto
          -14 39 -32 93 117 54 71 105 71 -19 47 -60 60 vhcurveto
          -131 123 rlineto
          -36 36 -29 35 47 vvcurveto
          60 53 42 79 61 39 -17 -15 18 vhcurveto
          5 4 4 7 6 vvcurveto
          15 -38 23 -83 -101 -61 -53 -73 -53 30 -41 45 -45 vhcurveto
          45 -535 rmoveto
          -13 7 -11 8 -5 vhcurveto
          1 -33 -10 -34 -22 -37 rrcurveto
          -5 1 7 -7 5 hhcurveto
          14 40 86 53 29 -10 5 -15 -16 -10 -11 -17 hvcurveto
          endchar
        </CharString>
        <CharString name="Shacy">
          238 0 24 676 -20 hstem
          77 24 200 24 200 24 vstem
          77 hmoveto
          426 hlineto
          30 16 0 17 hvcurveto
          683 vlineto
          -22 -2 0 -10 hvcurveto
          -666 -200 676 vlineto
          -23 -1 0 -10 hvcurveto
          -666 -200 676 vlineto
          -23 -1 0 -10 hvcurveto
          endchar
        </CharString>
        <CharString name="Shchacy">
          238 0 24 676 -20 hstem
          77 24 200 24 200 24 vstem
          601 24 rmoveto
          -52 676 hlineto
          -22 -2 0 -10 hvcurveto
          -666 -200 676 vlineto
          -23 -1 0 -10 hvcurveto
          -666 -200 676 vlineto
          -23 -1 0 -10 hvcurveto
          -690 498 vlineto
          -29 0 -67 10 -64 vhcurveto
          5 11 0 6 hvcurveto
          endchar
        </CharString>
        <CharString name="ShortIcy">
          100 21 -21 700 -20 106 21 hstem
          77 24 286 24 vstem
          143 907 rmoveto
          -10 -1 -15 -2 1 -10 rrcurveto
          -35 3 28 -73 93 hhcurveto
          75 29 43 64 21 hvcurveto
          -2 12 -24 7 -4 -15 rrcurveto
          -59 -17 -18 -31 -59 hhcurveto
          -69 -25 57 43 -7 hvcurveto
          87 -618 rmoveto
          74 168 57 128 35 91 rrcurveto
          -7 -119 -2 -96 -204 vvcurveto
          -257 vlineto
          24 0 0 10 hvcurveto
          690 vlineto
          -6 -13 2 -11 -8 hvcurveto
          -123 -274 -84 -193 -56 -120 -25 -72 rlinecurve
          4 72 1 53 88 vvcurveto
          455 vlineto
          -24 0 0 -10 hvcurveto
          -690 vlineto
          5 16 -3 12 6 hvcurveto
          endchar
        </CharString>
        <CharString name="Softsigncy">
          8 0 24 349 24 303 -20 hstem
          77 24 251 24 vstem
          101 397 rmoveto
          303 vlineto
          -18 -6 0 -15 hvcurveto
          -685 111 vlineto
          124 64 88 133 120 -51 56 -120 hvcurveto
          -104 -24 rmoveto
          101 hlineto
          106 44 -48 -106 -115 -52 -80 -116 hvcurveto
          -83 1 rlineto
          endchar
        </CharString>
        <CharString name="T">
          -28 21 -21 676 24 hstem
          166 24 vstem
          15 700 rmoveto
          -7 -3 -3 -7 hvcurveto
          -14 161 -676 vlineto
          24 0 0 9 hvcurveto
          667 155 vlineto
          8 2 4 6 hvcurveto
          14 vlineto
          endchar
        </CharString>
        <CharString name="Tcaron">
          -28 21 -21 676 24 202 14 hstem
          166 24 vstem
          188 786 rmoveto
          11 96 112 8 6 -5 5 -7 5 hvcurveto
          0 -54 -60 -42 -51 vhcurveto
          0 -97 105 -8 -9 -8 -14 0 0 110 -116 13 vhcurveto
          -173 -86 rmoveto
          -7 -3 -3 -7 hvcurveto
          -14 161 -676 vlineto
          24 0 0 9 hvcurveto
          667 155 vlineto
          8 2 4 6 hvcurveto
          14 vlineto
          endchar
        </CharString>
        <CharString name="Tcedilla">
          -28 -177 23 74 21 735 24 hstem
          166 24 vstem
          15 700 rmoveto
          -7 -3 -3 -7 hvcurveto
          -14 161 -673 vlineto
          -19 -88 rlineto
          0 19 5 16 18 19 -4 -32 -30 -19 -8 -19 vhcurveto
          -16 -14 8 -8 hhcurveto
          -10 -1 -25 0 0 23 -6 26 26 36 11 56 37 -25 14 -22 -12 -7 -2 0 hvcurveto
          14 64 rlineto
          -2 hlineto
          1 1 0 2 3 vvcurveto
          667 155 vlineto
          8 2 4 6 hvcurveto
          14 vlineto
          endchar
        </CharString>
        <CharString name="Tcommaaccent">
          -28 21 -21 676 24 hstem
          166 24 vstem
          15 700 rmoveto
          -7 -3 -3 -7 hvcurveto
          -14 161 -676 vlineto
          24 0 0 9 hvcurveto
          667 155 vlineto
          8 2 4 6 hvcurveto
          14 vlineto
          -177 -762 rmoveto
          -16 -10 -11 -17 -13 7 -11 8 -5 hvcurveto
          1 -33 -10 -34 -22 -37 rrcurveto
          -5 1 7 -7 5 hhcurveto
          14 40 86 53 29 -10 5 -15 hvcurveto
          endchar
        </CharString>
        <CharString name="Tecy">
          -28 21 -21 676 24 hstem
          166 24 vstem
          15 700 rmoveto
          -7 -3 -3 -7 hvcurveto
          -14 161 -676 vlineto
          24 0 0 9 hvcurveto
          667 155 vlineto
          8 2 4 6 hvcurveto
          14 vlineto
          endchar
        </CharString>
        <CharString name="Thorn">
          -7 21 -21 169 24 342 24 141 -20 hstem
          68 24 235 24 vstem
          92 559 rmoveto
          141 -7 vlineto
          -10 -7 0 -8 hvcurveto
          -692 vlineto
          24 0 0 10 hvcurveto
          159 87 vlineto
          111 61 73 135 92 -38 90 -126 hvcurveto
          -95 -24 rmoveto
          90 hlineto
          113 32 -74 -84 -110 -46 -74 -103 hvcurveto
          -86 hlineto
          endchar
        </CharString>
        <CharString name="Tsecy">
          81 0 24 676 -20 hstem
          77 24 267 24 vstem
          444 24 rmoveto
          -52 676 hlineto
          -23 -1 0 -10 hvcurveto
          -666 -267 676 vlineto
          -23 -1 0 -10 hvcurveto
          -690 341 vlineto
          -29 0 -67 10 -64 vhcurveto
          5 11 0 6 hvcurveto
          endchar
        </CharString>
        <CharString name="Tshecy">
          133 21 -21 486 24 166 24 hstem
          166 24 251 24 vstem
          190 676 rmoveto
          155 hlineto
          8 2 4 6 hvcurveto
          14 -340 vlineto
          -7 -3 -3 -7 hvcurveto
          -14 161 -676 vlineto
          24 0 0 9 hvcurveto
          448 vlineto
          20 41 63 9 38 hhcurveto
          90 19 -39 -83 hvcurveto
          -364 vlineto
          24 0 0 10 hvcurveto
          358 vlineto
          91 -22 51 -112 -50 -45 -10 -17 -46 vhcurveto
          endchar
        </CharString>
        <CharString name="U">
          96 -10 24 686 -20 hstem
          68 24 300 24 vstem
          92 700 rmoveto
          -24 0 0 -10 hvcurveto
          -463 vlineto
          -125 15 -112 167 67 72 16 17 27 vhcurveto
          677 vlineto
          -21 -3 0 -9 hvcurveto
          -650 vlineto
          -12 -24 -61 -15 -57 hhcurveto
          -144 -14 103 110 hvcurveto
          endchar
        </CharString>
        <CharString name="Uacute">
          96 -10 24 686 -20 hstem
          68 24 300 24 vstem
          176 779 rmoveto
          76 53 66 57 0 vvcurveto
          0 -5 23 -8 vhcurveto
          0 -73 -55 -66 -62 vhcurveto
          10 -16 rlineto
          -84 -79 rmoveto
          -24 0 0 -10 hvcurveto
          -463 vlineto
          -125 15 -112 167 67 72 16 17 27 vhcurveto
          677 vlineto
          -21 -3 0 -9 hvcurveto
          -650 vlineto
          -12 -24 -61 -15 -57 hhcurveto
          -144 -14 103 110 hvcurveto
          endchar
        </CharString>
        <CharString name="Ucircumflex">
          96 -10 24 686 -20 195 24 hstem
          68 24 300 24 vstem
          128 794 rmoveto
          0 5 -13 14 6 92 94 0 vhcurveto
          89 -95 rlineto
          12 10 16 0 hvcurveto
          -96 96 rlineto
          5 -5 -5 2 -4 hhcurveto
          -4 -3 -1 -1 -1 hvcurveto
          -146 -197 rmoveto
          -24 0 0 -10 hvcurveto
          -463 vlineto
          -125 15 -112 167 67 72 16 17 27 vhcurveto
          677 vlineto
          -21 -3 0 -9 hvcurveto
          -650 vlineto
          -12 -24 -61 -15 -57 hhcurveto
          -144 -14 103 110 hvcurveto
          endchar
        </CharString>
        <CharString name="Ucy">
          -11 -3 24 679 -20 hstem
          23 344 vstem
          367 700 rmoveto
          -16 hlineto
          -8 -1 -3 -8 -2 hvcurveto
          -93 -351 -14 -52 -11 -47 -9 -39 rlinecurve
          -5 -18 -3 -16 -4 -14 -2 7 -1 6 -2 8 -11 42 -14 57 -22 78 -103 350 rcurveline
          -18 hlineto
          -3 -2 -1 -3 -2 1 -3 1 -3 hvcurveto
          21 -71 24 -86 24 -84 39 -140 39 -134 17 -55 rrcurveto
          -66 -17 -11 -31 -35 hhcurveto
          -19 -16 5 8 -13 hvcurveto
          -4 -5 -2 -5 -4 vvcurveto
          -1 0 -2 1 -1 vhcurveto
          -11 4 22 -8 23 hhcurveto
          58 14 48 64 18 hvcurveto
          endchar
        </CharString>
        <CharString name="Udieresis">
          96 -10 24 686 -20 134 56 hstem
          68 24 300 24 vstem
          193 870 rmoveto
          -12 -6 -9 -19 -1 hvcurveto
          -1 -17 5 -10 13 -1 rrcurveto
          14 5 9 17 1 hvcurveto
          19 1 -6 11 -13 hhcurveto
          100 hmoveto
          -12 -6 -9 -19 -1 hvcurveto
          -1 -17 5 -10 13 -1 rrcurveto
          14 5 9 17 1 hvcurveto
          19 1 -6 11 -13 hhcurveto
          -201 -170 rmoveto
          -24 0 0 -10 hvcurveto
          -463 vlineto
          -125 15 -112 167 67 72 16 17 27 vhcurveto
          677 vlineto
          -21 -3 0 -9 hvcurveto
          -650 vlineto
          -12 -24 -61 -15 -57 hhcurveto
          -144 -14 103 110 hvcurveto
          endchar
        </CharString>
        <CharString name="Ugrave">
          96 -10 24 686 -20 hstem
          68 24 300 24 vstem
          179 912 rmoveto
          -8 -5 -23 0 0 66 -57 76 -53 hvcurveto
          10 16 rlineto
          -66 62 -73 55 0 vvcurveto
          -87 -212 rmoveto
          -24 0 0 -10 hvcurveto
          -463 vlineto
          -125 15 -112 167 67 72 16 17 27 vhcurveto
          677 vlineto
          -21 -3 0 -9 hvcurveto
          -650 vlineto
          -12 -24 -61 -15 -57 hhcurveto
          -144 -14 103 110 hvcurveto
          endchar
        </CharString>
        <CharString name="Uhungarumlaut">
          96 -10 24 686 -20 hstem
          68 24 300 24 vstem
          257 920 rmoveto
          0 -54 -63 -45 -67 vhcurveto
          13 -13 rlineto
          57 62 46 62 0 vvcurveto
          0 -9 21 -8 -2 vhcurveto
          100 hmoveto
          0 -54 -63 -45 -67 vhcurveto
          13 -13 rlineto
          57 62 46 62 0 vvcurveto
          0 -9 21 -8 -2 vhcurveto
          -265 -220 rmoveto
          -24 0 0 -10 hvcurveto
          -463 vlineto
          -125 15 -112 167 67 72 16 17 27 vhcurveto
          677 vlineto
          -21 -3 0 -9 hvcurveto
          -650 vlineto
          -12 -24 -61 -15 -57 hhcurveto
          -144 -14 103 110 hvcurveto
          endchar
        </CharString>
        <CharString name="Umacron">
          96 -10 24 686 -20 143 25 hstem
          68 24 300 24 vstem
          352 823 rmoveto
          7 3 4 8 1 hvcurveto
          4 0 4 -1 5 vhcurveto
          -230 hlineto
          -7 -3 -4 -8 -1 hvcurveto
          -4 0 -4 1 -5 vhcurveto
          -30 -123 rmoveto
          -24 0 0 -10 hvcurveto
          -463 vlineto
          -125 15 -112 167 67 72 16 17 27 vhcurveto
          677 vlineto
          -21 -3 0 -9 hvcurveto
          -650 vlineto
          -12 -24 -61 -15 -57 hhcurveto
          -144 -14 103 110 hvcurveto
          endchar
        </CharString>
        <CharString name="Uogonek">
          96 -195 23 162 24 686 -20 hstem
          68 24 209 24 67 24 vstem
          416 700 rmoveto
          -21 -3 0 -9 hvcurveto
          -651 vlineto
          -12 -24 -61 -14 -57 hhcurveto
          -144 -14 103 110 hvcurveto
          473 vlineto
          -24 0 0 -10 hvcurveto
          -463 vlineto
          -125 15 -112 167 38 41 5 8 30 vhcurveto
          -29 -32 -29 -51 -38 vvcurveto
          -50 26 -27 44 22 19 6 11 6 -3 5 -3 5 vhcurveto
          -6 -10 -10 -4 -14 hhcurveto
          -33 -14 19 35 47 46 67 45 27 hvcurveto
          endchar
        </CharString>
        <CharString name="Uring">
          96 -10 24 686 -20 87 24 119 24 hstem
          68 24 68 24 116 24 68 24 vstem
          160 850 rmoveto
          -62 32 -21 47 53 32 29 54 62 -26 22 -52 -52 -34 -27 -57 vhcurveto
          24 -3 rmoveto
          48 23 15 40 34 19 -14 -45 -41 -22 -19 -39 -36 -19 21 35 vhcurveto
          -92 -147 rmoveto
          -24 0 0 -10 hvcurveto
          -463 vlineto
          -125 15 -112 167 67 72 16 17 27 vhcurveto
          677 vlineto
          -21 -3 0 -9 hvcurveto
          -650 vlineto
          -12 -24 -61 -15 -57 hhcurveto
          -144 -14 103 110 hvcurveto
          endchar
        </CharString>
        <CharString name="Ushortcy">
          -11 -3 24 679 -20 106 21 hstem
          67 24 195 30 vstem
          91 907 rmoveto
          -10 -1 -15 -2 1 -10 rrcurveto
          -35 3 28 -73 93 hhcurveto
          75 29 43 64 21 hvcurveto
          -2 12 -24 7 -4 -15 rrcurveto
          -59 -17 -18 -31 -59 hhcurveto
          -69 -25 57 43 -7 hvcurveto
          276 -207 rmoveto
          -16 hlineto
          -8 -1 -3 -8 -2 hvcurveto
          -93 -351 -21 -77 -14 -65 -11 -44 rlinecurve
          -11 44 -15 63 -26 91 -103 350 rcurveline
          -18 hlineto
          -3 -2 -1 -3 -2 1 -3 1 -3 hvcurveto
          55 -190 81 -292 28 -88 rrcurveto
          -66 -17 -11 -31 -35 hhcurveto
          -19 -16 5 8 -13 hvcurveto
          -5 -7 -2 -6 2 -5 rrcurveto
          -11 4 22 -8 23 hhcurveto
          58 14 48 64 18 hvcurveto
          endchar
        </CharString>
        <CharString name="Ustraitstrokecy">
          -31 21 -21 256 25 419 -20 hstem
          168 24 vstem
          192 281 rmoveto
          6 vlineto
          160 413 rlineto
          -25 -1 0 -5 -2 hvcurveto
          -55 -144 rlineto
          -36 -94 -53 -146 0 vvcurveto
          0 -52 147 -37 93 vhcurveto
          -59 149 rlineto
          -22 -5 0 -3 hvcurveto
          0 1 -1 -1 hvcurveto
          162 -408 rlineto
          -6 -95 vlineto
          -7 -3 -4 -8 -1 hvcurveto
          -4 0 -4 1 -5 vhcurveto
          105 -256 hlineto
          24 0 0 10 hvcurveto
          246 101 vlineto
          7 3 4 8 1 hvcurveto
          4 0 4 -1 5 vhcurveto
          endchar
        </CharString>
        <CharString name="V">
          33 11 -21 696 14 hstem
          5 412 vstem
          417 700 rmoveto
          -17 hlineto
          -7 -1 -6 -8 -2 hvcurveto
          -132 -485 -19 -70 -11 -45 -12 -59 rlinecurve
          -13 59 -11 44 -21 71 -144 499 rcurveline
          -16 hlineto
          -5 -1 -2 -3 -3 1 -3 1 -3 hvcurveto
          0 135 -468 48 -170 vhcurveto
          -36 10 6 -22 5 hhcurveto
          8 5 1 0 hvcurveto
          endchar
        </CharString>
        <CharString name="Vecy">
          31 0 24 347 24 282 23 hstem
          77 24 264 24 vstem
          77 hmoveto
          117 hlineto
          45 150 4 235 126 -84 21 -39 1 hvcurveto
          39 6 63 31 126 vvcurveto
          127 -94 23 -72 vhcurveto
          -101 hlineto
          -20 -4 -7 -9 hvcurveto
          24 -289 rmoveto
          282 96 vlineto
          73 74 -25 -103 -122 -63 -32 -75 hvcurveto
          -105 -371 rmoveto
          347 91 vlineto
          96 77 -6 -128 -173 -87 -40 -85 hvcurveto
          endchar
        </CharString>
        <CharString name="W">
          241 12 -21 695 14 hstem
          5 621 vstem
          609 700 rmoveto
          -7 -1 -6 -8 -2 hvcurveto
          -104 -486 -8 -39 -6 -36 -5 -32 rlinecurve
          -3 -18 -3 -17 -3 -15 rrcurveto
          -2 hlineto
          -3 16 -2 13 -2 12 -7 35 -4 27 -13 54 -107 460 rcurveline
          -18 hlineto
          -7 -1 -6 -8 -2 hvcurveto
          -95 -446 -12 -57 -9 -44 -7 -58 rlinecurve
          -2 hlineto
          -11 59 -5 28 -16 72 -115 500 rcurveline
          -17 hlineto
          -4 -1 -3 -3 hvcurveto
          -3 1 -3 -2 vvcurveto
          0 108 -462 38 -174 vhcurveto
          -38 8 5 -22 4 hhcurveto
          8 6 1 0 hvcurveto
          105 485 rlineto
          0 23 121 3 18 vhcurveto
          28 -141 104 -440 rlineto
          -26 6 5 -19 3 hhcurveto
          9 4 2 0 hvcurveto
          153 709 rlineto
          endchar
        </CharString>
        <CharString name="Wacute">
          241 12 -21 695 14 hstem
          5 621 vstem
          391 889 rmoveto
          0 -5 23 -8 vhcurveto
          0 -73 -55 -66 -62 vhcurveto
          10 -16 rlineto
          76 53 66 57 0 vvcurveto
          218 -189 rmoveto
          -7 -1 -6 -8 -2 hvcurveto
          -104 -486 -13 -60 -7 -54 -8 -43 rlinecurve
          -2 hlineto
          -11 59 -3 25 -17 73 -107 460 rcurveline
          -18 hlineto
          -7 -1 -6 -8 -2 hvcurveto
          -95 -446 -12 -57 -9 -44 -7 -58 rlinecurve
          -2 hlineto
          -11 59 -5 28 -16 72 -115 500 rcurveline
          -17 hlineto
          -7 2 -9 -5 1 hvcurveto
          0 108 -462 38 -174 vhcurveto
          -38 8 5 -22 4 hhcurveto
          8 6 1 0 hvcurveto
          105 485 rlineto
          0 23 121 3 18 vhcurveto
          28 -141 104 -440 rlineto
          -26 6 5 -19 3 hhcurveto
          9 4 2 0 hvcurveto
          153 709 rlineto
          endchar
        </CharString>
        <CharString name="Wcircumflex">
          241 12 -21 695 14 175 24 hstem
          5 621 vstem
          201 794 rmoveto
          0 5 -13 14 6 92 94 0 vhcurveto
          89 -95 rlineto
          12 10 16 0 hvcurveto
          -96 96 rlineto
          5 -5 -5 2 -4 hhcurveto
          -4 -3 -1 -1 -1 hvcurveto
          298 -197 rmoveto
          -7 -1 -6 -8 -2 hvcurveto
          -104 -486 -13 -60 -7 -54 -8 -43 rlinecurve
          -2 hlineto
          -11 59 -3 25 -17 73 -107 460 rcurveline
          -18 hlineto
          -7 -1 -6 -8 -2 hvcurveto
          -95 -446 -12 -57 -9 -44 -7 -58 rlinecurve
          -2 hlineto
          -11 59 -5 28 -16 72 -115 500 rcurveline
          -17 hlineto
          -7 2 -9 -5 1 hvcurveto
          0 108 -462 38 -174 vhcurveto
          -38 8 5 -22 4 hhcurveto
          8 6 1 0 hvcurveto
          105 485 rlineto
          0 23 121 3 18 vhcurveto
          28 -141 104 -440 rlineto
          -26 6 5 -19 3 hhcurveto
          9 4 2 0 hvcurveto
          153 709 rlineto
          endchar
        </CharString>
        <CharString name="Wdieresis">
          241 12 -21 695 14 114 56 hstem
          247 37 63 37 vstem
          264 814 rmoveto
          14 5 9 17 1 hvcurveto
          19 1 -6 11 -13 hhcurveto
          -12 -6 -9 -19 -1 hvcurveto
          -1 -17 5 -10 13 -1 rrcurveto
          100 hmoveto
          14 5 9 17 1 hvcurveto
          19 1 -6 11 -13 hhcurveto
          -12 -6 -9 -19 -1 hvcurveto
          -1 -17 5 -10 13 -1 rrcurveto
          245 -114 rmoveto
          -7 -1 -6 -8 -2 hvcurveto
          -104 -486 -13 -60 -7 -54 -8 -43 rlinecurve
          -2 hlineto
          -11 59 -3 25 -17 73 -107 460 rcurveline
          -18 hlineto
          -7 -1 -6 -8 -2 hvcurveto
          -95 -446 -12 -57 -9 -44 -7 -58 rlinecurve
          -2 hlineto
          -11 59 -5 28 -16 72 -115 500 rcurveline
          -17 hlineto
          -7 2 -9 -5 1 hvcurveto
          0 108 -462 38 -174 vhcurveto
          -38 8 5 -22 4 hhcurveto
          8 6 1 0 hvcurveto
          105 485 rlineto
          0 23 121 3 18 vhcurveto
          28 -141 104 -440 rlineto
          -26 6 5 -19 3 hhcurveto
          9 4 2 0 hvcurveto
          153 709 rlineto
          endchar
        </CharString>
        <CharString name="Wgrave">
          241 12 -21 695 14 hstem
          5 621 vstem
          391 795 rmoveto
          -66 62 -73 55 0 vvcurveto
          -8 -5 -23 0 0 66 -57 76 -53 hvcurveto
          10 16 rlineto
          218 -95 rmoveto
          -7 -1 -6 -8 -2 hvcurveto
          -104 -486 -13 -60 -7 -54 -8 -43 rlinecurve
          -2 hlineto
          -11 59 -3 25 -17 73 -107 460 rcurveline
          -18 hlineto
          -7 -1 -6 -8 -2 hvcurveto
          -95 -446 -12 -57 -9 -44 -7 -58 rlinecurve
          -2 hlineto
          -11 59 -5 28 -16 72 -115 500 rcurveline
          -17 hlineto
          -7 2 -9 -5 1 hvcurveto
          0 108 -462 38 -174 vhcurveto
          -38 8 5 -22 4 hhcurveto
          8 6 1 0 hvcurveto
          105 485 rlineto
          0 23 121 3 18 vhcurveto
          28 -141 104 -440 rlineto
          -26 6 5 -19 3 hhcurveto
          9 4 2 0 hvcurveto
          153 709 rlineto
          endchar
        </CharString>
        <CharString name="X">
          41 21 -21 700 -20 hstem
          12 405 vstem
          232 361 rmoveto
          165 339 rlineto
          -31 3 0 -5 -3 hvcurveto
          -60 -124 -38 -78 -40 -85 -12 -24 rlinecurve
          -10 23 -40 84 -39 80 -63 129 rcurveline
          -22 -5 0 -2 0 1 -2 1 -1 hvcurveto
          161 -329 -188 -366 rlineto
          22 hlineto
          5 2 1 3 2 hvcurveto
          84 166 40 78 38 77 11 22 rlinecurve
          11 -22 39 -77 39 -79 84 -169 rcurveline
          22 hlineto
          4 4 3 6 -3 hvcurveto
          endchar
        </CharString>
        <CharString name="Y">
          -31 21 -21 700 -20 hstem
          168 24 vstem
          352 700 rmoveto
          -25 -1 0 -5 -2 hvcurveto
          -55 -144 rlineto
          -36 -94 -53 -146 0 vvcurveto
          0 -52 147 -37 93 vhcurveto
          -59 149 rlineto
          -22 -5 0 -3 hvcurveto
          0 1 -1 -1 hvcurveto
          162 -408 rlineto
          -287 vlineto
          24 0 0 10 hvcurveto
          277 vlineto
          endchar
        </CharString>
        <CharString name="Yacute">
          -31 21 -21 700 -20 hstem
          168 24 vstem
          255 889 rmoveto
          0 -5 23 -8 vhcurveto
          0 -73 -55 -66 -62 vhcurveto
          10 -16 rlineto
          76 53 66 57 0 vvcurveto
          97 -189 rmoveto
          -25 -1 0 -5 -2 hvcurveto
          -55 -144 rlineto
          -36 -94 -53 -146 0 vvcurveto
          0 -52 147 -37 93 vhcurveto
          -59 149 rlineto
          -27 -1 0 -5 2 hvcurveto
          162 -408 rlineto
          -287 vlineto
          24 0 0 10 hvcurveto
          277 vlineto
          endchar
        </CharString>
        <CharString name="Ycircumflex">
          -31 21 -21 700 -20 195 24 hstem
          168 24 vstem
          65 794 rmoveto
          0 5 -13 14 6 92 94 0 vhcurveto
          89 -95 rlineto
          12 10 16 0 hvcurveto
          -96 96 rlineto
          5 -5 -5 2 -4 hhcurveto
          -4 -3 -1 -1 -1 hvcurveto
          177 -197 rmoveto
          -25 -1 0 -5 -2 hvcurveto
          -55 -144 rlineto
          -36 -94 -53 -146 0 vvcurveto
          0 -52 147 -37 93 vhcurveto
          -59 149 rlineto
          -27 -1 0 -5 2 hvcurveto
          162 -408 rlineto
          -287 vlineto
          24 0 0 10 hvcurveto
          277 vlineto
          endchar
        </CharString>
        <CharString name="Ydieresis">
          -31 21 -21 700 -20 134 56 hstem
          168 24 vstem
          128 814 rmoveto
          14 5 9 17 1 hvcurveto
          19 1 -6 11 -13 hhcurveto
          -12 -6 -9 -19 -1 hvcurveto
          -1 -17 5 -10 13 -1 rrcurveto
          100 hmoveto
          14 5 9 17 1 hvcurveto
          19 1 -6 11 -13 hhcurveto
          -12 -6 -9 -19 -1 hvcurveto
          -1 -17 5 -10 13 -1 rrcurveto
          124 -114 rmoveto
          -25 -1 0 -5 -2 hvcurveto
          -55 -144 rlineto
          -36 -94 -53 -146 0 vvcurveto
          0 -52 147 -37 93 vhcurveto
          -59 149 rlineto
          -27 -1 0 -5 2 hvcurveto
          162 -408 rlineto
          -287 vlineto
          24 0 0 10 hvcurveto
          277 vlineto
          endchar
        </CharString>
        <CharString name="Yerucy">
          169 0 24 349 24 303 -20 hstem
          77 24 251 24 88 25 vstem
          101 700 rmoveto
          -18 -6 0 -15 hvcurveto
          -685 111 vlineto
          124 64 88 133 120 -51 56 -120 hvcurveto
          -104 hlineto
          363 -397 rmoveto
          23 2 0 10 hvcurveto
          690 vlineto
          -24 -1 0 -16 hvcurveto
          -262 -311 rmoveto
          106 44 -48 -106 -115 -52 -80 -116 hvcurveto
          -83 1 rlineto
          348 vlineto
          endchar
        </CharString>
        <CharString name="Ygrave">
          -31 21 -21 700 -20 hstem
          168 24 vstem
          255 795 rmoveto
          -66 62 -73 55 0 vvcurveto
          -8 -5 -23 0 0 66 -57 76 -53 hvcurveto
          10 16 rlineto
          97 -95 rmoveto
          -25 -1 0 -5 -2 hvcurveto
          -55 -144 rlineto
          -36 -94 -53 -146 0 vvcurveto
          0 -52 147 -37 93 vhcurveto
          -59 149 rlineto
          -27 -1 0 -5 2 hvcurveto
          162 -408 rlineto
          -287 vlineto
          24 0 0 10 hvcurveto
          277 vlineto
          endchar
        </CharString>
        <CharString name="Yicy">
          -227 21 -21 700 -20 134 56 hstem
          68 25 vstem
          32 870 rmoveto
          -12 -6 -9 -19 -1 hvcurveto
          -1 -17 5 -10 13 -1 rrcurveto
          14 5 9 17 1 hvcurveto
          19 1 -6 11 -13 hhcurveto
          100 hmoveto
          -12 -6 -9 -19 -1 hvcurveto
          -1 -17 5 -10 13 -1 rrcurveto
          14 5 9 17 1 hvcurveto
          19 1 -6 11 -13 hhcurveto
          -64 -870 rmoveto
          23 2 0 10 hvcurveto
          690 vlineto
          -24 -1 0 -16 hvcurveto
          endchar
        </CharString>
        <CharString name="Z">
          14 0 24 652 24 hstem
          337 27 vstem
          57 676 rmoveto
          38 hlineto
          242 hlineto
          -302 -649 rlineto
          -2 -5 -2 -5 -6 vvcurveto
          -6 3 -4 4 -1 vhcurveto
          320 hlineto
          8 2 5 5 hvcurveto
          17 vlineto
          -3 -10 -17 0 -18 hhcurveto
          -263 hlineto
          304 649 rlineto
          3 7 1 4 0 5 0 4 -1 4 -3 3 50 flex
          -297 hlineto
          -7 -3 -4 -6 hvcurveto
          endchar
        </CharString>
        <CharString name="Zacute">
          14 0 24 652 24 hstem
          337 27 vstem
          135 779 rmoveto
          76 53 66 57 0 vvcurveto
          0 -5 23 -8 vhcurveto
          0 -73 -55 -66 -62 vhcurveto
          10 -16 rlineto
          -78 -103 rmoveto
          38 hlineto
          242 hlineto
          -302 -649 rlineto
          -2 -5 -2 -5 -6 vvcurveto
          -6 3 -4 4 -1 vhcurveto
          320 hlineto
          8 2 5 5 hvcurveto
          17 vlineto
          -3 -10 -17 0 -18 hhcurveto
          -263 hlineto
          304 649 rlineto
          3 7 1 4 0 5 0 4 -1 4 -3 3 50 flex
          -297 hlineto
          -7 -3 -4 -6 hvcurveto
          endchar
        </CharString>
        <CharString name="Zcaron">
          14 0 24 652 24 hstem
          337 27 vstem
          209 786 rmoveto
          11 96 112 8 6 -5 5 -7 5 hvcurveto
          0 -54 -60 -42 -51 vhcurveto
          0 -97 105 -8 -9 -8 -14 0 0 110 -116 13 vhcurveto
          -152 -110 rmoveto
          38 hlineto
          242 hlineto
          -302 -649 rlineto
          -2 -5 -2 -5 -6 vvcurveto
          -6 3 -4 4 -1 vhcurveto
          320 hlineto
          8 2 5 5 hvcurveto
          17 vlineto
          -3 -10 -17 0 -18 hhcurveto
          -263 hlineto
          304 649 rlineto
          3 7 1 4 0 5 0 4 -1 4 -3 3 50 flex
          -297 hlineto
          -7 -3 -4 -6 hvcurveto
          endchar
        </CharString>
        <CharString name="Zdotaccent">
          14 0 24 652 24 hstem
          183 37 117 27 vstem
          183 842 rmoveto
          -1 -17 5 -10 13 -1 rrcurveto
          14 5 9 17 1 hvcurveto
          19 1 -6 11 -13 hhcurveto
          -12 -6 -9 -19 -1 hvcurveto
          -126 -166 rmoveto
          38 hlineto
          242 hlineto
          -302 -649 rlineto
          -2 -5 -2 -5 -6 vvcurveto
          -6 3 -4 4 -1 vhcurveto
          320 hlineto
          8 2 5 5 hvcurveto
          17 vlineto
          -3 -10 -17 0 -18 hhcurveto
          -263 hlineto
          304 649 rlineto
          3 7 1 4 0 5 0 4 -1 4 -3 3 50 flex
          -297 hlineto
          -7 -3 -4 -6 hvcurveto
          endchar
        </CharString>
        <CharString name="Zecy">
          -21 -8 23 342 27 299 24 hstem
          310 27 vstem
          105 384 rmoveto
          -7 vlineto
          -13 4 -7 10 vhcurveto
          68 hlineto
          65 58 -47 -118 -147 -88 -30 -51 -55 -52 17 45 -34 hvcurveto
          -5 -6 -2 -8 -4 vvcurveto
          -24 1 67 -43 81 hhcurveto
          56 109 34 171 107 -44 50 -57 23 hvcurveto
          49 39 34 66 72 vvcurveto
          92 -52 61 -88 -69 -55 -34 -27 -3 1 -6 1 -7 vhcurveto
          18 22 37 35 62 hhcurveto
          70 43 -46 -88 -59 -18 -55 -66 -51 hvcurveto
          endchar
        </CharString>
        <CharString name="Zhecy">
          266 21 -21 357 24 319 -20 hstem
          315 25 250 24 vstem
          512 471 rmoveto
          -59 -18 -33 -31 -37 hhcurveto
          -84 319 hlineto
          -25 0 0 -10 hvcurveto
          -309 -85 vlineto
          -37 -33 31 59 -18 hvcurveto
          -69 228 rlineto
          1 -5 -5 0 -5 hhcurveto
          -6 -3 -1 -3 -2 2 -4 2 -5 hvcurveto
          67 -220 15 -47 26 -34 28 -15 rlinecurve
          -42 -23 -33 -48 -17 -65 -56 -220 rcurveline
          -10 -2 4 -4 8 hhcurveto
          4 5 0 1 4 hvcurveto
          57 222 rlineto
          80 21 45 55 46 hhcurveto
          82 -357 hlineto
          25 0 0 10 hvcurveto
          347 81 vlineto
          46 45 -55 -80 21 hvcurveto
          57 -222 rlineto
          -1 5 4 0 4 hhcurveto
          7 4 3 6 hvcurveto
          2 -1 1 2 vvcurveto
          -56 220 -17 65 -33 48 -42 23 rlinecurve
          28 15 26 34 15 47 67 220 rcurveline
          2 5 2 4 2 vvcurveto
          3 -3 1 -6 -5 -5 0 -1 -5 vhcurveto
          endchar
        </CharString>
        <CharString name="a">
          -5 -10 24 261 22 189 24 hstem
          45 24 234 24 vstem
          327 389 rmoveto
          90 -44 31 -74 -69 -68 -12 -12 -23 vhcurveto
          -4 -2 -1 -4 -7 vvcurveto
          -5 1 -3 3 -5 vhcurveto
          12 23 57 14 76 hhcurveto
          56 43 -15 -86 hvcurveto
          -98 vlineto
          7 -24 -33 3 -34 hhcurveto
          -83 -84 -19 -143 -135 74 -12 71 2 hvcurveto
          75 40 28 10 16 hvcurveto
          3 80 3 101 114 vvcurveto
          -24 -59 rmoveto
          -77 -2 -91 -4 -53 vhcurveto
          -12 -14 -41 -17 -45 hhcurveto
          -65 -63 2 120 129 73 10 75 25 36 -4 -7 25 hvcurveto
          endchar
        </CharString>
        <CharString name="aacute">
          -5 -10 24 261 22 189 24 hstem
          45 24 234 24 vstem
          119 579 rmoveto
          76 53 66 57 0 vvcurveto
          0 -5 23 -8 vhcurveto
          0 -73 -55 -66 -62 vhcurveto
          10 -16 rlineto
          208 -190 rmoveto
          90 -44 31 -74 -69 -68 -12 -12 -23 vhcurveto
          -4 -2 -1 -4 -7 vvcurveto
          -5 1 -3 3 -5 vhcurveto
          12 23 57 14 76 hhcurveto
          56 43 -15 -86 hvcurveto
          -98 vlineto
          7 -24 -33 3 -34 hhcurveto
          -83 -84 -19 -143 -135 74 -12 71 2 hvcurveto
          75 40 28 10 16 hvcurveto
          3 80 3 101 114 vvcurveto
          -24 -59 rmoveto
          -77 -2 -91 -4 -53 vhcurveto
          -12 -14 -41 -17 -45 hhcurveto
          -65 -63 2 120 129 73 10 75 25 36 -4 -7 25 hvcurveto
          endchar
        </CharString>
        <CharString name="abreve">
          -5 -10 24 261 22 189 24 75 24 98 -20 hstem
          45 24 234 24 vstem
          90 707 rmoveto
          -10 -1 -9 -2 -10 vvcurveto
          -18 36 -91 78 73 30 67 41 12 vhcurveto
          -2 12 -18 6 -5 -14 rrcurveto
          -38 -14 -19 -50 -56 hhcurveto
          -59 -25 62 36 -12 hvcurveto
          237 -318 rmoveto
          90 -44 31 -74 -69 -68 -12 -12 -23 vhcurveto
          -4 -2 -1 -4 -7 vvcurveto
          -5 1 -3 3 -5 vhcurveto
          12 23 57 14 76 hhcurveto
          56 43 -15 -86 hvcurveto
          -98 vlineto
          7 -24 -33 3 -34 hhcurveto
          -83 -84 -19 -143 -135 74 -12 71 2 hvcurveto
          75 40 28 10 16 hvcurveto
          3 80 3 101 114 vvcurveto
          -24 -59 rmoveto
          -77 -2 -91 -4 -53 vhcurveto
          -12 -14 -41 -17 -45 hhcurveto
          -65 -63 2 120 129 73 10 75 25 36 -4 -7 25 hvcurveto
          endchar
        </CharString>
        <CharString name="acircumflex">
          -5 -10 24 261 22 189 24 165 24 hstem
          45 24 234 24 vstem
          71 594 rmoveto
          0 5 -13 14 6 92 94 0 vhcurveto
          89 -95 rlineto
          12 10 16 0 hvcurveto
          -96 96 rlineto
          5 -5 -5 2 -4 hhcurveto
          -4 -3 -1 -1 -1 hvcurveto
          146 -308 rmoveto
          90 -44 31 -74 -69 -68 -12 -12 -23 vhcurveto
          -4 -2 -1 -4 -7 vvcurveto
          -5 1 -3 3 -5 vhcurveto
          12 23 57 14 76 hhcurveto
          56 43 -15 -86 hvcurveto
          -98 vlineto
          7 -24 -33 3 -34 hhcurveto
          -83 -84 -19 -143 -135 74 -12 71 2 hvcurveto
          75 40 28 10 16 hvcurveto
          3 80 3 101 114 vvcurveto
          -24 -59 rmoveto
          -77 -2 -91 -4 -53 vhcurveto
          -12 -14 -41 -17 -45 hhcurveto
          -65 -63 2 120 129 73 10 75 25 36 -4 -7 25 hvcurveto
          endchar
        </CharString>
        <CharString name="acute">
          -138 579 133 hstem
          49 152 vstem
          59 579 rmoveto
          76 53 66 57 0 vvcurveto
          0 -5 23 -8 vhcurveto
          0 -73 -55 -66 -62 vhcurveto
          10 -16 rlineto
          endchar
        </CharString>
        <CharString name="acy">
          -5 -10 24 261 22 189 24 hstem
          45 24 234 24 vstem
          327 389 rmoveto
          90 -44 31 -74 -69 -68 -12 -12 -23 vhcurveto
          -4 -2 -1 -4 -7 vvcurveto
          -5 1 -3 3 -5 vhcurveto
          12 23 57 14 76 hhcurveto
          56 43 -15 -86 hvcurveto
          -98 vlineto
          7 -24 -33 3 -34 hhcurveto
          -83 -84 -19 -143 -135 74 -12 71 2 hvcurveto
          75 40 28 10 16 hvcurveto
          3 80 3 101 114 vvcurveto
          -24 -59 rmoveto
          -77 -2 -91 -4 -53 vhcurveto
          -12 -14 -41 -17 -45 hhcurveto
          -65 -63 2 120 129 73 10 75 25 36 -4 -7 25 hvcurveto
          endchar
        </CharString>
        <CharString name="adieresis">
          -5 -10 24 261 22 189 24 hstem
          45 24 234 24 vstem
          327 389 rmoveto
          90 -44 31 -74 -69 -68 -12 -12 -23 vhcurveto
          -4 -2 -1 -4 -7 vvcurveto
          -5 1 -3 3 -5 vhcurveto
          12 23 57 14 76 hhcurveto
          56 43 -15 -86 hvcurveto
          -98 vlineto
          7 -24 -33 3 -34 hhcurveto
          -83 -84 -19 -143 -135 74 -12 71 2 hvcurveto
          75 40 28 10 16 hvcurveto
          3 80 3 101 114 vvcurveto
          -24 -59 rmoveto
          -77 -2 -91 -4 -53 vhcurveto
          -12 -14 -41 -17 -45 hhcurveto
          -65 -63 2 120 129 73 10 75 25 36 -4 -7 25 hvcurveto
          -167 406 rmoveto
          -12 -6 -9 -19 -1 hvcurveto
          -1 -17 5 -10 13 -1 rrcurveto
          14 5 9 17 1 hvcurveto
          19 1 -6 11 -13 hhcurveto
          100 hmoveto
          -12 -6 -9 -19 -1 hvcurveto
          -1 -17 5 -10 13 -1 rrcurveto
          14 5 9 17 1 hvcurveto
          19 1 -6 11 -13 hhcurveto
          endchar
        </CharString>
        <CharString name="ae">
          278 -8 22 261 22 189 24 hstem
          45 24 234 24 259 24 vstem
          327 71 rmoveto
          -69 28 54 -10 65 hhcurveto
          70 62 27 10 5 -1 11 -4 8 hvcurveto
          -24 -30 -49 -13 -49 hhcurveto
          -80 -64 15 186 hvcurveto
          1 41 rlineto
          -5 21 78 -15 82 hhcurveto
          31 32 2 6 29 hvcurveto
          5 30 2 44 39 vvcurveto
          91 -34 60 -91 -57 -67 -10 -103 -34 vhcurveto
          84 -3 -43 29 -75 hhcurveto
          -78 -49 -14 -12 -22 hvcurveto
          -4 -2 -4 -6 -6 vvcurveto
          -5 1 -4 2 -5 vhcurveto
          17 29 53 13 64 hhcurveto
          62 43 -15 -86 hvcurveto
          -98 vlineto
          7 -24 -33 3 -34 hhcurveto
          -83 -84 -19 -143 -135 74 -10 71 2 hvcurveto
          75 46 20 10 16 hvcurveto
          159 464 rmoveto
          78 20 -51 -88 2 hvcurveto
          -24 -1 -26 -3 -30 vhcurveto
          -4 -21 -24 -2 -24 hhcurveto
          -75 -82 16 4 -25 hvcurveto
          198 15 82 7 58 hhcurveto
          -183 -445 rmoveto
          -14 -14 -47 -13 -45 hhcurveto
          -65 -63 6 111 134 73 10 75 25 36 -4 -7 25 hvcurveto
          endchar
        </CharString>
        <CharString name="agrave">
          -5 -10 24 261 22 189 24 hstem
          45 24 234 24 vstem
          122 712 rmoveto
          -8 -5 -23 0 0 66 -57 76 -53 hvcurveto
          10 16 rlineto
          -66 62 -73 55 0 vvcurveto
          205 -323 rmoveto
          90 -44 31 -74 -69 -68 -12 -12 -23 vhcurveto
          -4 -2 -1 -4 -7 vvcurveto
          -5 1 -3 3 -5 vhcurveto
          12 23 57 14 76 hhcurveto
          56 43 -15 -86 hvcurveto
          -98 vlineto
          7 -24 -33 3 -34 hhcurveto
          -83 -84 -19 -143 -135 74 -12 71 2 hvcurveto
          75 40 28 10 16 hvcurveto
          3 80 3 101 114 vvcurveto
          -24 -59 rmoveto
          -77 -2 -91 -4 -53 vhcurveto
          -12 -14 -41 -17 -45 hhcurveto
          -65 -63 2 120 129 73 10 75 25 36 -4 -7 25 hvcurveto
          endchar
        </CharString>
        <CharString name="amacron">
          -5 -10 24 261 22 189 24 113 25 hstem
          45 24 234 24 vstem
          295 623 rmoveto
          7 3 4 8 1 hvcurveto
          4 0 4 -1 5 vhcurveto
          -230 hlineto
          -7 -3 -4 -8 -1 hvcurveto
          -4 0 -4 1 -5 vhcurveto
          262 -234 rmoveto
          90 -44 31 -74 -69 -68 -12 -12 -23 vhcurveto
          -4 -2 -1 -4 -7 vvcurveto
          -5 1 -3 3 -5 vhcurveto
          12 23 57 14 76 hhcurveto
          56 43 -15 -86 hvcurveto
          -98 vlineto
          7 -24 -33 3 -34 hhcurveto
          -83 -84 -19 -143 -135 74 -12 71 2 hvcurveto
          75 40 28 10 16 hvcurveto
          3 80 3 101 114 vvcurveto
          -24 -59 rmoveto
          -77 -2 -91 -4 -53 vhcurveto
          -12 -14 -41 -17 -45 hhcurveto
          -65 -63 2 120 129 73 10 75 25 36 -4 -7 25 hvcurveto
          endchar
        </CharString>
        <CharString name="ampersand">
          138 -10 24 465 24 181 22 hstem
          80 24 315 23 vstem
          463 479 rmoveto
          33 7 1 7 6 0 3 -1 5 hvcurveto
          2 -29 -35 0 -36 hhcurveto
          -31 -22 -1 -4 -43 hvcurveto
          62 -32 51 -91 -107 vvcurveto
          -22 -2 -69 -29 -61 vhcurveto
          -118 132 -166 214 104 vvcurveto
          99 73 19 70 56 46 -13 -20 31 vhcurveto
          0 5 7 9 11 -55 28 -83 -83 -84 -28 -110 -55 36 -77 51 -80 hvcurveto
          -61 -31 -59 -67 -85 vvcurveto
          -84 29 -99 152 83 51 34 45 31 vhcurveto
          -48 45 33 -30 7 hhcurveto
          11 5 20 0 hvcurveto
          -16 12 -32 31 -38 41 rrcurveto
          33 64 1 75 29 vvcurveto
          130 -55 70 -24 18 vhcurveto
          -137 -467 rmoveto
          -129 -25 91 65 81 56 60 53 23 hvcurveto
          59 -88 74 -90 60 -66 rrcurveto
          -43 -28 -46 -33 -74 hhcurveto
          endchar
        </CharString>
        <CharString name="ampersand.ss03">
          81 54 24 288 19 238 25 hstem
          54 24 173 22 vstem
          295 390 rmoveto
          0 -36 -5 -35 -69 -59 20 81 94 72 43 91 68 54 -25 -49 32 vhcurveto
          0 10 9 13 12 -46 59 -104 6 hvcurveto
          127 vlineto
          -17 -5 -2 -12 hvcurveto
          -113 vlineto
          -100 -2 -81 -58 -103 vvcurveto
          -80 60 -40 43 1 vhcurveto
          -66 -17 -53 -51 -87 vvcurveto
          -87 52 -70 131 vhcurveto
          4 -120 hlineto
          20 2 3 11 hvcurveto
          107 vlineto
          122 9 38 71 7 vvcurveto
          10 -11 8 0 vhcurveto
          -36 -24 -45 -46 -108 hhcurveto
          -112 -45 67 65 80 58 69 153 4 hvcurveto
          endchar
        </CharString>
        <CharString name="ampersand.ss04">
          295 -7 23 143 23 219 23 245 21 hstem
          54 25 249 23 123 26 vstem
          474 157 rmoveto
          -146 24 -18 60 49 25 9 10 8 -2 8 0 vhcurveto
          0 -23 -12 -50 -46 -11 24 113 vhcurveto
          287 vlineto
          60 6 59 12 0 vvcurveto
          7 1 0 8 13 vvcurveto
          0 -51 -10 -75 -9 vhcurveto
          153 vlineto
          -25 -1 -3 -13 hvcurveto
          -140 vlineto
          0 -52 -8 -75 -7 vhcurveto
          4 92 rlineto
          134 -64 21 -44 -138 -51 -93 -201 -215 71 -22 96 101 35 74 15 12 -11 10 0 vhcurveto
          -29 -15 -22 -59 -85 hhcurveto
          -80 -65 5 214 hvcurveto
          155 240 36 0 hvcurveto
          -149 3 rmoveto
          0 -134 -16 -111 vhcurveto
          241 8 101 4 46 hhcurveto
          54 39 -25 -121 hvcurveto
          endchar
        </CharString>
        <CharString name="aogonek">
          -5 -195 24 161 24 261 22 189 24 hstem
          45 24 143 24 67 24 vstem
          303 287 rmoveto
          7 -24 -33 3 -34 hhcurveto
          -83 -84 -19 -143 -127 66 -18 67 29 25 2 5 20 hvcurveto
          -21 -28 -19 -37 -40 vvcurveto
          -56 24 -31 46 22 19 5 13 2 -1 3 -1 3 vhcurveto
          -1 3 -1 2 -2 2 rrcurveto
          -6 -12 -8 -3 -14 hhcurveto
          -34 -13 21 42 48 28 49 57 39 hvcurveto
          3 80 3 101 114 vvcurveto
          66 vlineto
          90 -44 31 -74 -69 -68 -12 -12 -23 vhcurveto
          -4 -2 -1 -4 -7 vvcurveto
          -5 1 -3 3 -5 vhcurveto
          12 23 57 14 76 hhcurveto
          56 43 -15 -86 hvcurveto
          -86 -110 rmoveto
          25 36 -4 -7 25 hvcurveto
          -77 -2 -91 -4 -53 vhcurveto
          -12 -14 -41 -17 -45 hhcurveto
          -65 -63 2 120 129 73 10 75 hvcurveto
          endchar
        </CharString>
        <CharString name="apple">
          452 -10 134 206 38 206 136 hstem
          60 213 41 54 122 88 38 164 vstem
          420 710 rmoveto
          -218 -142 -142 -218 -218 142 -142 218 218 142 142 218 218 -142 142 -218 hvcurveto
          -106 -294 rmoveto
          -12 3 0 2 vhcurveto
          5 4 1 5 hhcurveto
          10 7 -7 -10 -10 -6 -10 -15 hvcurveto
          -16 -4 5 -13 -16 -2 -21 hflex
          -14 -7 10 10 10 8 7 10 hvcurveto
          6 3 -1 5 hhcurveto
          1 4 0 12 hvcurveto
          112 vlineto
          12 -4 0 -1 vhcurveto
          -4 -5 -1 -5 hhcurveto
          -10 -8 9 8 10 7 8 16 hvcurveto
          12 8 -3 16 14 8 12 hflex
          15 6 -8 -10 -10 -9 -7 -8 hvcurveto
          -5 -3 1 -6 hhcurveto
          -2 -3 0 -12 hvcurveto
          115 51 rmoveto
          28 24 -17 -27 15 hvcurveto
          27 15 23 17 29 hhcurveto
          34 28 -23 -40 -44 -30 -25 -36 -29 hvcurveto
          -21 -18 -23 -19 -19 -25 -19 25 -23 19 -21 17 rrcurveto
          -35 30 -30 25 44 vvcurveto
          40 27 23 34 vhcurveto
          194 -285 rmoveto
          -7 0 -10 -2 hvcurveto
          -118 vlineto
          -22 -5 -22 -22 -15 -8 9 15 -8 vhcurveto
          -68 123 rlineto
          -97 vlineto
          -13 4 0 2 vhcurveto
          3 6 2 4 hhcurveto
          11 6 -7 -11 -8 -5 -9 -16 hvcurveto
          -10 -8 4 -15 -14 -13 -10 hflex
          -15 -5 9 9 10 7 7 10 hvcurveto
          4 6 -2 3 hhcurveto
          2 4 0 12 hvcurveto
          113 vlineto
          12 -4 1 -2 vhcurveto
          -3 -3 -1 -7 hhcurveto
          -7 0 -5 5 -3 4 -2 -4 -5 -5 -9 0 50 flex
          -6 0 1 -7 hhcurveto
          -1 -1 0 -3 -2 hvcurveto
          -58 -91 rlineto
          -36 vlineto
          -5 2 -3 4 vhcurveto
          3 4 3 8 hhcurveto
          11 5 -8 -10 -9 -5 -9 -17 hvcurveto
          -14 -9 4 -13 -13 -8 -14 hflex
          -15 -6 9 8 11 7 8 11 hvcurveto
          6 1 -3 6 hhcurveto
          2 4 3 5 hvcurveto
          34 vlineto
          -58 94 rlineto
          -1 1 -3 0 -1 -4 -2 -1 -4 hflex1
          -15 -6 8 10 12 8 7 12 hvcurveto
          12 11 -4 12 12 6 13 hflex
          15 5 -10 -9 -8 -4 -9 -18 hvcurveto
          -2 hlineto
          34 -55 3 6 4 7 4 7 rlinecurve
          7 13 8 14 4 8 rrcurveto
          -3 -1 -2 0 0 vvcurveto
          -15 0 -4 8 0 10 0 12 6 7 13 0 50 flex
          8 12 -3 12 11 15 10 hflex
          8 0 6 -5 3 -6 2 6 6 5 9 0 50 flex
          5 9 -2 12 11 7 8 hflex
          15 3 -7 -5 1 hvcurveto
          2 -6 70 -128 rlineto
          98 vlineto
          3 0 9 -11 vhcurveto
          -8 hlineto
          -11 -7 8 9 8 6 11 16 hvcurveto
          11 8 -3 13 11 10 11 hflex
          15 5 -10 -9 -9 -5 -8 -14 hvcurveto
          endchar
        </CharString>
        <CharString name="approxequal">
          12 176 24 32 24 40 24 32 24 hstem
          14 373 vstem
          14 314 rmoveto
          -7 3 5 -5 5 hhcurveto
          3 3 2 3 3 hvcurveto
          17 13 27 28 46 hhcurveto
          26 19 -12 -13 19 hvcurveto
          -15 23 24 -16 41 hhcurveto
          53 29 24 24 19 hvcurveto
          5 6 3 6 4 5 rrcurveto
          7 -3 -6 5 -5 hhcurveto
          -4 -3 -2 -4 -3 hvcurveto
          -28 -18 -31 -19 -38 hhcurveto
          -34 -22 14 14 -21 hvcurveto
          14 -21 -20 14 -33 hhcurveto
          -62 -36 -40 -22 -13 hvcurveto
          -120 vmoveto
          -7 3 5 -5 5 hhcurveto
          3 3 2 3 3 hvcurveto
          16 11 30 29 45 hhcurveto
          26 19 -12 -13 19 hvcurveto
          -15 23 24 -16 41 hhcurveto
          66 29 38 27 18 hvcurveto
          7 -3 -6 5 -5 hhcurveto
          -4 -3 -2 -4 -3 hvcurveto
          -28 -18 -31 -19 -38 hhcurveto
          -34 -22 14 14 -21 hvcurveto
          14 -21 -20 14 -33 hhcurveto
          -62 -36 -40 -22 -13 hvcurveto
          endchar
        </CharString>
        <CharString name="aring">
          -5 -10 24 261 22 189 24 57 24 119 24 hstem
          45 24 34 24 116 24 36 24 vstem
          103 650 rmoveto
          -62 32 -21 47 53 32 29 54 62 -26 22 -52 -52 -34 -27 -57 vhcurveto
          24 -3 rmoveto
          48 23 15 40 34 19 -14 -45 -41 -22 -19 -39 -36 -19 21 35 vhcurveto
          200 -258 rmoveto
          90 -44 31 -74 -69 -68 -12 -12 -23 vhcurveto
          -4 -2 -1 -4 -7 vvcurveto
          -5 1 -3 3 -5 vhcurveto
          12 23 57 14 76 hhcurveto
          56 43 -15 -86 hvcurveto
          -98 vlineto
          7 -24 -33 3 -34 hhcurveto
          -83 -84 -19 -143 -135 74 -12 71 2 hvcurveto
          75 40 28 10 16 hvcurveto
          3 80 3 101 114 vvcurveto
          -24 -59 rmoveto
          -77 -2 -91 -4 -53 vhcurveto
          -12 -14 -41 -17 -45 hhcurveto
          -65 -63 2 120 129 73 10 75 25 36 -4 -7 25 hvcurveto
          endchar
        </CharString>
        <CharString name="asciicircum">
          42 218 155 hstem
          68 290 vstem
          215 342 rmoveto
          129 -124 rlineto
          8 1 6 6 7 vvcurveto
          3 -1 3 -4 4 vhcurveto
          -137 131 -148 -141 rlineto
          -8 1 4 -6 7 hhcurveto
          4 4 2 9 10 hvcurveto
          endchar
        </CharString>
        <CharString name="asciitilde">
          12 236 24 32 24 hstem
          14 373 vstem
          14 254 rmoveto
          -7 3 5 -5 5 hhcurveto
          3 3 2 3 3 hvcurveto
          16 11 30 29 45 hhcurveto
          26 19 -12 -13 19 hvcurveto
          -15 23 24 -16 41 hhcurveto
          66 29 38 27 18 hvcurveto
          7 -3 -6 5 -5 hhcurveto
          -4 -3 -2 -4 -3 hvcurveto
          -28 -18 -31 -19 -38 hhcurveto
          -34 -22 14 14 -21 hvcurveto
          14 -21 -20 14 -33 hhcurveto
          -62 -36 -40 -22 -13 hvcurveto
          endchar
        </CharString>
        <CharString name="asterisk">
          85 427 7 hstem
          218 23 vstem
          249 675 rmoveto
          4 -7 -6 1 -5 hhcurveto
          -8 -5 -3 -4 hvcurveto
          8 -179 rlineto
          10 -2 5 3 6 vvcurveto
          -190 52 rmoveto
          -10 5 -16 -18 1 -14 167 -59 rcurveline
          6 -2 4 5 6 vvcurveto
          1 -1 2 1 vvcurveto
          69 5 rmoveto
          -5 -2 -3 -4 -4 vvcurveto
          -4 2 -4 3 -3 vhcurveto
          174 58 rlineto
          4 1 2 4 4 vvcurveto
          8 -6 10 -7 3 vhcurveto
          -90 -295 rmoveto
          16 3 12 13 -6 8 -110 155 rcurveline
          -6 -2 -4 -3 -4 vvcurveto
          -1 0 -2 1 -1 vhcurveto
          -163 -137 rmoveto
          -8 3 9 -11 8 hhcurveto
          3 2 1 3 2 hvcurveto
          107 156 rlineto
          3 -2 -4 4 -4 hhcurveto
          -2 -2 -1 -2 -2 hvcurveto
          endchar
        </CharString>
        <CharString name="at">
          385 -188 22 167 21 263 21 162 24 173 22 hstem
          60 23 167 22 214 25 182 22 vstem
          515 371 rmoveto
          90 3 -42 31 -77 hhcurveto
          -59 -36 -8 -13 -24 hvcurveto
          -7 -5 -2 -3 -6 vvcurveto
          -7 1 -3 2 -4 vhcurveto
          17 30 38 8 48 hhcurveto
          62 44 -17 -84 -3 hvcurveto
          -3 -66 rlineto
          4 -18 -23 1 -23 hhcurveto
          -99 -77 -33 -137 -112 53 -23 65 hvcurveto
          6 hlineto
          64 1 38 18 16 10 rrcurveto
          -14 12 23 -13 28 hhcurveto
          30 130 10 336 234 -90 104 -208 -208 -149 -107 -315 -427 159 -26 184 144 95 53 8 11 -7 13 0 hvcurveto
          -26 -42 -67 -37 -125 hhcurveto
          -172 -146 31 398 297 138 105 194 196 82 -96 -217 -310 -113 -17 -25 -22 -17 9 18 -14 hvcurveto
          2 15 1 25 2 47 rrcurveto
          -25 -83 rmoveto
          -14 -1 -56 -20 -42 hhcurveto
          -58 -53 13 101 119 67 30 84 19 28 -2 -4 20 hvcurveto
          endchar
        </CharString>
        <CharString name="atilde">
          -5 -10 24 261 22 189 24 84 25 34 21 hstem
          45 24 234 24 vstem
          47 614 rmoveto
          0 9 -14 7 vhcurveto
          9 17 53 42 34 7 -59 61 hhcurveto
          56 20 34 28 14 hvcurveto
          0 -6 15 -9 vhcurveto
          -9 -10 -52 -56 -46 -2 55 -48 hhcurveto
          -35 -24 -9 -51 -31 hvcurveto
          280 -225 rmoveto
          90 -44 31 -74 -69 -68 -12 -12 -23 vhcurveto
          -4 -2 -1 -4 -7 vvcurveto
          -5 1 -3 3 -5 vhcurveto
          12 23 57 14 76 hhcurveto
          56 43 -15 -86 hvcurveto
          -98 vlineto
          7 -24 -33 3 -34 hhcurveto
          -83 -84 -19 -143 -135 74 -12 71 2 hvcurveto
          75 40 28 10 16 hvcurveto
          3 80 3 101 114 vvcurveto
          -24 -59 rmoveto
          -77 -2 -91 -4 -53 vhcurveto
          -12 -14 -41 -17 -45 hhcurveto
          -65 -63 2 120 129 73 10 75 25 36 -4 -7 25 hvcurveto
          endchar
        </CharString>
        <CharString name="b">
          34 -10 24 472 24 225 -20 hstem
          70 24 262 24 vstem
          70 20 rmoveto
          -20 26 37 -10 52 hhcurveto
          79 116 36 298 140 -58 45 -82 1 hvcurveto
          -67 -42 -18 -29 -37 hvcurveto
          272 vlineto
          -17 -7 0 -15 hvcurveto
          24 -287 rmoveto
          37 39 46 16 52 hhcurveto
          85 40 -40 -135 -267 -105 -30 -65 -50 -28 12 11 -14 hvcurveto
          endchar
        </CharString>
        <CharString name="backslash">
          -115 -30 795 hstem
          10 253 vstem
          33 765 rmoveto
          -16 -7 0 -6 hvcurveto
          -1 1 -1 -2 vvcurveto
          229 -785 rlineto
          14 9 0 6 hvcurveto
          1 -1 1 1 vvcurveto
          endchar
        </CharString>
        <CharString name="bar">
          1 -179 -21 hstem
          183 23 vstem
          206 815 rmoveto
          -19 -4 0 -10 hvcurveto
          -1005 vlineto
          16 7 0 9 hvcurveto
          endchar
        </CharString>
        <CharString name="becy">
          20 -10 24 472 24 226 -20 hstem
          45 24 275 24 vstem
          323 695 rmoveto
          28 9 8 3 1 7 1 5 -3 9 -3 8 -183 -63 rcurveline
          -94 -32 -33 -74 -171 vvcurveto
          -122 vlineto
          -215 39 -69 115 107 62 82 182 176 -48 80 -107 -85 -34 -47 -67 -26 vhcurveto
          -1 161 30 64 89 29 rrcurveto
          26 -164 rmoveto
          91 41 -79 -171 -138 -57 -84 -85 -95 -38 72 179 134 50 87 93 hvcurveto
          endchar
        </CharString>
        <CharString name="braceleft">
          -92 719 25 hstem
          118 24 vstem
          273 744 rmoveto
          -90 -65 -25 -90 -34 3 -33 4 -33 hvcurveto
          3 -35 4 -36 -41 vvcurveto
          -70 -23 -11 -32 -18 vhcurveto
          -8 -4 -4 -6 -9 vvcurveto
          -3 0 -6 2 -5 vhcurveto
          36 -7 29 -18 -57 vvcurveto
          -45 -4 -39 -3 -36 vhcurveto
          -4 -34 -3 -33 -34 vvcurveto
          -105 47 -28 98 8 3 5 7 3 -1 3 -1 4 vhcurveto
          -82 6 -48 0 108 vvcurveto
          29 3 29 3 32 vhcurveto
          4 39 4 43 52 vvcurveto
          58 -26 23 -40 12 vhcurveto
          37 15 29 28 73 vvcurveto
          50 -4 43 -4 38 vhcurveto
          -3 28 -3 25 23 vvcurveto
          79 52 13 72 2 vhcurveto
          6 5 4 7 5 -1 5 -3 4 hvcurveto
          endchar
        </CharString>
        <CharString name="braceright">
          -92 -151 25 848 22 hstem
          154 24 vstem
          23 -151 rmoveto
          90 65 25 90 34 -3 33 -4 33 hvcurveto
          -3 35 -4 36 41 vvcurveto
          70 23 11 32 18 vhcurveto
          8 4 4 6 9 vvcurveto
          3 0 6 -2 5 vhcurveto
          -36 7 -29 18 57 vvcurveto
          45 4 39 3 36 vhcurveto
          4 34 3 33 34 vvcurveto
          105 -47 28 -98 -8 -3 -5 -7 -3 1 -3 1 -4 vhcurveto
          82 -6 48 0 -108 vvcurveto
          -29 -3 -29 -3 -32 vhcurveto
          -4 -39 -4 -43 -52 vvcurveto
          -58 26 -23 40 -12 vhcurveto
          -37 -15 -29 -28 -73 vvcurveto
          -50 4 -43 4 -38 vhcurveto
          3 -28 3 -25 -23 vvcurveto
          -79 -52 -13 -72 -2 vhcurveto
          -6 -5 -4 -7 -5 1 -5 3 -4 hvcurveto
          endchar
        </CharString>
        <CharString name="bracketleft">
          62 -197 23 975 20 hstem
          183 23 vstem
          203 821 rmoveto
          -15 -5 -2 -11 hvcurveto
          -1005 235 vlineto
          11 8 0 23 hvcurveto
          -231 975 215 hlineto
          17 1 2 18 hvcurveto
          endchar
        </CharString>
        <CharString name="bracketright">
          62 -200 20 979 23 hstem
          244 23 vstem
          247 -200 rmoveto
          15 5 2 11 hvcurveto
          1009 -235 vlineto
          -11 -8 0 -23 hvcurveto
          231 -979 -215 hlineto
          -17 -1 -2 -18 hvcurveto
          endchar
        </CharString>
        <CharString name="breve">
          -138 585 24 98 -20 hstem
          11 229 vstem
          30 707 rmoveto
          -10 -1 -9 -2 -10 vvcurveto
          -18 36 -91 78 73 30 67 41 12 vhcurveto
          7 -1 -7 5 -6 hhcurveto
          -5 -4 -2 -6 -2 hvcurveto
          -38 -14 -19 -50 -56 hhcurveto
          -59 -25 62 36 -12 hvcurveto
          endchar
        </CharString>
        <CharString name="breve.cyr">
          -139 586 21 100 -20 hstem
          0 24 vstem
          24 707 rmoveto
          -10 -1 -14 -2 -9 vvcurveto
          -1 vlineto
          -35 3 28 -73 93 hhcurveto
          75 29 43 64 21 hvcurveto
          7 -1 -9 6 -8 hhcurveto
          -6 -4 -3 -6 -2 hvcurveto
          -59 -17 -18 -31 -59 hhcurveto
          -69 -25 57 43 -7 hvcurveto
          endchar
        </CharString>
        <CharString name="brokenbar">
          -164 -174 -21 937 -20 hstem
          100 24 vstem
          124 740 rmoveto
          2 -5 -5 0 -2 hhcurveto
          -9 -3 -4 -6 hvcurveto
          -396 vlineto
          -2 5 5 0 2 hhcurveto
          9 3 2 6 hvcurveto
          -123 vmoveto
          2 -5 -5 0 -2 hhcurveto
          -9 -3 -4 -6 hvcurveto
          -406 vlineto
          -2 5 5 0 2 hhcurveto
          9 3 2 6 hvcurveto
          endchar
        </CharString>
        <CharString name="bullet">
          -186 228 102 hstem
          63 93 vstem
          63 280 rmoveto
          -30 17 -22 28 28 20 22 30 27 -20 23 -28 -28 -17 -23 -27 vhcurveto
          endchar
        </CharString>
        <CharString name="bulletoperator">
          -186 228 102 hstem
          63 93 vstem
          63 280 rmoveto
          -30 17 -22 28 28 20 22 30 27 -20 23 -28 -28 -17 -23 -27 vhcurveto
          endchar
        </CharString>
        <CharString name="c">
          -36 -10 23 473 24 hstem
          50 24 vstem
          316 476 rmoveto
          16 -41 18 -43 -81 -101 -31 -240 -219 69 -30 82 69 48 29 16 6 -2 7 -4 5 vhcurveto
          -19 -18 -37 -21 -52 hhcurveto
          -75 -56 32 189 227 86 25 65 40 29 -15 -13 16 hvcurveto
          4 5 2 9 4 vvcurveto
          endchar
        </CharString>
        <CharString name="cacute">
          -36 -10 23 473 24 hstem
          50 24 vstem
          137 579 rmoveto
          76 53 66 57 0 vvcurveto
          0 -5 23 -8 vhcurveto
          0 -73 -55 -66 -62 vhcurveto
          10 -16 rlineto
          179 -103 rmoveto
          16 -41 18 -43 -81 -101 -31 -240 -219 69 -30 82 69 48 29 16 6 -2 7 -4 5 vhcurveto
          -19 -18 -37 -21 -52 hhcurveto
          -75 -56 32 189 227 86 25 65 40 29 -15 -13 16 hvcurveto
          4 5 2 9 4 vvcurveto
          endchar
        </CharString>
        <CharString name="caron">
          -138 586 136 hstem
          10 230 vstem
          133 586 rmoveto
          11 96 112 8 6 -5 5 -7 5 hvcurveto
          0 -54 -60 -42 -51 vhcurveto
          0 -97 105 -8 -9 -8 -14 0 0 110 -116 13 vhcurveto
          endchar
        </CharString>
        <CharString name="ccaron">
          -36 -10 23 473 24 hstem
          50 24 vstem
          211 586 rmoveto
          11 96 112 8 6 -5 5 -7 5 hvcurveto
          0 -54 -60 -42 -51 vhcurveto
          0 -97 105 -8 -9 -8 -14 0 0 110 -116 13 vhcurveto
          105 -110 rmoveto
          16 -41 18 -43 -81 -101 -31 -240 -219 69 -30 82 69 48 29 16 6 -2 7 -4 5 vhcurveto
          -19 -18 -37 -21 -52 hhcurveto
          -75 -56 32 189 227 86 25 65 40 29 -15 -13 16 hvcurveto
          4 5 2 9 4 vvcurveto
          endchar
        </CharString>
        <CharString name="ccedilla">
          -36 -177 23 74 21 49 23 473 24 hstem
          50 24 178 24 vstem
          180 -85 rmoveto
          0 19 5 16 18 19 -4 -32 -30 -19 -8 -19 vhcurveto
          -16 -14 8 -8 hhcurveto
          -10 -1 -25 0 0 23 -6 26 26 36 11 56 37 -25 14 -22 -12 -7 -2 0 hvcurveto
          11 52 rlineto
          58 5 39 25 14 vvcurveto
          6 -2 7 -4 5 vhcurveto
          -19 -18 -37 -21 -52 hhcurveto
          -75 -56 32 189 227 86 25 65 40 29 -15 -13 16 hvcurveto
          4 5 2 9 4 vvcurveto
          16 -41 18 -43 -81 -101 -31 -240 -214 66 -34 80 -1 vhcurveto
          endchar
        </CharString>
        <CharString name="cedilla">
          -138 -177 23 74 21 hstem
          167 24 vstem
          139 3 rmoveto
          -25 hlineto
          -19 -88 rlineto
          0 19 5 16 18 19 -4 -32 -30 -19 -8 -19 vhcurveto
          -15 -14 8 -8 hhcurveto
          -11 -1 -25 0 0 23 -6 26 26 36 11 56 37 -25 14 -22 -12 -7 -2 0 hvcurveto
          endchar
        </CharString>
        <CharString name="cent">
          62 -10 23 472 24 hstem
          101 26 112 21 vstem
          278 652 rmoveto
          -17 -5 -2 -13 hvcurveto
          -129 vlineto
          -75 -8 -80 -50 -229 vvcurveto
          -201 57 -26 81 -4 vhcurveto
          -138 vlineto
          19 2 3 12 hvcurveto
          123 4 vlineto
          57 48 33 12 6 -2 7 -4 5 hvcurveto
          -20 -24 -31 -20 -42 hhcurveto
          -85 -54 14 190 238 84 30 74 41 15 -12 -15 20 hvcurveto
          4 5 2 9 7 vvcurveto
          10 -41 20 -43 vhcurveto
          -5 hlineto
          endchar
        </CharString>
        <CharString name="checy">
          -21 21 -21 200 23 277 -20 hstem
          35 24 216 24 vstem
          299 500 rmoveto
          -24 0 0 -10 hvcurveto
          -245 vlineto
          -14 -33 -40 -8 -32 hhcurveto
          -77 -34 33 85 hvcurveto
          159 vlineto
          -24 0 0 -10 hvcurveto
          -157 vlineto
          -94 47 -39 86 33 40 8 12 34 vhcurveto
          -220 vlineto
          24 0 0 10 hvcurveto
          endchar
        </CharString>
        <CharString name="circumflex">
          -138 675 24 hstem
          11 228 vstem
          11 594 rmoveto
          0 5 -13 14 6 92 94 0 vhcurveto
          89 -95 rlineto
          12 10 16 0 hvcurveto
          -96 96 rlineto
          5 -5 -5 2 -4 hhcurveto
          -4 -3 -1 -1 -1 hvcurveto
          endchar
        </CharString>
        <CharString name="colon">
          -213 -4 61 299 61 hstem
          62 56 vstem
          62 387 rmoveto
          -18 10 -13 17 17 12 13 18 16 -12 14 -17 -17 -10 -14 -16 vhcurveto
          -360 vmoveto
          -18 10 -13 17 17 12 13 18 16 -12 14 -17 -17 -10 -14 -16 vhcurveto
          endchar
        </CharString>
        <CharString name="comma">
          -213 -115 173 hstem
          84 36 vstem
          69 30 rmoveto
          -13 7 -11 8 -5 vhcurveto
          1 -33 -10 -34 -22 -37 rrcurveto
          -5 1 7 -7 5 hhcurveto
          14 40 86 53 29 -10 5 -15 -16 -10 -11 -17 hvcurveto
          endchar
        </CharString>
        <CharString name="commaaccent">
          -388 -235 173 hstem
          115 36 vstem
          100 -90 rmoveto
          -13 7 -11 8 -5 vhcurveto
          1 -33 -10 -34 -22 -37 rrcurveto
          -5 1 7 -7 5 hhcurveto
          14 40 86 53 29 -10 5 -15 -16 -10 -11 -17 hvcurveto
          endchar
        </CharString>
        <CharString name="copyright">
          68 321 24 56 24 231 24 57 24 hstem
          42 23 81 25 221 23 vstem
          42 539 rmoveto
          -188 74 -30 114 115 70 75 143 171 -64 51 -117 -118 -74 -66 -156 vhcurveto
          23 -6 rmoveto
          149 68 55 103 95 61 -43 -152 -129 -65 -68 -105 -99 -58 41 147 vhcurveto
          223 131 rmoveto
          5 -25 11 -22 -42 -53 -14 -141 -115 35 -9 50 30 28 17 6 3 -6 11 -2 3 vhcurveto
          -8 -12 -17 -8 -18 hhcurveto
          -38 -25 10 90 116 40 15 35 17 7 -6 -6 10 hvcurveto
          2 1 6 16 3 vvcurveto
          endchar
        </CharString>
        <CharString name="currency">
          132 78 24 384 24 hstem
          68 22 340 22 vstem
          416 154 rmoveto
          23 36 13 47 57 vvcurveto
          56 -12 46 -21 36 vhcurveto
          74 74 7 7 -2 3 -15 15 rlinecurve
          -79 -79 rlineto
          38 -32 -46 20 -58 hhcurveto
          -64 -51 -21 -38 -34 hvcurveto
          -74 73 -7 7 -2 -2 -16 -16 rlinecurve
          83 -82 rlineto
          -23 -36 -12 -46 -55 vvcurveto
          -57 13 -48 23 -36 vhcurveto
          -76 -76 rlineto
          -3 -3 -1 -2 -2 vvcurveto
          -4 4 -5 10 -10 vhcurveto
          82 82 rlineto
          -36 32 47 -19 59 hhcurveto
          61 48 20 36 33 hvcurveto
          75 -75 7 -7 2 2 16 16 rlinecurve
          -244 32 rmoveto
          -104 -62 68 115 127 67 74 112 101 60 -69 -119 -124 -65 -72 -109 hvcurveto
          endchar
        </CharString>
        <CharString name="d">
          34 -10 24 472 24 225 -20 hstem
          50 24 253 25 vstem
          327 486 rmoveto
          18 -26 -29 6 -39 hhcurveto
          -99 -84 -84 -185 -226 73 -25 90 56 51 12 18 32 hvcurveto
          715 vlineto
          -17 -8 0 -15 hvcurveto
          -681 vmoveto
          -18 -28 -39 -7 -40 hhcurveto
          -85 1 -61 18 208 vvcurveto
          162 72 83 90 45 20 -7 -21 26 vhcurveto
          endchar
        </CharString>
        <CharString name="dagger">
          45 -5 7 480 24 194 -20 hstem
          207 24 vstem
          207 514 rmoveto
          -3 3 4 -1 3 hhcurveto
          5 4 2 5 hvcurveto
          5 183 rlineto
          5 -4 -5 2 -5 hhcurveto
          -8 -7 -5 -7 hvcurveto
          24 -229 rmoveto
          3 -3 -4 1 -3 hhcurveto
          -5 -4 -2 -5 hvcurveto
          -5 -461 rlineto
          -5 4 6 -2 5 hhcurveto
          7 7 5 7 hvcurveto
          -43 475 rmoveto
          3 3 1 4 3 vvcurveto
          5 -2 4 -5 vhcurveto
          -133 5 rlineto
          -5 -5 -2 -5 -5 vvcurveto
          -7 6 -7 6 vhcurveto
          188 24 rmoveto
          -3 -3 -1 -4 -3 vvcurveto
          -5 2 -4 5 vhcurveto
          133 -5 rlineto
          5 4 2 5 5 vvcurveto
          8 -5 7 -7 vhcurveto
          endchar
        </CharString>
        <CharString name="daggerdbl">
          45 -2 7 194 24 259 24 194 -20 hstem
          202 24 vstem
          207 514 rmoveto
          -3 3 4 -1 3 hhcurveto
          5 4 2 5 hvcurveto
          5 183 rlineto
          5 -4 -5 2 -5 hhcurveto
          -8 -7 -5 -7 hvcurveto
          24 -504 rmoveto
          3 -3 -4 1 -3 hhcurveto
          -5 -4 -2 -5 hvcurveto
          -5 -183 rlineto
          -5 4 5 -2 5 hhcurveto
          8 7 5 7 hvcurveto
          -43 472 rmoveto
          3 3 1 4 3 vvcurveto
          5 -2 4 -5 vhcurveto
          -133 5 rlineto
          -5 -5 -2 -5 -5 vvcurveto
          -7 6 -7 6 vhcurveto
          188 24 rmoveto
          -3 -3 -1 -4 -3 vvcurveto
          -5 2 -4 5 vhcurveto
          133 -5 rlineto
          5 4 2 5 5 vvcurveto
          8 -5 7 -7 vhcurveto
          -188 -302 rmoveto
          3 3 1 4 3 vvcurveto
          5 -2 4 -5 vhcurveto
          -133 5 rlineto
          -5 -4 -2 -5 -5 vvcurveto
          -8 5 -7 7 vhcurveto
          188 24 rmoveto
          -3 -3 -1 -4 -3 vvcurveto
          -5 2 -4 5 vhcurveto
          133 -5 rlineto
          5 5 2 5 5 vvcurveto
          7 -6 7 -6 vhcurveto
          -170 9 rmoveto
          -1 4 3 -1 3 hhcurveto
          7 4 4 8 hvcurveto
          218 vlineto
          2 -4 -4 1 -3 hhcurveto
          -6 -4 -4 -7 hvcurveto
          endchar
        </CharString>
        <CharString name="dcaron">
          63 -10 24 472 24 192 -20 53 -20 hstem
          50 24 253 25 69 36 vstem
          327 486 rmoveto
          18 -26 -29 6 -39 hhcurveto
          -99 -84 -84 -185 -226 73 -25 90 56 51 12 18 32 hvcurveto
          715 vlineto
          -17 -8 0 -15 hvcurveto
          79 -46 rmoveto
          -13 7 -11 8 -5 vhcurveto
          1 -33 -6 -64 -16 -37 rrcurveto
          -5 1 7 -7 5 hhcurveto
          14 30 116 53 29 -10 5 -15 -16 -10 -11 -17 hvcurveto
          -79 -635 rmoveto
          -18 -28 -39 -7 -40 hhcurveto
          -85 1 -61 18 208 vvcurveto
          162 72 83 90 45 20 -7 -21 26 vhcurveto
          endchar
        </CharString>
        <CharString name="dcroat">
          40 -10 24 472 24 103 25 hstem
          50 24 253 25 vstem
          352 638 rmoveto
          97 vlineto
          -17 -8 0 -15 hvcurveto
          -82 -122 vlineto
          -7 -3 -4 -8 -1 hvcurveto
          -4 0 -4 1 -5 vhcurveto
          132 -127 hlineto
          18 -26 -29 6 -39 hhcurveto
          -99 -84 -84 -185 -226 73 -25 90 56 51 12 18 32 hvcurveto
          593 73 vlineto
          7 3 4 8 1 hvcurveto
          4 0 4 -1 5 vhcurveto
          -108 -599 rmoveto
          -18 -28 -39 -7 -40 hhcurveto
          -85 1 -61 18 208 vvcurveto
          162 72 83 90 45 20 -7 -21 26 vhcurveto
          endchar
        </CharString>
        <CharString name="decy">
          31 0 24 452 24 hstem
          30 26 269 24 vstem
          400 24 rmoveto
          -51 476 -179 hlineto
          -22 -2 0 -8 hvcurveto
          -424 -28 -40 -44 -35 hhcurveto
          -13 -178 hlineto
          -6 11 0 5 vhcurveto
          10 64 0 67 29 vvcurveto
          318 hlineto
          -29 0 -67 10 -64 vhcurveto
          5 11 0 6 hvcurveto
          -75 630 rmoveto
          -452 -235 vlineto
          35 39 25 110 19 303 rrcurveto
          endchar
        </CharString>
        <CharString name="degree">
          -2 573 24 119 24 hstem
          113 24 116 24 vstem
          113 656 rmoveto
          -70 32 -13 47 53 32 29 54 62 -26 22 -52 -52 -34 -27 -57 vhcurveto
          24 -3 rmoveto
          48 23 15 40 34 19 -14 -45 -41 -22 -19 -39 -36 -19 15 41 vhcurveto
          endchar
        </CharString>
        <CharString name="dieresis">
          -138 614 56 hstem
          57 37 63 37 vstem
          76 670 rmoveto
          -13 -6 -10 -22 -15 5 -8 12 -1 hvcurveto
          15 5 10 20 17 -6 9 -12 hvcurveto
          100 hmoveto
          -13 -6 -10 -22 -15 5 -8 12 -1 hvcurveto
          15 5 10 20 17 -6 9 -12 hvcurveto
          endchar
        </CharString>
        <CharString name="divide">
          62 269 25 hstem
          194 56 vstem
          194 407 rmoveto
          -18 10 -13 17 17 12 13 18 16 -12 14 -17 -17 -10 -14 -16 vhcurveto
          197 -138 rmoveto
          10 0 3 22 hvcurveto
          -340 hlineto
          -10 0 -3 -22 hvcurveto
          143 -118 rmoveto
          -18 10 -13 17 17 12 13 18 16 -12 14 -17 -17 -10 -14 -16 vhcurveto
          endchar
        </CharString>
        <CharString name="divisionslash">
          -192 12 -21 719 -20 hstem
          -129 494 vstem
          365 697 rmoveto
          8 -3 -6 5 -5 hhcurveto
          -3 -3 -2 -3 -2 hvcurveto
          -472 -700 rlineto
          -8 7 -6 7 3 3 1 2 1 vhcurveto
          endchar
        </CharString>
        <CharString name="djecy">
          51 -171 23 169 -21 486 24 88 25 hstem
          70 24 251 24 vstem
          94 598 rmoveto
          160 hlineto
          7 3 4 8 1 hvcurveto
          4 0 4 -1 5 vhcurveto
          -170 112 hlineto
          -19 -5 0 -15 hvcurveto
          -97 -66 vlineto
          -7 -3 -4 -8 -1 hvcurveto
          -4 0 -4 1 -5 vhcurveto
          76 -598 hlineto
          23 1 0 10 hvcurveto
          420 vlineto
          43 43 61 13 41 hhcurveto
          85 21 -42 -120 hvcurveto
          -105 vlineto
          -264 -28 -103 -96 -22 -26 5 6 -28 vhcurveto
          -1 -4 -1 -7 -7 vvcurveto
          -9 54 -7 28 112 32 120 274 vhcurveto
          101 vlineto
          133 -2 -23 53 -109 hhcurveto
          -43 -52 -13 -34 -46 hvcurveto
          endchar
        </CharString>
        <CharString name="dollar">
          62 -7 24 576 24 119 -20 hstem
          86 23 103 21 117 23 vstem
          171 407 rmoveto
          -34 31 -28 35 31 vvcurveto
          62 51 27 76 58 38 -15 -12 17 vhcurveto
          5 3 4 12 6 vvcurveto
          2 -35 27 -77 1 vhcurveto
          119 vlineto
          -17 -5 -2 -13 hvcurveto
          -104 vlineto
          -87 -6 -51 -44 -60 vvcurveto
          -45 29 -35 43 -39 vhcurveto
          112 -95 rlineto
          59 -54 21 -39 -49 vvcurveto
          -77 -36 -57 -103 -67 -30 16 16 -18 vhcurveto
          -8 -2 -6 -10 -4 vvcurveto
          -8 37 -32 90 vhcurveto
          3 -114 hlineto
          19 2 3 12 hvcurveto
          100 vlineto
          101 8 39 63 86 vvcurveto
          56 -18 41 -58 52 vhcurveto
          endchar
        </CharString>
        <CharString name="dotaccent">
          -138 614 56 hstem
          107 37 vstem
          107 638 rmoveto
          -15 5 -8 12 -1 vhcurveto
          15 5 10 20 17 -6 9 -12 -13 -6 -10 -22 hvcurveto
          endchar
        </CharString>
        <CharString name="dotlessi">
          -222 21 -21 500 -20 hstem
          71 24 vstem
          95 500 rmoveto
          -19 -5 0 -15 hvcurveto
          -485 vlineto
          24 0 0 10 hvcurveto
          endchar
        </CharString>
        <CharString name="dotlessj">
          -209 -194 24 670 -20 hstem
          77 24 vstem
          101 500 rmoveto
          -19 -5 0 -15 hvcurveto
          -513 vlineto
          -90 -9 -52 -79 -53 -33 16 17 -22 vhcurveto
          -5 -7 -1 -5 -6 vvcurveto
          -15 42 -24 69 97 18 63 94 vhcurveto
          endchar
        </CharString>
        <CharString name="dzecy">
          7 -10 24 472 24 hstem
          54 24 240 24 vstem
          244 230 rmoveto
          50 -34 24 -34 -51 vvcurveto
          -68 -56 -29 -82 -58 -33 9 20 -31 vhcurveto
          -7 -5 -1 -6 -7 vvcurveto
          -14 47 -21 84 102 59 43 87 51 -27 38 -50 35 vhcurveto
          -127 77 rlineto
          -49 30 -11 22 30 vvcurveto
          54 61 29 76 50 34 -12 -25 37 vhcurveto
          6 7 3 6 5 vvcurveto
          11 -45 32 -85 -89 -72 -38 -70 -40 10 -27 65 -38 vhcurveto
          endchar
        </CharString>
        <CharString name="dzhecy">
          33 0 24 476 -20 hstem
          68 24 103 16 118 24 vstem
          353 500 rmoveto
          -24 0 0 -10 hvcurveto
          -466 -237 476 vlineto
          -24 0 0 -10 hvcurveto
          -490 119 vlineto
          8 -160 rlineto
          -4 16 0 10 vvcurveto
          2 154 rlineto
          116 hlineto
          24 0 0 11 hvcurveto
          endchar
        </CharString>
        <CharString name="e">
          2 -10 24 214 23 235 24 hstem
          47 24 257 24 vstem
          215 14 rmoveto
          -80 -64 17 186 hvcurveto
          11 33 vlineto
          54 103 2 16 84 hvcurveto
          5 30 2 39 39 vvcurveto
          91 -34 65 -91 -77 -103 -24 -265 -206 72 -25 97 70 62 27 15 4 -1 7 -4 8 vhcurveto
          -24 -30 -49 -13 -49 hhcurveto
          13 472 rmoveto
          78 20 -56 -88 2 hvcurveto
          -24 -1 -21 -3 -30 vhcurveto
          -13 -63 -94 -3 -55 hhcurveto
          -19 -14 1 -7 hhcurveto
          225 8 87 9 61 hhcurveto
          endchar
        </CharString>
        <CharString name="eacute">
          2 -10 24 214 39 219 24 hstem
          47 24 257 24 vstem
          271 689 rmoveto
          0 -5 23 -8 vhcurveto
          0 -73 -55 -66 -62 vhcurveto
          10 -16 rlineto
          76 53 66 57 0 vvcurveto
          -56 -675 rmoveto
          -80 -64 17 186 hvcurveto
          11 vlineto
          28 -1 138 -2 108 21 rrcurveto
          5 30 2 39 39 vvcurveto
          91 -34 65 -91 -77 -103 -24 -265 -206 72 -25 97 70 62 27 15 4 -1 7 -4 8 vhcurveto
          -24 -30 -49 -13 -49 hhcurveto
          13 472 rmoveto
          78 20 -56 -88 2 hvcurveto
          -24 -1 -21 -3 -30 vhcurveto
          -85 -18 -138 2 -29 1 rrcurveto
          225 8 87 9 61 hhcurveto
          endchar
        </CharString>
        <CharString name="ecaron">
          2 -10 24 214 39 219 24 hstem
          47 24 257 24 vstem
          203 586 rmoveto
          11 96 112 8 6 -5 5 -7 5 hvcurveto
          0 -54 -60 -42 -51 vhcurveto
          0 -97 105 -8 -9 -8 -14 0 0 110 -116 13 vhcurveto
          12 -572 rmoveto
          -80 -64 17 186 hvcurveto
          11 vlineto
          28 -1 138 -2 108 21 rrcurveto
          5 30 2 39 39 vvcurveto
          91 -34 65 -91 -77 -103 -24 -265 -206 72 -25 97 70 62 27 15 4 -1 7 -4 8 vhcurveto
          -24 -30 -49 -13 -49 hhcurveto
          13 472 rmoveto
          78 20 -56 -88 2 hvcurveto
          -24 -1 -21 -3 -30 vhcurveto
          -85 -18 -138 2 -29 1 rrcurveto
          225 8 87 9 61 hhcurveto
          endchar
        </CharString>
        <CharString name="ecircumflex">
          2 -10 24 214 39 219 24 165 24 hstem
          47 24 257 24 vstem
          81 594 rmoveto
          0 5 -13 14 6 92 94 0 vhcurveto
          89 -95 rlineto
          12 10 16 0 hvcurveto
          -96 96 rlineto
          5 -5 -5 2 -4 hhcurveto
          -4 -3 -1 -1 -1 hvcurveto
          24 -683 rmoveto
          -80 -64 17 186 hvcurveto
          11 vlineto
          28 -1 138 -2 108 21 rrcurveto
          5 30 2 39 39 vvcurveto
          91 -34 65 -91 -77 -103 -24 -265 -206 72 -25 97 70 62 27 15 4 -1 7 -4 8 vhcurveto
          -24 -30 -49 -13 -49 hhcurveto
          13 472 rmoveto
          78 20 -56 -88 2 hvcurveto
          -24 -1 -21 -3 -30 vhcurveto
          -85 -18 -138 2 -29 1 rrcurveto
          225 8 87 9 61 hhcurveto
          endchar
        </CharString>
        <CharString name="ecy">
          -54 -10 24 224 23 225 24 hstem
          40 24 vstem
          248 238 rmoveto
          23 -3 0 -10 vhcurveto
          -172 hlineto
          201 1 75 24 56 hhcurveto
          48 34 -19 -15 16 hvcurveto
          4 6 3 7 5 vvcurveto
          13 -44 27 -64 -59 -93 -20 -224 -232 81 -44 74 56 46 31 17 5 -2 6 -4 5 vhcurveto
          -17 -17 -35 -23 -42 hhcurveto
          -73 -56 44 180 -4 hvcurveto
          endchar
        </CharString>
        <CharString name="edieresis">
          2 -10 24 214 39 219 24 hstem
          47 24 257 24 vstem
          215 14 rmoveto
          -80 -64 17 186 hvcurveto
          11 vlineto
          28 -1 138 -2 108 21 rrcurveto
          5 30 2 39 39 vvcurveto
          91 -34 65 -91 -77 -103 -24 -265 -206 72 -25 97 70 62 27 15 4 -1 7 -4 8 vhcurveto
          -24 -30 -49 -13 -49 hhcurveto
          13 472 rmoveto
          78 20 -56 -88 2 hvcurveto
          -24 -1 -21 -3 -30 vhcurveto
          -85 -18 -138 2 -29 1 rrcurveto
          225 8 87 9 61 hhcurveto
          -84 128 rmoveto
          14 5 9 17 1 hvcurveto
          19 1 -6 11 -13 hhcurveto
          -12 -6 -9 -19 -1 hvcurveto
          -1 -17 5 -10 13 -1 rrcurveto
          100 hmoveto
          14 5 9 17 1 hvcurveto
          19 1 -6 11 -13 hhcurveto
          -12 -6 -9 -19 -1 hvcurveto
          -1 -17 5 -10 13 -1 rrcurveto
          endchar
        </CharString>
        <CharString name="edotaccent">
          2 -10 24 214 39 219 24 hstem
          47 24 257 24 vstem
          194 614 rmoveto
          14 5 9 17 1 hvcurveto
          19 1 -6 11 -13 hhcurveto
          -12 -6 -9 -19 -1 hvcurveto
          -1 -17 5 -10 13 -1 rrcurveto
          21 -600 rmoveto
          -80 -64 17 186 hvcurveto
          11 vlineto
          28 -1 138 -2 108 21 rrcurveto
          5 30 2 39 39 vvcurveto
          91 -34 65 -91 -77 -103 -24 -265 -206 72 -25 97 70 62 27 15 4 -1 7 -4 8 vhcurveto
          -24 -30 -49 -13 -49 hhcurveto
          13 472 rmoveto
          78 20 -56 -88 2 hvcurveto
          -24 -1 -21 -3 -30 vhcurveto
          -85 -18 -138 2 -29 1 rrcurveto
          225 8 87 9 61 hhcurveto
          endchar
        </CharString>
        <CharString name="efcy">
          121 -177 -21 188 24 472 24 225 -20 hstem
          40 24 179 24 178 24 vstem
          267 735 rmoveto
          -17 -7 -5 -14 hvcurveto
          -206 vlineto
          -148 -6 -55 -71 -185 vvcurveto
          -188 55 -70 148 vhcurveto
          -188 9 vlineto
          11 4 3 7 hvcurveto
          178 vlineto
          147 7 55 70 181 vvcurveto
          190 -55 71 -147 1 vhcurveto
          -24 -496 rmoveto
          -133 1 -46 62 164 vvcurveto
          172 46 66 133 7 vhcurveto
          24 hmoveto
          132 -1 46 -64 -169 vvcurveto
          -167 -46 -65 -132 -6 vhcurveto
          endchar
        </CharString>
        <CharString name="egrave">
          2 -10 24 214 39 219 24 hstem
          47 24 257 24 vstem
          271 595 rmoveto
          -66 62 -73 55 0 vvcurveto
          -8 -5 -23 0 0 66 -57 76 -53 hvcurveto
          10 16 rlineto
          -56 -581 rmoveto
          -80 -64 17 186 hvcurveto
          11 vlineto
          28 -1 138 -2 108 21 rrcurveto
          5 30 2 39 39 vvcurveto
          91 -34 65 -91 -77 -103 -24 -265 -206 72 -25 97 70 62 27 15 4 -1 7 -4 8 vhcurveto
          -24 -30 -49 -13 -49 hhcurveto
          13 472 rmoveto
          78 20 -56 -88 2 hvcurveto
          -24 -1 -21 -3 -30 vhcurveto
          -85 -18 -138 2 -29 1 rrcurveto
          225 8 87 9 61 hhcurveto
          endchar
        </CharString>
        <CharString name="eight">
          62 -9 23 668 24 hstem
          49 24 303 23 vstem
          337 331 rmoveto
          -22 18 -25 14 -26 12 rrcurveto
          61 30 74 52 88 vvcurveto
          142 -104 19 -65 -90 -84 -50 -115 -49 22 -50 49 -31 vhcurveto
          18 -12 23 -10 25 -10 rrcurveto
          -76 -30 -68 -76 -94 vvcurveto
          -113 62 -75 124 116 58 68 121 77 -31 41 -41 33 vhcurveto
          -258 211 rmoveto
          99 73 41 78 58 88 -13 -125 -72 -70 -55 -72 -29 vhcurveto
          -9 4 -9 3 -9 4 -23 9 -19 8 -13 8 rrcurveto
          -54 34 -19 39 45 vvcurveto
          156 -528 rmoveto
          -110 -52 72 92 88 70 76 82 24 hvcurveto
          33 -14 32 -14 23 -19 rrcurveto
          40 -32 34 -39 -69 vvcurveto
          -97 -52 -68 -100 vhcurveto
          endchar
        </CharString>
        <CharString name="elcy">
          3 -3 20 459 24 hstem
          299 24 vstem
          323 500 rmoveto
          -178 hlineto
          -21 -2 0 -8 hvcurveto
          -26 -329 -16 -143 -79 -3 rrcurveto
          -1 -3 0 -3 -2 vvcurveto
          -10 7 -2 7 85 22 168 311 24 vhcurveto
          154 -476 hlineto
          23 1 0 8 hvcurveto
          endchar
        </CharString>
        <CharString name="ellipsis">
          60 -4 61 hstem
          53 56 86 56 86 56 vstem
          53 27 rmoveto
          -18 10 -13 17 17 12 13 18 16 -12 14 -17 -17 -10 -14 -16 vhcurveto
          142 hmoveto
          -18 10 -13 17 17 12 13 18 16 -12 14 -17 -17 -10 -14 -16 vhcurveto
          142 hmoveto
          -18 10 -13 17 17 12 13 18 16 -12 14 -17 -17 -10 -14 -16 vhcurveto
          endchar
        </CharString>
        <CharString name="emacron">
          2 -10 24 214 39 219 24 113 25 hstem
          47 24 257 24 vstem
          305 623 rmoveto
          7 3 4 8 1 hvcurveto
          4 0 4 -1 5 vhcurveto
          -230 hlineto
          -7 -3 -4 -8 -1 hvcurveto
          -4 0 -4 1 -5 vhcurveto
          140 -609 rmoveto
          -80 -64 17 186 hvcurveto
          11 vlineto
          28 -1 138 -2 108 21 rrcurveto
          5 30 2 39 39 vvcurveto
          91 -34 65 -91 -77 -103 -24 -265 -206 72 -25 97 70 62 27 15 4 -1 7 -4 8 vhcurveto
          -24 -30 -49 -13 -49 hhcurveto
          13 472 rmoveto
          78 20 -56 -88 2 hvcurveto
          -24 -1 -21 -3 -30 vhcurveto
          -85 -18 -138 2 -29 1 rrcurveto
          225 8 87 9 61 hhcurveto
          endchar
        </CharString>
        <CharString name="emcy">
          102 21 -21 99 24 371 7 hstem
          68 24 307 23 vstem
          68 hmoveto
          22 2 0 3 hvcurveto
          4 vlineto
          193 vlineto
          1 5 -1 46 83 vvcurveto
          31 -1 35 40 vvcurveto
          29 -58 58 -146 -1 vvcurveto
          55 -136 rlineto
          15 hlineto
          5 5 2 5 1 hvcurveto
          57 129 1 2 9 24 13 32 rlinecurve
          20 51 28 71 15 35 rrcurveto
          -3 -172 0 -74 -12 vvcurveto
          -192 vlineto
          21 2 0 3 hvcurveto
          4 vlineto
          494 -15 vlineto
          -10 -1 -6 -1 hvcurveto
          -98 -237 -10 -22 -24 -60 -18 -52 rlinecurve
          0 -31 87 -2 vhcurveto
          -120 291 rlineto
          -14 hlineto
          -11 0 -7 0 hvcurveto
          endchar
        </CharString>
        <CharString name="emdash">
          312 269 25 hstem
          6 688 vstem
          684 269 rmoveto
          10 0 3 22 hvcurveto
          -678 hlineto
          -10 0 -3 -22 hvcurveto
          endchar
        </CharString>
        <CharString name="ency">
          36 21 -21 237 24 239 -20 hstem
          68 24 240 24 vstem
          356 500 rmoveto
          -24 0 0 -10 hvcurveto
          -229 -240 239 vlineto
          -24 0 0 -10 hvcurveto
          -490 vlineto
          24 0 0 10 hvcurveto
          227 240 -237 vlineto
          24 0 0 10 hvcurveto
          endchar
        </CharString>
        <CharString name="endash">
          62 269 25 hstem
          50 350 vstem
          390 269 rmoveto
          10 0 3 22 hvcurveto
          -340 hlineto
          -10 0 -3 -22 hvcurveto
          endchar
        </CharString>
        <CharString name="endescendercy">
          38 0 24 213 24 239 -20 hstem
          68 24 240 24 vstem
          407 24 rmoveto
          -51 476 hlineto
          -24 0 0 -10 hvcurveto
          -229 -240 239 vlineto
          -24 0 0 -10 hvcurveto
          -490 vlineto
          24 0 0 10 hvcurveto
          227 240 -237 49 vlineto
          -29 0 -67 10 -64 vhcurveto
          5 11 0 6 hvcurveto
          endchar
        </CharString>
        <CharString name="eogonek">
          2 -195 24 161 24 214 23 235 24 hstem
          47 24 169 24 64 24 vstem
          227 510 rmoveto
          -77 -103 -24 -265 -206 72 -25 97 25 25 4 5 20 hvcurveto
          -23 -30 -23 -43 -44 vvcurveto
          -50 24 -27 46 22 19 5 13 2 -1 3 -1 3 vhcurveto
          -1 3 -1 2 -2 2 rrcurveto
          -6 -12 -8 -3 -14 hhcurveto
          -34 -13 18 35 52 34 58 35 24 hvcurveto
          5 4 10 7 5 vvcurveto
          4 -1 7 -4 8 vhcurveto
          -24 -30 -49 -13 -49 hhcurveto
          -78 -66 13 201 hvcurveto
          33 hlineto
          54 103 2 16 84 hvcurveto
          5 30 2 39 39 vvcurveto
          91 -34 65 -91 vhcurveto
          1 -24 rmoveto
          78 20 -56 -88 2 hvcurveto
          -24 -1 -21 -3 -30 vhcurveto
          -13 -63 -94 -3 -55 hhcurveto
          -19 -14 1 -7 hhcurveto
          225 8 87 9 61 hhcurveto
          endchar
        </CharString>
        <CharString name="equal">
          62 189 25 135 25 hstem
          51 350 vstem
          391 349 rmoveto
          10 0 3 22 hvcurveto
          -340 hlineto
          -10 0 -3 -22 hvcurveto
          340 -160 rmoveto
          10 0 3 22 hvcurveto
          -340 hlineto
          -10 0 -3 -22 hvcurveto
          endchar
        </CharString>
        <CharString name="ercy">
          31 -174 -21 185 24 472 24 hstem
          70 24 261 24 vstem
          70 -188 rmoveto
          -6 4 -3 7 4 4 1 1 5 vhcurveto
          230 vlineto
          -20 13 40 -25 50 hhcurveto
          60 122 32 272 164 -61 52 -106 -55 -43 -13 -28 -44 hvcurveto
          24 -15 rmoveto
          21 33 38 11 46 hhcurveto
          93 51 -43 -162 -242 -109 -24 -51 -1 hvcurveto
          -37 -41 20 41 -23 hvcurveto
          endchar
        </CharString>
        <CharString name="ereversedcy">
          -42 -10 24 224 23 225 24 hstem
          282 24 vstem
          98 261 rmoveto
          -8 -1 -3 -20 hvcurveto
          193 hlineto
          -180 -4 -50 -44 -82 hhcurveto
          -41 -35 20 20 -24 hvcurveto
          -4 -5 -2 -8 -6 vvcurveto
          -15 49 -30 59 94 64 44 232 224 -94 20 -59 -67 -49 -27 -10 -7 2 -9 5 -5 vhcurveto
          15 19 36 19 51 hhcurveto
          53 79 -24 -201 1 hvcurveto
          endchar
        </CharString>
        <CharString name="escy">
          -36 -10 23 473 24 hstem
          50 24 vstem
          316 476 rmoveto
          16 -41 18 -43 -81 -101 -31 -240 -219 69 -30 82 69 48 29 16 6 -2 7 -4 5 vhcurveto
          -19 -18 -37 -21 -52 hhcurveto
          -75 -56 32 189 227 86 25 65 40 29 -15 -13 16 hvcurveto
          4 5 2 9 4 vvcurveto
          endchar
        </CharString>
        <CharString name="estimated">
          421 18 18 276 16 275 18 hstem
          70 122 426 122 vstem
          740 312 rmoveto
          7 vlineto
          167 -150 135 -185 -185 -150 -135 -167 -166 150 -135 185 107 98 47 70 60 vhcurveto
          -49 hlineto
          -60 -51 -78 -39 -86 hhcurveto
          -81 -74 34 55 -51 hvcurveto
          -4 5 -4 6 8 vvcurveto
          164 vlineto
          3 2 1 3 vhcurveto
          421 21 rmoveto
          -3 -2 -2 -3 vhcurveto
          -416 hlineto
          -3 -2 2 3 hvcurveto
          162 vlineto
          8 4 7 5 5 vhcurveto
          54 52 72 34 81 hhcurveto
          79 72 -33 -52 52 hvcurveto
          5 -5 4 -7 -8 vvcurveto
          endchar
        </CharString>
        <CharString name="eth">
          62 -10 24 470 24 235 -20 hstem
          47 24 312 24 vstem
          350 685 rmoveto
          4 2 2 1 0 4 0 3 -2 6 -4 11 50 flex
          -84 -34 -21 21 -24 20 -27 19 rlinecurve
          2 -3 -6 3 -4 hhcurveto
          -6 -6 -5 -9 -2 hvcurveto
          28 -19 25 -20 22 -21 -75 -31 rcurveline
          -4 -2 -2 -2 0 -3 0 -4 2 -6 4 -10 50 flex
          94 38 55 -59 34 -68 18 -77 rlinecurve
          43 -32 -49 20 -56 hhcurveto
          -119 -65 -85 -167 -186 64 -80 118 153 25 145 154 159 -37 118 -85 93 hvcurveto
          -56 -645 rmoveto
          -98 -60 69 173 156 61 72 100 61 50 -31 -62 34 hvcurveto
          4 -29 2 -30 -32 vvcurveto
          -139 -16 -147 -138 vhcurveto
          endchar
        </CharString>
        <CharString name="euro">
          62 -10 24 210 22 122 22 191 24 hstem
          122 24 vstem
          284 224 rmoveto
          12 2 5 17 hvcurveto
          -152 16 hlineto
          40 2 35 3 31 vhcurveto
          175 hlineto
          12 2 5 17 hvcurveto
          -187 hlineto
          175 23 74 16 63 hhcurveto
          41 34 -25 -5 6 hvcurveto
          4 2 4 9 7 vvcurveto
          5 -36 31 -56 -73 -84 -24 -191 -25 vhcurveto
          -86 hlineto
          -12 -2 -5 -17 hvcurveto
          98 hlineto
          -3 -30 -2 -34 -38 vvcurveto
          -20 -79 vlineto
          -12 -2 -5 -17 hvcurveto
          94 hlineto
          -214 10 85 -20 77 hhcurveto
          60 56 38 14 6 -4 10 -3 4 hvcurveto
          -24 -19 -45 -24 -43 hhcurveto
          -64 -77 15 195 -8 hvcurveto
          endchar
        </CharString>
        <CharString name="exclam">
          -206 -4 61 650 -20 hstem
          80 24 vstem
          80 164 rmoveto
          13 11 3 8 hvcurveto
          532 vlineto
          -12 -12 -1 -6 hvcurveto
          -17 -673 rmoveto
          -18 10 -13 17 17 12 13 18 16 -12 14 -17 -17 -10 -14 -16 vhcurveto
          endchar
        </CharString>
        <CharString name="exclamdown">
          -206 -177 -21 646 61 hstem
          78 24 vstem
          119 478 rmoveto
          18 -10 13 -17 -17 -12 -13 -18 -16 12 -14 17 17 10 14 16 vhcurveto
          -17 -133 rmoveto
          -13 -11 -3 -8 hvcurveto
          -532 vlineto
          12 12 1 6 hvcurveto
          endchar
        </CharString>
        <CharString name="f">
          -147 21 -21 476 24 216 24 hstem
          102 24 vstem
          102 476 rmoveto
          -476 14 vlineto
          7 3 3 7 hvcurveto
          466 112 vlineto
          10 0 2 22 hvcurveto
          -122 63 hlineto
          143 74 10 57 32 21 -4 -7 24 vhcurveto
          2 5 2 4 6 vvcurveto
          7 -20 13 -59 -67 -90 -19 -154 vhcurveto
          -67 -75 vlineto
          -10 0 -2 -22 hvcurveto
          endchar
        </CharString>
        <CharString name="f.ss02">
          -147 21 -21 476 24 214 23 hstem
          102 24 vstem
          102 476 rmoveto
          -476 14 vlineto
          10 0 10 0 hvcurveto
          466 112 vlineto
          10 0 2 22 hvcurveto
          -122 123 hlineto
          83 39 8 36 18 28 -4 -6 12 vhcurveto
          2 5 1 4 4 vvcurveto
          11 -21 9 -38 -42 -59 -11 -98 vhcurveto
          -128 -75 vlineto
          -10 0 -2 -22 hvcurveto
          endchar
        </CharString>
        <CharString name="f_f">
          78 21 -21 476 24 211 24 hstem
          102 24 202 24 vstem
          102 500 rmoveto
          -75 hlineto
          -10 0 -2 -22 hvcurveto
          85 -476 14 hlineto
          10 0 10 0 hvcurveto
          466 202 -476 14 vlineto
          10 0 10 0 hvcurveto
          466 112 vlineto
          10 0 2 22 hvcurveto
          -122 63 hlineto
          143 74 10 57 32 21 -4 -7 24 vhcurveto
          2 5 2 2 6 vvcurveto
          11 -27 11 -52 -33 -51 -3 -39 -35 vhcurveto
          21 -27 -40 16 -42 hhcurveto
          -46 -109 -3 -153 hvcurveto
          226 -79 rmoveto
          -202 75 hlineto
          131 83 5 40 45 29 -9 -25 28 vhcurveto
          1 2 rlineto
          -14 -26 -10 -36 -50 vvcurveto
          endchar
        </CharString>
        <CharString name="f_f_i">
          239 21 -21 476 24 211 24 hstem
          104 24 202 24 177 24 vstem
          104 500 rmoveto
          -75 hlineto
          -10 0 -2 -22 hvcurveto
          85 -476 14 hlineto
          10 0 10 0 hvcurveto
          466 202 -476 14 vlineto
          10 0 10 0 hvcurveto
          466 92 vlineto
          10 0 2 22 hvcurveto
          -102 63 hlineto
          143 74 10 57 32 27 -5 -8 24 vhcurveto
          2 5 2 5 5 vvcurveto
          12 -34 10 -51 -40 -48 -3 -37 -33 vhcurveto
          19 -27 -39 16 -41 hhcurveto
          -46 -109 -3 -153 hvcurveto
          226 -79 rmoveto
          -202 75 hlineto
          131 83 5 40 44 29 -9 -24 28 vhcurveto
          -14 -25 -8 -36 -50 vvcurveto
          225 -67 rmoveto
          -18 -6 0 -15 hvcurveto
          -485 vlineto
          23 1 0 8 hvcurveto
          2 vlineto
          endchar
        </CharString>
        <CharString name="f_f_l">
          248 21 -21 476 24 211 24 hstem
          104 24 202 24 187 24 vstem
          565 719 rmoveto
          9 -17 -32 11 -46 hhcurveto
          -35 -42 -2 -36 -29 hvcurveto
          19 -27 -38 15 -40 hhcurveto
          -46 -109 -3 -153 hvcurveto
          -79 -75 vlineto
          -10 0 -2 -22 hvcurveto
          85 -476 14 hlineto
          10 0 10 0 hvcurveto
          466 202 -476 14 vlineto
          10 0 10 0 hvcurveto
          466 92 vlineto
          10 0 2 22 hvcurveto
          -102 70 hlineto
          143 62 2 54 36 24 -7 -4 11 vhcurveto
          -704 vlineto
          23 1 0 7 hvcurveto
          3 vlineto
          -235 490 rmoveto
          -202 75 hlineto
          131 83 5 40 43 29 -8 -24 27 vhcurveto
          -12 -25 -8 -36 -51 vvcurveto
          endchar
        </CharString>
        <CharString name="fi">
          2 21 -21 476 24 216 24 hstem
          96 24 177 24 vstem
          96 476 rmoveto
          -476 14 vlineto
          10 0 10 0 hvcurveto
          466 92 vlineto
          10 0 2 22 hvcurveto
          -102 63 hlineto
          143 74 10 57 32 27 -5 -8 24 vhcurveto
          2 5 2 5 5 vvcurveto
          12 -34 10 -51 -67 -90 -8 -165 vhcurveto
          -67 -75 vlineto
          -10 0 -2 -22 hvcurveto
          310 24 rmoveto
          -18 -6 0 -15 hvcurveto
          -485 vlineto
          23 1 0 8 hvcurveto
          2 vlineto
          endchar
        </CharString>
        <CharString name="firsttonechinese">
          -138 623 25 hstem
          4 242 vstem
          235 623 rmoveto
          7 3 4 8 1 hvcurveto
          4 0 4 -1 5 vhcurveto
          -230 hlineto
          -7 -3 -4 -8 -1 hvcurveto
          -4 0 -4 1 -5 vhcurveto
          endchar
        </CharString>
        <CharString name="five">
          62 -100 24 438 23 191 24 hstem
          371 24 vstem
          82 600 rmoveto
          -26 -256 rlineto
          0 49 18 64 65 137 -19 -145 -160 -46 -114 -156 -56 -38 13 23 -26 vhcurveto
          -3 -8 -1 -6 -7 vvcurveto
          -13 42 -26 78 179 51 117 177 170 -144 24 -84 -3 vhcurveto
          -60 -25 -8 0 hvcurveto
          22 199 rlineto
          266 hlineto
          16 2 1 23 hvcurveto
          endchar
        </CharString>
        <CharString name="five.001">
          62 -100 24 438 23 191 24 hstem
          371 24 vstem
          82 600 rmoveto
          -26 -256 rlineto
          0 49 18 64 65 137 -19 -145 -160 -46 -114 -156 -56 -38 13 23 -26 vhcurveto
          -3 -8 -1 -6 -7 vvcurveto
          -13 42 -26 78 179 51 117 177 170 -144 24 -84 -3 vhcurveto
          -60 -25 -8 0 hvcurveto
          22 199 rlineto
          266 hlineto
          16 2 1 23 hvcurveto
          endchar
        </CharString>
        <CharString name="fl">
          12 21 -21 476 24 214 24 hstem
          95 24 187 24 vstem
          95 500 rmoveto
          -75 hlineto
          -10 0 -2 -22 hvcurveto
          85 -476 14 hlineto
          10 0 10 0 hvcurveto
          466 112 vlineto
          10 0 2 22 hvcurveto
          -122 63 hlineto
          150 72 1 42 25 24 -3 -9 24 vhcurveto
          -702 14 vlineto
          10 0 10 0 hvcurveto
          708 vlineto
          14 -28 -29 6 -38 hhcurveto
          -50 -90 -6 -165 hvcurveto
          endchar
        </CharString>
        <CharString name="florin">
          100 -195 24 646 25 213 24 hstem
          232 24 vstem
          232 500 rmoveto
          -141 hlineto
          -10 0 -3 -22 hvcurveto
          151 -501 hlineto
          -143 -74 -2 -57 -32 -21 4 7 -24 vhcurveto
          -2 -5 -2 -9 -5 vvcurveto
          -6 38 -10 41 67 90 0 165 vhcurveto
          505 165 vlineto
          10 0 3 22 hvcurveto
          -175 68 hlineto
          143 74 2 57 32 21 -4 -7 24 vhcurveto
          2 5 2 9 5 vvcurveto
          6 -38 10 -41 -67 -90 0 -165 vhcurveto
          endchar
        </CharString>
        <CharString name="four">
          62 21 -21 182 24 hstem
          286 24 vstem
          310 599 rmoveto
          3 -4 4 -7 hhcurveto
          -3 -6 0 -5 -6 hvcurveto
          -128 -118 -109 -217 -73 vvcurveto
          -6 3 -2 0 vhcurveto
          233 -182 hlineto
          22 2 0 8 hvcurveto
          6 vlineto
          168 92 vlineto
          7 1 7 5 10 -1 2 0 hvcurveto
          -99 hlineto
          -24 hmoveto
          -211 hlineto
          34 146 107 139 75 79 rrcurveto
          endchar
        </CharString>
        <CharString name="four.dnom">
          18 18 -21 82 24 hstem
          262 24 vstem
          286 103 rmoveto
          316 vlineto
          1 -2 -4 1 -4 hhcurveto
          -5 -5 -1 -4 -4 hvcurveto
          -76 -69 -94 -144 -29 -87 rrcurveto
          -5 -15 -3 -10 -4 vvcurveto
          -3 1 -2 1 -3 vhcurveto
          205 -82 hlineto
          -1 3 3 0 3 hhcurveto
          9 6 4 8 hvcurveto
          71 79 vlineto
          5 1 7 4 5 -1 5 -1 3 hvcurveto
          -107 hmoveto
          -176 hlineto
          31 104 92 121 53 52 rrcurveto
          endchar
        </CharString>
        <CharString name="four.numr">
          18 368 24 318 -20 hstem
          262 24 vstem
          286 392 rmoveto
          316 vlineto
          1 -2 -4 1 -4 hhcurveto
          -5 -5 -1 -4 -4 hvcurveto
          -76 -69 -94 -144 -29 -87 rrcurveto
          -5 -15 -3 -10 -4 vvcurveto
          -3 1 -2 1 -3 vhcurveto
          205 -82 hlineto
          -1 3 3 0 3 hhcurveto
          9 6 4 8 hvcurveto
          71 79 vlineto
          5 1 7 4 5 -1 5 -1 3 hvcurveto
          -107 hmoveto
          -176 hlineto
          31 104 92 121 53 52 rrcurveto
          endchar
        </CharString>
        <CharString name="foursuperior">
          38 368 24 318 -20 hstem
          272 24 vstem
          296 392 rmoveto
          316 vlineto
          1 -2 -4 1 -4 hhcurveto
          -5 -5 -1 -4 -4 hvcurveto
          -76 -69 -94 -144 -29 -87 rrcurveto
          -5 -15 -3 -10 -4 vvcurveto
          -3 1 -2 1 -3 vhcurveto
          205 -82 hlineto
          -1 3 3 0 3 hhcurveto
          9 6 4 8 hvcurveto
          71 79 vlineto
          5 1 7 4 5 -1 5 -1 3 hvcurveto
          -107 hmoveto
          -176 hlineto
          31 104 92 121 53 52 rrcurveto
          endchar
        </CharString>
        <CharString name="fraction">
          -192 12 -21 719 -20 hstem
          -129 494 vstem
          365 697 rmoveto
          8 -3 -6 5 -5 hhcurveto
          -3 -3 -2 -3 -2 hvcurveto
          -472 -700 rlineto
          -8 7 -6 7 3 3 1 2 1 vhcurveto
          endchar
        </CharString>
        <CharString name="g">
          26 -198 24 328 24 305 22 hstem
          61 24 270 24 vstem
          267 505 rmoveto
          3 -17 -18 2 -9 hhcurveto
          -86 -76 -62 -116 -64 12 -62 54 -31 hvcurveto
          -30 -23 -35 -37 -26 vvcurveto
          -22 28 -16 44 -12 vhcurveto
          -41 -29 -48 -55 -49 vvcurveto
          -54 26 -50 131 131 64 70 65 79 -66 16 -68 8 vhcurveto
          -101 11 -76 18 22 vvcurveto
          20 32 33 30 21 vhcurveto
          -7 19 23 -4 27 hhcurveto
          116 46 95 101 71 -29 47 -47 17 hvcurveto
          -1 21 32 -1 23 hhcurveto
          12 4 5 8 6 -2 3 0 hvcurveto
          -308 -175 rmoveto
          105 64 51 74 81 51 -44 -92 -81 -41 -91 -94 -119 -16 79 73 vhcurveto
          117 -504 rmoveto
          -113 -20 36 44 43 49 57 44 27 hvcurveto
          29 -6 34 -5 36 -4 rrcurveto
          54 -6 58 -11 -65 vvcurveto
          -56 -59 -54 -112 vhcurveto
          endchar
        </CharString>
        <CharString name="g.ss01">
          42 -200 23 168 24 470 24 hstem
          54 23 260 24 vstem
          361 467 rmoveto
          25 -21 -41 17 -45 hhcurveto
          -91 -109 -51 -223 -206 75 -38 76 57 52 29 26 23 hvcurveto
          -91 vlineto
          -111 -79 -21 -58 -70 -27 16 14 -26 vhcurveto
          -5 -5 -2 -6 -4 vvcurveto
          -16 49 -22 79 89 74 42 109 vhcurveto
          -24 130 rmoveto
          -44 -31 -50 -22 -51 hhcurveto
          -63 -65 37 175 222 102 36 70 47 32 -18 -14 9 hvcurveto
          endchar
        </CharString>
        <CharString name="gbreve">
          26 -198 24 328 24 305 22 80 24 98 -20 hstem
          61 24 270 24 vstem
          267 505 rmoveto
          3 -17 -18 2 -9 hhcurveto
          -86 -76 -62 -116 -64 12 -62 54 -31 hvcurveto
          -30 -23 -35 -37 -26 vvcurveto
          -22 28 -16 44 -12 vhcurveto
          -41 -29 -48 -55 -49 vvcurveto
          -54 26 -50 131 131 64 70 65 79 -66 16 -68 8 vhcurveto
          -101 11 -76 18 22 vvcurveto
          20 32 33 30 21 vhcurveto
          -7 19 23 -4 27 hhcurveto
          116 46 95 101 71 -29 47 -47 17 hvcurveto
          -1 21 32 -1 23 hhcurveto
          12 4 5 8 6 -2 3 0 hvcurveto
          -308 -175 rmoveto
          105 64 51 74 81 51 -44 -92 -81 -41 -91 -94 -119 -16 79 73 vhcurveto
          117 -504 rmoveto
          -113 -20 36 44 43 49 57 44 27 hvcurveto
          29 -6 34 -5 36 -4 rrcurveto
          54 -6 58 -11 -65 vvcurveto
          -56 -59 -54 -112 vhcurveto
          15 759 rmoveto
          73 30 67 41 12 hvcurveto
          -2 12 -18 6 -5 -14 rrcurveto
          -38 -14 -19 -50 -56 hhcurveto
          -59 -25 62 36 -12 hvcurveto
          -10 -1 -9 -2 -10 vvcurveto
          -18 36 -91 78 vhcurveto
          endchar
        </CharString>
        <CharString name="gcommaaccent">
          26 -198 24 328 24 305 22 230 -20 hstem
          61 24 270 24 vstem
          267 505 rmoveto
          3 -17 -18 2 -9 hhcurveto
          -86 -76 -62 -116 -64 12 -62 54 -31 hvcurveto
          -30 -23 -35 -37 -26 vvcurveto
          -22 28 -16 44 -12 vhcurveto
          -41 -29 -48 -55 -49 vvcurveto
          -54 26 -50 131 131 64 70 65 79 -66 16 -68 8 vhcurveto
          -101 11 -76 18 22 vvcurveto
          20 32 33 30 21 vhcurveto
          -7 19 23 -4 27 hhcurveto
          116 46 95 101 71 -29 47 -47 17 hvcurveto
          -1 21 32 -1 23 hhcurveto
          12 4 5 8 6 -2 3 0 hvcurveto
          -308 -175 rmoveto
          105 64 51 74 81 51 -44 -92 -81 -41 -91 -94 -119 -16 79 73 vhcurveto
          117 -504 rmoveto
          -113 -20 36 44 43 49 57 44 27 hvcurveto
          29 -6 34 -5 36 -4 rrcurveto
          54 -6 58 -11 -65 vvcurveto
          -56 -59 -54 -112 vhcurveto
          15 736 rmoveto
          16 10 11 17 13 -7 11 -8 5 hvcurveto
          -1 33 10 34 22 37 rrcurveto
          5 -1 -7 7 -5 hhcurveto
          -14 -40 -86 -53 -29 10 -5 15 hvcurveto
          endchar
        </CharString>
        <CharString name="gecy">
          -107 21 -21 477 23 hstem
          68 24 vstem
          68 hmoveto
          24 0 0 10 hvcurveto
          467 172 vlineto
          7 0 4 19 hvcurveto
          -179 hlineto
          -19 -5 0 -15 hvcurveto
          endchar
        </CharString>
        <CharString name="germandbls">
          89 -9 23 667 23 hstem
          68 24 140 24 128 24 vstem
          68 30 rmoveto
          -19 -6 -12 0 vhcurveto
          0 6 -7 10 11 3 6 10 vhcurveto
          525 vlineto
          109 45 39 87 115 45 -69 -49 -37 -35 -22 -37 -21 vhcurveto
          -39 -24 -41 -25 -47 vvcurveto
          -44 42 -29 46 -32 vhcurveto
          55 -37 59 -41 -73 vvcurveto
          -83 -59 -34 -69 -51 -30 11 25 -27 vhcurveto
          0 -9 -10 -9 -11 44 -29 72 91 61 46 96 88 -67 44 -57 38 hvcurveto
          -41 27 -36 24 34 vvcurveto
          34 33 20 36 22 vhcurveto
          40 24 43 27 49 vvcurveto
          51 -46 89 -142 -91 -61 -39 -116 vhcurveto
          endchar
        </CharString>
        <CharString name="germandbls.ss05">
          101 -136 24 132 -21 229 21 227 24 212 24 hstem
          74 24 341 24 vstem
          448 476 rmoveto
          5 6 1 6 3 vvcurveto
          6 -3 3 0 vhcurveto
          -353 72 hlineto
          109 45 31 87 55 38 -19 -13 15 vhcurveto
          0 7 13 8 8 -45 27 -65 -100 -61 -32 -116 hvcurveto
          -544 vlineto
          -33 -6 -12 0 vhcurveto
          0 6 -7 10 11 3 2 10 vhcurveto
          472 320 vlineto
          -190 -248 rlineto
          38 40 -2 -10 34 hvcurveto
          57 -17 42 -37 -78 vvcurveto
          -116 -58 -80 -111 -58 -20 13 18 -28 vhcurveto
          0 -6 -8 -9 -13 23 -25 89 123 70 91 132 125 -111 38 -77 -1 hvcurveto
          endchar
        </CharString>
        <CharString name="gheupturncy">
          -113 21 -21 477 23 hstem
          68 24 154 25 vstem
          92 500 rmoveto
          -19 -5 0 -15 hvcurveto
          -485 vlineto
          24 0 0 10 hvcurveto
          467 172 vlineto
          7 0 4 19 hvcurveto
          110 vlineto
          5 -6 3 -9 vhcurveto
          -4 -20 -5 -72 -1 -26 rrcurveto
          endchar
        </CharString>
        <CharString name="gjecy">
          -107 21 -21 477 23 hstem
          68 24 vstem
          131 579 rmoveto
          76 53 66 57 0 vvcurveto
          0 -5 23 -8 vhcurveto
          0 -73 -55 -66 -62 vhcurveto
          10 -16 rlineto
          -63 -579 rmoveto
          24 0 0 10 hvcurveto
          467 172 vlineto
          7 0 4 19 hvcurveto
          -179 hlineto
          -19 -5 0 -15 hvcurveto
          endchar
        </CharString>
        <CharString name="grave">
          -138 579 133 hstem
          49 152 vstem
          62 712 rmoveto
          -8 -5 -23 0 0 66 -57 76 -53 hvcurveto
          10 16 rlineto
          -66 62 -73 55 0 vvcurveto
          endchar
        </CharString>
        <CharString name="greater">
          12 125 285 hstem
          53 296 vstem
          316 277 rmoveto
          -253 -125 rlineto
          -4 -2 -2 -3 -5 vvcurveto
          -3 1 -6 7 -8 vhcurveto
          274 136 rlineto
          7 4 3 5 6 vvcurveto
          5 -1 5 -4 5 vhcurveto
          -259 113 rlineto
          4 -10 -6 2 -4 hhcurveto
          -4 -8 -5 -16 hvcurveto
          endchar
        </CharString>
        <CharString name="greaterequal">
          28 0 25 hstem
          60 296 vstem
          323 282 rmoveto
          -253 -125 rlineto
          -4 -2 -2 -3 -5 vvcurveto
          -3 1 -6 7 -8 vhcurveto
          274 136 rlineto
          7 4 3 5 6 vvcurveto
          5 -1 5 -4 5 vhcurveto
          -259 113 rlineto
          4 -10 -6 2 -4 hhcurveto
          -4 -8 -5 -16 hvcurveto
          282 -394 rmoveto
          10 0 3 22 hvcurveto
          -273 hlineto
          -10 0 -3 -22 hvcurveto
          endchar
        </CharString>
        <CharString name="guillemotleft">
          31 21 -21 480 20 hstem
          40 324 vstem
          40 257 rmoveto
          -18 160 -239 0 7 6 18 0 8 -148 231 0 0 143 217 14 0 -6 12 -10 0 -152 -227 -16 vhcurveto
          151 -7 rmoveto
          -18 160 -212 0 7 6 18 0 8 -148 204 0 0 143 204 14 0 -6 12 -10 0 -152 -214 -16 vhcurveto
          endchar
        </CharString>
        <CharString name="guillemotright">
          27 21 -21 480 20 hstem
          203 25 122 25 vstem
          375 257 rmoveto
          16 -152 227 0 0 -16 -3 -9 -14 143 -217 0 0 -148 -232 -8 -14 14 -3 0 0 159 239 18 vhcurveto
          -147 -7 rmoveto
          16 -152 214 0 0 -16 -3 -9 -14 143 -204 0 0 -148 -205 -8 -14 14 -3 0 0 159 212 18 vhcurveto
          endchar
        </CharString>
        <CharString name="guilsinglleft">
          -120 21 -21 500 -20 hstem
          40 173 vstem
          40 250 rmoveto
          -18 160 -232 0 7 6 18 0 8 -148 224 0 0 143 224 14 0 -6 12 -10 0 -152 -234 -16 vhcurveto
          endchar
        </CharString>
        <CharString name="guilsinglright">
          -120 21 -21 500 -20 hstem
          203 25 vstem
          228 250 rmoveto
          16 -152 234 0 0 -16 -3 -9 -14 143 -224 0 0 -148 -225 -8 -14 14 -3 0 0 159 232 18 vhcurveto
          endchar
        </CharString>
        <CharString name="h">
          27 21 -21 486 24 225 -20 hstem
          66 24 247 24 vstem
          66 hmoveto
          23 1 0 10 hvcurveto
          420 vlineto
          42 42 59 14 41 hhcurveto
          85 20 -44 -69 hvcurveto
          -373 vlineto
          24 0 0 10 hvcurveto
          363 vlineto
          83 -23 54 -104 -46 -52 -13 -34 -46 vhcurveto
          272 vlineto
          -19 -5 0 -15 hvcurveto
          endchar
        </CharString>
        <CharString name="hacy">
          80 21 -21 500 -20 hstem
          30 408 vstem
          251 267 rmoveto
          166 233 rlineto
          -30 2 0 -5 -4 hvcurveto
          -61 -86 -88 -125 -12 17 -41 59 -34 47 rlinecurve
          -66 93 rlineto
          -27 -1 -1 -4 3 hvcurveto
          161 -229 -189 -266 rlineto
          26 4 0 6 4 hvcurveto
          63 90 108 152 13 -18 50 -72 43 -60 rlinecurve
          69 -98 rlineto
          30 2 0 9 -7 hvcurveto
          endchar
        </CharString>
        <CharString name="hardsigncy">
          63 0 20 242 21 192 25 hstem
          168 24 221 23 vstem
          192 283 rmoveto
          217 -165 vlineto
          -4 -1 -3 -7 hvcurveto
          -15 146 -475 109 vlineto
          45 114 -2 160 109 -73 16 -84 hvcurveto
          -87 -263 rmoveto
          242 75 vlineto
          87 59 -11 -92 -125 -62 -14 -77 hvcurveto
          endchar
        </CharString>
        <CharString name="hungarumlaut">
          -138 577 143 hstem
          17 216 vstem
          116 720 rmoveto
          0 -54 -63 -45 -67 vhcurveto
          13 -13 rlineto
          57 62 46 62 0 vvcurveto
          0 -8 19 -8 vhcurveto
          -1 hlineto
          100 hmoveto
          0 -54 -63 -45 -67 vhcurveto
          13 -13 rlineto
          57 62 46 62 0 vvcurveto
          0 -8 19 -8 vhcurveto
          -1 hlineto
          endchar
        </CharString>
        <CharString name="hyphen">
          -84 269 25 hstem
          50 204 vstem
          244 269 rmoveto
          10 0 3 22 hvcurveto
          -194 hlineto
          -10 0 -3 -22 hvcurveto
          endchar
        </CharString>
        <CharString name="i">
          -222 21 -21 500 -20 134 56 hstem
          71 24 vstem
          64 638 rmoveto
          -15 6 -8 12 -1 vhcurveto
          15 5 10 20 17 -6 9 -12 -13 -7 -10 -22 hvcurveto
          31 -138 rmoveto
          -19 -5 0 -15 hvcurveto
          -485 vlineto
          24 0 0 10 hvcurveto
          endchar
        </CharString>
        <CharString name="iacute">
          -222 21 -21 500 -20 hstem
          71 24 vstem
          17 579 rmoveto
          76 53 66 57 0 vvcurveto
          0 -5 23 -8 vhcurveto
          0 -73 -55 -66 -62 vhcurveto
          10 -16 rlineto
          78 -79 rmoveto
          -19 -5 0 -15 hvcurveto
          -485 vlineto
          24 0 0 10 hvcurveto
          endchar
        </CharString>
        <CharString name="iacy">
          3 21 -21 225 22 230 23 hstem
          61 24 213 25 vstem
          210 500 rmoveto
          -97 -52 -50 -88 -87 50 -36 46 -9 hvcurveto
          -32 -15 -23 -32 -16 -49 -45 -136 rcurveline
          -1 7 5 0 6 hhcurveto
          6 0 2 7 2 hvcurveto
          43 128 rlineto
          54 18 33 37 53 hhcurveto
          84 -208 hlineto
          -17 0 0 25 vhcurveto
          492 vlineto
          0 0 8 -9 vhcurveto
          -16 -23 rmoveto
          -230 -104 vlineto
          -61 -48 35 74 80 49 41 65 hvcurveto
          endchar
        </CharString>
        <CharString name="icircumflex">
          -222 21 -21 500 -20 195 24 hstem
          71 24 vstem
          -31 594 rmoveto
          0 5 -13 14 6 92 94 0 vhcurveto
          89 -95 rlineto
          12 10 16 0 hvcurveto
          -96 96 rlineto
          5 -5 -5 2 -4 hhcurveto
          -4 -3 -1 -1 -1 hvcurveto
          16 -197 rmoveto
          -19 -5 0 -15 hvcurveto
          -485 vlineto
          24 0 0 10 hvcurveto
          endchar
        </CharString>
        <CharString name="icy">
          -222 21 -21 500 -20 134 56 hstem
          71 24 vstem
          65 642 rmoveto
          -1 -17 5 -10 13 -1 rrcurveto
          14 5 9 17 1 hvcurveto
          19 1 -6 11 -13 hhcurveto
          -12 -6 -9 -19 -1 hvcurveto
          30 -142 rmoveto
          -19 -5 0 -15 hvcurveto
          -485 vlineto
          24 0 0 10 hvcurveto
          endchar
        </CharString>
        <CharString name="idieresis">
          -222 21 -21 500 -20 134 56 hstem
          71 24 vstem
          34 670 rmoveto
          -12 -6 -9 -19 -1 hvcurveto
          -1 -17 5 -10 13 -1 rrcurveto
          14 5 9 17 1 hvcurveto
          19 1 -6 11 -13 hhcurveto
          100 hmoveto
          -12 -6 -9 -19 -1 hvcurveto
          -1 -17 5 -10 13 -1 rrcurveto
          14 5 9 17 1 hvcurveto
          19 1 -6 11 -13 hhcurveto
          -39 -170 rmoveto
          -19 -5 0 -15 hvcurveto
          -485 vlineto
          24 0 0 10 hvcurveto
          endchar
        </CharString>
        <CharString name="iecy">
          2 -10 24 214 39 219 24 hstem
          47 24 257 24 vstem
          215 14 rmoveto
          -80 -64 17 186 hvcurveto
          11 vlineto
          28 -1 138 -2 108 21 rrcurveto
          5 30 2 39 39 vvcurveto
          91 -34 65 -91 -77 -103 -24 -265 -206 72 -25 97 70 62 27 15 4 -1 7 -4 8 vhcurveto
          -24 -30 -49 -13 -49 hhcurveto
          13 472 rmoveto
          78 20 -56 -88 2 hvcurveto
          -24 -1 -21 -3 -30 vhcurveto
          -85 -18 -138 2 -29 1 rrcurveto
          225 8 87 9 61 hhcurveto
          endchar
        </CharString>
        <CharString name="iegravecy">
          2 -10 24 214 39 219 24 hstem
          47 24 257 24 vstem
          271 595 rmoveto
          -66 62 -73 55 0 vvcurveto
          -8 -5 -23 0 0 66 -57 76 -53 hvcurveto
          10 16 rlineto
          -56 -581 rmoveto
          -80 -64 17 186 hvcurveto
          11 vlineto
          28 -1 138 -2 108 21 rrcurveto
          5 30 2 39 39 vvcurveto
          91 -34 65 -91 -77 -103 -24 -265 -206 72 -25 97 70 62 27 15 4 -1 7 -4 8 vhcurveto
          -24 -30 -49 -13 -49 hhcurveto
          13 472 rmoveto
          78 20 -56 -88 2 hvcurveto
          -24 -1 -21 -3 -30 vhcurveto
          -85 -18 -138 2 -29 1 rrcurveto
          225 8 87 9 61 hhcurveto
          endchar
        </CharString>
        <CharString name="igrave">
          -222 21 -21 500 -20 hstem
          71 24 vstem
          20 712 rmoveto
          -8 -5 -23 0 0 66 -57 76 -53 hvcurveto
          10 16 rlineto
          -66 62 -73 55 0 vvcurveto
          75 -212 rmoveto
          -19 -5 0 -15 hvcurveto
          -485 vlineto
          24 0 0 10 hvcurveto
          endchar
        </CharString>
        <CharString name="iicy">
          57 21 -21 500 -20 hstem
          68 24 261 24 vstem
          210 251 rmoveto
          -121 -211 rlineto
          17 1 17 17 vvcurveto
          1 34 1 33 34 vvcurveto
          308 vlineto
          -17 -7 0 -7 hvcurveto
          -493 vlineto
          18 4 0 7 5 hvcurveto
          135 231 33 57 32 56 32 57 rlinecurve
          10 17 9 17 10 17 rrcurveto
          -21 -1 -22 -21 vvcurveto
          -1 -42 -1 -42 -43 vvcurveto
          -268 vlineto
          19 5 0 7 hvcurveto
          493 vlineto
          -18 -5 -2 -5 -3 hvcurveto
          endchar
        </CharString>
        <CharString name="iigravecy">
          57 21 -21 500 -20 hstem
          68 24 261 24 vstem
          161 712 rmoveto
          -8 -5 -23 0 0 66 -57 76 -53 hvcurveto
          10 16 rlineto
          -66 62 -73 55 0 vvcurveto
          49 -461 rmoveto
          -121 -211 rlineto
          1 51 2 50 51 vvcurveto
          308 vlineto
          -17 -7 0 -7 hvcurveto
          -493 vlineto
          18 4 0 7 5 hvcurveto
          135 231 43 74 41 73 42 74 rlinecurve
          -1 -64 -2 -63 -64 vvcurveto
          -268 vlineto
          19 5 0 7 hvcurveto
          493 vlineto
          -18 -5 -2 -5 -3 hvcurveto
          endchar
        </CharString>
        <CharString name="iishortcy">
          57 21 -21 500 -20 106 21 100 -20 hstem
          68 24 261 24 vstem
          123 707 rmoveto
          -10 -1 -15 -2 1 -10 rrcurveto
          -35 3 28 -73 93 hhcurveto
          75 29 43 64 21 hvcurveto
          -2 12 -24 7 -4 -15 rrcurveto
          -59 -17 -18 -31 -59 hhcurveto
          -69 -25 57 43 -7 hvcurveto
          87 -456 rmoveto
          -121 -211 rlineto
          1 51 2 50 51 vvcurveto
          308 vlineto
          -17 -7 0 -7 hvcurveto
          -493 vlineto
          18 4 0 7 5 hvcurveto
          135 231 43 74 41 73 42 74 rlinecurve
          -1 -64 -2 -63 -64 vvcurveto
          -268 vlineto
          19 5 0 7 hvcurveto
          493 vlineto
          -18 -5 -2 -5 -3 hvcurveto
          endchar
        </CharString>
        <CharString name="ij">
          -43 -194 24 191 -21 500 -20 134 56 hstem
          71 24 148 24 vstem
          65 642 rmoveto
          -1 -17 5 -10 13 -1 rrcurveto
          14 5 9 17 1 hvcurveto
          19 1 -6 11 -13 hhcurveto
          -12 -6 -9 -19 -1 hvcurveto
          173 hmoveto
          -1 -17 5 -10 13 -1 rrcurveto
          14 5 9 17 1 hvcurveto
          19 1 -6 11 -13 hhcurveto
          -12 -6 -9 -19 -1 hvcurveto
          29 -142 rmoveto
          -19 -5 0 -15 hvcurveto
          -513 vlineto
          -90 -9 -52 -79 -53 -33 16 17 -22 vhcurveto
          -5 -7 -1 -5 -6 vvcurveto
          -15 42 -24 69 97 18 63 94 vhcurveto
          -172 537 rmoveto
          -19 -5 0 -15 hvcurveto
          -485 vlineto
          24 0 0 10 hvcurveto
          endchar
        </CharString>
        <CharString name="imacron">
          -222 21 -21 500 -20 143 25 hstem
          71 24 vstem
          193 623 rmoveto
          7 3 4 8 1 hvcurveto
          4 0 4 -1 5 vhcurveto
          -230 hlineto
          -7 -3 -4 -8 -1 hvcurveto
          -4 0 -4 1 -5 vhcurveto
          132 -123 rmoveto
          -19 -5 0 -15 hvcurveto
          -485 vlineto
          24 0 0 10 hvcurveto
          endchar
        </CharString>
        <CharString name="increment">
          48 0 24 679 -20 hstem
          10 416 vstem
          10 1 rmoveto
          -1 7 5 0 2 hhcurveto
          393 hlineto
          6 3 2 4 hvcurveto
          2 -1 1 2 vvcurveto
          -201 692 rlineto
          -1 1 -4 1 -4 -3 -2 -1 0 hflex1
          184 -679 rmoveto
          -351 hlineto
          123 446 25 92 23 86 3 21 rlinecurve
          2 -21 23 -87 26 -91 rrcurveto
          endchar
        </CharString>
        <CharString name="infinity">
          254 136 24 228 24 hstem
          65 24 464 24 vstem
          457 412 rmoveto
          -69 -34 -45 -52 -27 hvcurveto
          44 -20 -33 53 -77 hhcurveto
          -111 -21 -86 -51 -69 37 -70 87 62 39 51 53 28 hvcurveto
          17 -48 31 -41 44 -16 rrcurveto
          -4 12 14 -3 14 hhcurveto
          80 47 50 96 90 -48 48 -72 hvcurveto
          -145 -129 rmoveto
          -62 -29 -27 -61 -71 hhcurveto
          -66 -30 58 57 32 9 47 44 22 hvcurveto
          7 14 19 5 24 hhcurveto
          57 37 -50 -55 19 hvcurveto
          137 -131 rmoveto
          -60 -39 58 60 -17 hvcurveto
          13 27 11 25 11 15 rrcurveto
          29 21 19 22 50 hhcurveto
          12 13 -2 -5 11 hvcurveto
          33 -15 26 -38 -54 vvcurveto
          -82 -43 -40 -61 vhcurveto
          endchar
        </CharString>
        <CharString name="integral">
          100 -195 24 884 24 hstem
          232 24 vstem
          232 -26 rmoveto
          -143 -74 -2 -57 -32 -21 4 7 -24 vhcurveto
          -2 -5 -2 -9 -5 vvcurveto
          -6 38 -10 41 67 90 0 165 vhcurveto
          598 vlineto
          143 74 2 57 32 21 -4 -7 24 vhcurveto
          2 5 2 9 5 vvcurveto
          6 -38 10 -41 -67 -90 0 -165 vhcurveto
          endchar
        </CharString>
        <CharString name="iocy">
          2 -10 24 214 39 219 24 hstem
          47 24 257 24 vstem
          215 14 rmoveto
          -80 -64 17 186 hvcurveto
          11 vlineto
          28 -1 138 -2 108 21 rrcurveto
          5 30 2 39 39 vvcurveto
          91 -34 65 -91 -77 -103 -24 -265 -206 72 -25 97 70 62 27 15 4 -1 7 -4 8 vhcurveto
          -24 -30 -49 -13 -49 hhcurveto
          13 472 rmoveto
          78 20 -56 -88 2 hvcurveto
          -24 -1 -21 -3 -30 vhcurveto
          -85 -18 -138 2 -29 1 rrcurveto
          225 8 87 9 61 hhcurveto
          -84 128 rmoveto
          14 5 9 17 1 hvcurveto
          19 1 -6 11 -13 hhcurveto
          -12 -6 -9 -19 -1 hvcurveto
          -1 -17 5 -10 13 -1 rrcurveto
          100 hmoveto
          14 5 9 17 1 hvcurveto
          19 1 -6 11 -13 hhcurveto
          -12 -6 -9 -19 -1 hvcurveto
          -1 -17 5 -10 13 -1 rrcurveto
          endchar
        </CharString>
        <CharString name="iogonek">
          -222 -195 24 671 -20 134 56 hstem
          -3 24 49 26 vstem
          65 638 rmoveto
          -15 5 -8 12 -1 vhcurveto
          15 5 10 20 17 -6 9 -12 -13 -6 -10 -22 hvcurveto
          31 -138 rmoveto
          -25 -1 0 -16 hvcurveto
          -472 vlineto
          -39 -33 -34 -43 -57 vvcurveto
          -46 24 -28 47 24 17 7 11 -1 vhcurveto
          4 -3 8 -3 3 vhcurveto
          -6 -12 -8 -3 -14 hhcurveto
          -33 -14 18 31 48 32 44 30 24 hvcurveto
          7 5 6 3 8 vvcurveto
          endchar
        </CharString>
        <CharString name="iucy">
          155 -10 24 224 24 224 24 hstem
          68 24 91 24 267 24 vstem
          92 262 rmoveto
          238 vlineto
          -24 0 0 -10 hvcurveto
          -490 vlineto
          23 1 0 7 hvcurveto
          3 vlineto
          228 91 vlineto
          -218 2 60 -30 87 hhcurveto
          106 60 85 173 206 -53 56 -101 -96 -62 -71 -177 -3 hvcurveto
          150 -248 rmoveto
          -80 -46 45 182 182 54 63 82 81 50 -46 -188 -159 -54 -79 -87 hvcurveto
          endchar
        </CharString>
        <CharString name="j">
          -209 -194 24 670 -20 134 56 hstem
          77 24 vstem
          72 638 rmoveto
          -15 5 -8 12 -1 vhcurveto
          15 5 10 20 17 -6 9 -12 -13 -6 -10 -22 hvcurveto
          29 -138 rmoveto
          -19 -5 0 -15 hvcurveto
          -513 vlineto
          -90 -9 -52 -79 -53 -33 16 17 -22 vhcurveto
          -5 -7 -1 -5 -6 vvcurveto
          -15 42 -24 69 97 18 63 94 vhcurveto
          endchar
        </CharString>
        <CharString name="jecy">
          -209 -194 24 670 -20 134 56 hstem
          77 24 vstem
          72 642 rmoveto
          -1 -17 5 -10 13 -1 rrcurveto
          14 5 9 17 1 hvcurveto
          19 1 -6 11 -13 hhcurveto
          -12 -6 -9 -19 -1 hvcurveto
          29 -142 rmoveto
          -19 -5 0 -15 hvcurveto
          -513 vlineto
          -90 -9 -52 -79 -53 -33 16 17 -22 vhcurveto
          -5 -7 -1 -5 -6 vvcurveto
          -15 42 -24 69 97 18 63 94 vhcurveto
          endchar
        </CharString>
        <CharString name="k">
          16 21 -21 240 22 224 24 225 -20 hstem
          70 24 226 24 vstem
          70 hmoveto
          23 1 0 7 hvcurveto
          3 vlineto
          198 vlineto
          0 55 21 21 6 vhcurveto
          3 10 14 2 15 hhcurveto
          40 52 -15 -62 26 hvcurveto
          10 -24 6 -31 -40 vvcurveto
          -20 -2 -23 -3 -25 vhcurveto
          25 -1 0 13 2 hvcurveto
          3 21 1 19 18 vvcurveto
          21 -2 19 -3 17 vhcurveto
          100 -20 -70 34 -44 hhcurveto
          -5 -5 -1 -1 -5 hvcurveto
          28 11 102 52 98 vvcurveto
          60 -27 29 -63 -43 -71 -26 -53 -46 vhcurveto
          304 vlineto
          -19 -5 0 -15 hvcurveto
          24 -318 rmoveto
          61 53 58 23 47 hhcurveto
          46 22 -22 -43 -90 -104 -60 -122 -37 hvcurveto
          endchar
        </CharString>
        <CharString name="kacy">
          -16 21 -21 252 23 225 -20 hstem
          68 24 vstem
          241 338 rmoveto
          -41 -19 -29 -22 -37 hhcurveto
          -64 225 hlineto
          -24 0 0 -8 hvcurveto
          -492 vlineto
          24 0 0 8 hvcurveto
          244 62 vlineto
          46 42 -37 -59 20 hvcurveto
          57 -156 rlineto
          -1 4 5 0 4 hhcurveto
          7 3 2 6 hvcurveto
          3 vlineto
          -56 154 -16 48 -33 35 -37 16 rlinecurve
          25 11 22 25 16 34 70 155 rcurveline
          1 4 2 3 2 vvcurveto
          2 -3 1 -7 -5 -5 0 -1 -5 vhcurveto
          endchar
        </CharString>
        <CharString name="kadescendercy">
          -26 0 24 241 24 211 -20 hstem
          68 24 254 26 vstem
          372 24 rmoveto
          -43 hlineto
          -18 133 -53 93 -62 27 59 31 29 78 31 81 3 7 2 7 3 7 rrcurveto
          1 3 1 3 2 vvcurveto
          3 -2 1 -7 -5 -5 0 -1 -5 vhcurveto
          -115 -38 -44 -95 -60 hhcurveto
          -67 211 hlineto
          -24 0 0 -8 hvcurveto
          -492 vlineto
          24 0 0 8 hvcurveto
          257 64 vlineto
          58 74 -82 -183 19 hvcurveto
          39 hlineto
          -30 0 -66 10 -64 vhcurveto
          5 11 0 6 hvcurveto
          endchar
        </CharString>
        <CharString name="kcommaaccent">
          16 21 -21 240 20 226 24 225 -20 hstem
          70 24 226 24 vstem
          70 hmoveto
          26 -2 0 10 hvcurveto
          198 vlineto
          0 55 21 21 6 vhcurveto
          35 10 86 4 36 -86 15 -36 6 -52 -10 -75 rrcurveto
          25 -1 0 13 2 hvcurveto
          6 45 -1 39 -6 31 -22 113 -87 28 -40 -9 rrcurveto
          28 11 102 52 98 vvcurveto
          60 -27 29 -63 -43 -71 -26 -53 -46 vhcurveto
          304 vlineto
          -19 -5 0 -15 hvcurveto
          24 -318 rmoveto
          61 53 58 23 47 hhcurveto
          46 22 -22 -43 -90 -104 -60 -122 -37 hvcurveto
          83 -324 rmoveto
          -13 7 -11 8 -5 vhcurveto
          1 -33 -10 -34 -22 -37 rrcurveto
          -5 1 7 -7 5 hhcurveto
          14 40 86 53 29 -10 5 -15 -16 -10 -11 -17 hvcurveto
          endchar
        </CharString>
        <CharString name="kjecy">
          -16 21 -21 252 23 225 -20 hstem
          68 24 vstem
          143 579 rmoveto
          76 53 66 57 0 vvcurveto
          0 -5 23 -8 vhcurveto
          0 -73 -55 -66 -62 vhcurveto
          10 -16 rlineto
          98 -241 rmoveto
          -41 -19 -29 -22 -37 hhcurveto
          -64 225 hlineto
          -24 0 0 -8 hvcurveto
          -492 vlineto
          24 0 0 8 hvcurveto
          244 62 vlineto
          46 42 -37 -59 20 hvcurveto
          57 -156 rlineto
          -1 4 5 0 4 hhcurveto
          8 3 3 8 -1 hvcurveto
          -56 154 -16 48 -33 35 -37 16 rlinecurve
          25 11 22 25 16 34 70 155 rcurveline
          9 3 3 3 -13 hhcurveto
          -5 -5 0 -1 -5 hvcurveto
          endchar
        </CharString>
        <CharString name="l">
          -223 21 -21 735 -20 hstem
          70 24 vstem
          94 735 rmoveto
          -18 -6 0 -15 hvcurveto
          -720 vlineto
          23 1 0 10 hvcurveto
          endchar
        </CharString>
        <CharString name="lacute">
          -223 21 -21 735 -20 hstem
          70 24 vstem
          17 814 rmoveto
          76 53 66 57 0 vvcurveto
          0 -5 23 -8 vhcurveto
          0 -73 -55 -66 -62 vhcurveto
          10 -16 rlineto
          77 -79 rmoveto
          -18 -6 0 -15 hvcurveto
          -720 vlineto
          23 1 0 10 hvcurveto
          endchar
        </CharString>
        <CharString name="lcaron">
          -223 21 -21 735 -20 hstem
          70 24 vstem
          94 735 rmoveto
          -18 -6 0 -15 hvcurveto
          -720 vlineto
          23 1 0 10 hvcurveto
          endchar
        </CharString>
        <CharString name="lcommaaccent">
          -223 21 -21 735 -20 hstem
          70 24 vstem
          94 735 rmoveto
          -18 -6 0 -15 hvcurveto
          -720 vlineto
          23 1 0 10 hvcurveto
          -36 -100 rmoveto
          -13 7 -11 8 -5 vhcurveto
          1 -33 -10 -34 -22 -37 rrcurveto
          -5 1 7 -7 5 hhcurveto
          14 40 86 53 29 -10 5 -15 -16 -10 -11 -17 hvcurveto
          endchar
        </CharString>
        <CharString name="ldot">
          -224 21 -21 239 61 435 -20 hstem
          70 24 vstem
          94 735 rmoveto
          -18 -6 0 -15 hvcurveto
          -720 vlineto
          23 1 0 10 hvcurveto
          39 260 rmoveto
          -18 10 -13 17 17 12 13 18 16 -12 14 -17 -17 -10 -14 -16 vhcurveto
          endchar
        </CharString>
        <CharString name="less">
          12 128 285 hstem
          334 8 vstem
          83 261 rmoveto
          253 125 rlineto
          4 2 2 3 5 vvcurveto
          3 -1 6 -7 8 vhcurveto
          -274 -136 rlineto
          -7 -4 -3 -5 -6 vvcurveto
          -5 1 -5 4 -5 vhcurveto
          259 -113 rlineto
          -4 10 6 -2 4 hhcurveto
          4 8 5 16 hvcurveto
          endchar
        </CharString>
        <CharString name="lessequal">
          36 0 25 hstem
          344 8 vstem
          93 268 rmoveto
          253 125 rlineto
          4 2 2 3 5 vvcurveto
          3 -1 6 -7 8 vhcurveto
          -274 -136 rlineto
          -7 -4 -3 -5 -6 vvcurveto
          -5 1 -5 4 -5 vhcurveto
          259 -113 rlineto
          -4 10 6 -2 4 hhcurveto
          4 8 5 16 hvcurveto
          -2 -156 rmoveto
          10 0 3 22 hvcurveto
          -284 hlineto
          -10 0 -3 -22 hvcurveto
          endchar
        </CharString>
        <CharString name="literSign">
          -223 21 -21 735 -20 hstem
          70 24 vstem
          94 735 rmoveto
          -18 -6 0 -15 hvcurveto
          -720 vlineto
          23 1 0 10 hvcurveto
          endchar
        </CharString>
        <CharString name="ljecy">
          194 0 20 242 21 193 24 hstem
          298 25 221 23 vstem
          323 283 rmoveto
          217 -178 vlineto
          -21 -2 0 -8 hvcurveto
          -26 -329 -16 -143 -79 -3 rrcurveto
          -1 -3 0 -3 -2 vvcurveto
          -10 7 -2 7 85 22 168 311 24 vhcurveto
          153 -476 110 hlineto
          45 114 -2 160 109 -73 16 -84 hvcurveto
          -87 -263 rmoveto
          242 75 vlineto
          87 59 -11 -92 -125 -62 -14 -77 hvcurveto
          endchar
        </CharString>
        <CharString name="logicalnot">
          12 259 25 hstem
          330 25 vstem
          45 284 rmoveto
          -6 -6 -6 -7 -4 0 -2 2 -6 hvcurveto
          295 -138 hlineto
          -6 5 -6 7 4 5 1 1 4 vhcurveto
          173 vlineto
          endchar
        </CharString>
        <CharString name="longs">
          -215 20 -21 715 24 hstem
          74 24 vstem
          74 44 rmoveto
          -33 -6 -12 0 vhcurveto
          0 6 -7 10 11 3 2 10 vhcurveto
          574 vlineto
          109 45 27 87 55 38 -19 -13 15 vhcurveto
          0 7 13 8 8 -45 27 -70 -95 -61 -35 -116 hvcurveto
          endchar
        </CharString>
        <CharString name="lozenge">
          96 17 -21 708 -20 hstem
          43 402 vstem
          244 -4 rmoveto
          201 354 -201 354 -201 -354 rlineto
          201 307 rmoveto
          174 -307 -174 -305 -174 305 rlineto
          endchar
        </CharString>
        <CharString name="lslash">
          -223 21 -21 501 -20 254 -20 hstem
          70 24 vstem
          94 476 rmoveto
          259 vlineto
          -18 -6 0 -15 hvcurveto
          -253 vlineto
          -61 -25 rlineto
          -4 -2 -2 -2 0 -3 0 -4 2 -6 4 -10 50 flex
          61 25 rlineto
          -440 vlineto
          23 1 0 7 hvcurveto
          3 vlineto
          439 vlineto
          61 25 rlineto
          4 2 2 1 0 4 0 3 -2 6 -4 11 50 flex
          endchar
        </CharString>
        <CharString name="m">
          237 21 -21 486 24 hstem
          70 24 211 24 208 24 vstem
          70 hmoveto
          22 2 0 10 hvcurveto
          449 vlineto
          21 46 38 6 38 hhcurveto
          89 0 -41 -77 hvcurveto
          -368 vlineto
          24 0 0 10 hvcurveto
          358 vlineto
          1 vlineto
          80 vlineto
          29 43 41 8 38 hhcurveto
          73 13 -37 -82 hvcurveto
          -367 vlineto
          24 0 0 10 hvcurveto
          350 vlineto
          98 -14 52 -97 -41 -48 -12 -27 -46 vhcurveto
          25 -14 -28 14 -58 hhcurveto
          -44 -47 -10 -23 -54 hvcurveto
          endchar
        </CharString>
        <CharString name="macron">
          -138 623 25 hstem
          4 242 vstem
          235 623 rmoveto
          7 3 4 8 1 hvcurveto
          4 0 4 -1 5 vhcurveto
          -230 hlineto
          -7 -3 -4 -8 -1 hvcurveto
          -4 0 -4 1 -5 vhcurveto
          endchar
        </CharString>
        <CharString name="micro">
          59 -171 -21 182 24 490 -20 hstem
          73 24 251 24 vstem
          372 502 rmoveto
          2 -5 -5 0 -2 hhcurveto
          -9 -3 -5 -6 hvcurveto
          -454 vlineto
          -14 -32 -42 -11 -53 hhcurveto
          -73 -51 31 83 hvcurveto
          374 vlineto
          2 -5 -4 0 -3 hhcurveto
          -9 -3 -4 -6 hvcurveto
          -686 vlineto
          -1 3 3 -1 4 hhcurveto
          7 7 1 7 hvcurveto
          225 vlineto
          -33 24 43 -16 58 hhcurveto
          52 58 16 17 40 hvcurveto
          endchar
        </CharString>
        <CharString name="micro.001">
          212 endchar
        </CharString>
        <CharString name="minus">
          62 269 25 hstem
          51 350 vstem
          391 269 rmoveto
          10 0 3 22 hvcurveto
          -340 hlineto
          -10 0 -3 -22 hvcurveto
          endchar
        </CharString>
</ttFont>
